%FSLAX24Y24*%
%MOIN*%
G70*
G01*
G75*
G04 Layer_Physical_Order=1*
G04 Layer_Color=255*
%ADD10C,0.0100*%
%ADD11C,0.0150*%
%ADD12C,0.1181*%
%ADD13C,0.0600*%
%ADD14C,0.0669*%
%ADD15C,0.0591*%
%ADD16C,0.1339*%
%ADD17R,0.0591X0.0591*%
%ADD18C,0.0787*%
%ADD19C,0.0709*%
%ADD20C,0.0709*%
%ADD21C,0.0630*%
%ADD22C,0.0728*%
%ADD23C,0.1575*%
G36*
X70524Y50488D02*
Y50488D01*
X70543Y50477D01*
Y32988D01*
X49862D01*
Y50488D01*
X70524D01*
X70524Y50488D01*
D02*
G37*
G36*
X70550Y5850D02*
X49800D01*
Y32000D01*
X70550D01*
Y5850D01*
D02*
G37*
%LPC*%
G36*
X59850Y37252D02*
X59781Y37243D01*
X59671Y37197D01*
X59576Y37124D01*
X59503Y37029D01*
X59457Y36919D01*
X59448Y36850D01*
X59850D01*
Y37252D01*
D02*
G37*
G36*
X59950D02*
Y36850D01*
X60352D01*
X60343Y36919D01*
X60297Y37029D01*
X60224Y37124D01*
X60129Y37197D01*
X60019Y37243D01*
X59950Y37252D01*
D02*
G37*
G36*
X69050Y8123D02*
X68889Y8107D01*
X68735Y8061D01*
X68593Y7985D01*
X68468Y7882D01*
X68365Y7757D01*
X68289Y7615D01*
X68243Y7461D01*
X68227Y7300D01*
X68243Y7139D01*
X68289Y6985D01*
X68365Y6843D01*
X68468Y6718D01*
X68593Y6615D01*
X68735Y6539D01*
X68889Y6493D01*
X69050Y6477D01*
X69211Y6493D01*
X69365Y6539D01*
X69507Y6615D01*
X69632Y6718D01*
X69735Y6843D01*
X69811Y6985D01*
X69857Y7139D01*
X69873Y7300D01*
X69857Y7461D01*
X69811Y7615D01*
X69735Y7757D01*
X69632Y7882D01*
X69507Y7985D01*
X69365Y8061D01*
X69211Y8107D01*
X69050Y8123D01*
D02*
G37*
G36*
X54950Y36763D02*
X54608D01*
X54615Y36709D01*
X54655Y36613D01*
X54718Y36531D01*
X54801Y36467D01*
X54897Y36428D01*
X54950Y36421D01*
Y36763D01*
D02*
G37*
G36*
X61900Y43308D02*
X61781Y43293D01*
X61671Y43247D01*
X61576Y43174D01*
X61503Y43079D01*
X61457Y42969D01*
X61442Y42850D01*
X61457Y42731D01*
X61503Y42621D01*
X61576Y42526D01*
X61671Y42453D01*
X61781Y42407D01*
X61900Y42392D01*
X62019Y42407D01*
X62129Y42453D01*
X62224Y42526D01*
X62297Y42621D01*
X62343Y42731D01*
X62358Y42850D01*
X62343Y42969D01*
X62297Y43079D01*
X62224Y43174D01*
X62129Y43247D01*
X62019Y43293D01*
X61900Y43308D01*
D02*
G37*
G36*
X60900D02*
X60781Y43293D01*
X60671Y43247D01*
X60576Y43174D01*
X60503Y43079D01*
X60457Y42969D01*
X60442Y42850D01*
X60457Y42731D01*
X60503Y42621D01*
X60576Y42526D01*
X60671Y42453D01*
X60781Y42407D01*
X60900Y42392D01*
X61019Y42407D01*
X61129Y42453D01*
X61224Y42526D01*
X61297Y42621D01*
X61343Y42731D01*
X61358Y42850D01*
X61343Y42969D01*
X61297Y43079D01*
X61224Y43174D01*
X61129Y43247D01*
X61019Y43293D01*
X60900Y43308D01*
D02*
G37*
G36*
X51350Y8123D02*
X51189Y8107D01*
X51035Y8061D01*
X50893Y7985D01*
X50768Y7882D01*
X50665Y7757D01*
X50589Y7615D01*
X50543Y7461D01*
X50527Y7300D01*
X50543Y7139D01*
X50589Y6985D01*
X50665Y6843D01*
X50768Y6718D01*
X50893Y6615D01*
X51035Y6539D01*
X51189Y6493D01*
X51350Y6477D01*
X51511Y6493D01*
X51665Y6539D01*
X51807Y6615D01*
X51932Y6718D01*
X52035Y6843D01*
X52111Y6985D01*
X52157Y7139D01*
X52173Y7300D01*
X52157Y7461D01*
X52111Y7615D01*
X52035Y7757D01*
X51932Y7882D01*
X51807Y7985D01*
X51665Y8061D01*
X51511Y8107D01*
X51350Y8123D01*
D02*
G37*
G36*
X62900Y43308D02*
X62781Y43293D01*
X62671Y43247D01*
X62576Y43174D01*
X62503Y43079D01*
X62457Y42969D01*
X62442Y42850D01*
X62457Y42731D01*
X62503Y42621D01*
X62576Y42526D01*
X62671Y42453D01*
X62781Y42407D01*
X62900Y42392D01*
X63019Y42407D01*
X63129Y42453D01*
X63224Y42526D01*
X63297Y42621D01*
X63343Y42731D01*
X63358Y42850D01*
X63343Y42969D01*
X63297Y43079D01*
X63224Y43174D01*
X63129Y43247D01*
X63019Y43293D01*
X62900Y43308D01*
D02*
G37*
G36*
X52080Y10735D02*
X51896Y10717D01*
X51719Y10663D01*
X51556Y10576D01*
X51413Y10459D01*
X51296Y10316D01*
X51209Y10153D01*
X51156Y9977D01*
X51138Y9793D01*
X51156Y9609D01*
X51209Y9432D01*
X51296Y9270D01*
X51413Y9127D01*
X51556Y9010D01*
X51719Y8923D01*
X51896Y8869D01*
X52080Y8851D01*
X52263Y8869D01*
X52440Y8923D01*
X52603Y9010D01*
X52746Y9127D01*
X52863Y9270D01*
X52950Y9432D01*
X53003Y9609D01*
X53021Y9793D01*
X53003Y9977D01*
X52950Y10153D01*
X52863Y10316D01*
X52746Y10459D01*
X52603Y10576D01*
X52440Y10663D01*
X52263Y10717D01*
X52080Y10735D01*
D02*
G37*
G36*
X69950Y31359D02*
X69818Y31341D01*
X69696Y31291D01*
X69590Y31210D01*
X69509Y31104D01*
X69475Y31021D01*
X69425D01*
X69391Y31104D01*
X69310Y31210D01*
X69204Y31291D01*
X69082Y31341D01*
X68950Y31359D01*
X68818Y31341D01*
X68696Y31291D01*
X68590Y31210D01*
X68509Y31104D01*
X68475Y31021D01*
X68425D01*
X68391Y31104D01*
X68310Y31210D01*
X68204Y31291D01*
X68082Y31341D01*
X67950Y31359D01*
X67818Y31341D01*
X67696Y31291D01*
X67590Y31210D01*
X67509Y31104D01*
X67475Y31021D01*
X67425D01*
X67391Y31104D01*
X67310Y31210D01*
X67204Y31291D01*
X67082Y31341D01*
X66950Y31359D01*
X66818Y31341D01*
X66696Y31291D01*
X66590Y31210D01*
X66509Y31104D01*
X66475Y31021D01*
X66425D01*
X66391Y31104D01*
X66310Y31210D01*
X66204Y31291D01*
X66082Y31341D01*
X65950Y31359D01*
X65818Y31341D01*
X65696Y31291D01*
X65590Y31210D01*
X65509Y31104D01*
X65475Y31021D01*
X65425D01*
X65391Y31104D01*
X65310Y31210D01*
X65204Y31291D01*
X65082Y31341D01*
X64950Y31359D01*
X64818Y31341D01*
X64696Y31291D01*
X64590Y31210D01*
X64509Y31104D01*
X64475Y31021D01*
X64425D01*
X64391Y31104D01*
X64310Y31210D01*
X64204Y31291D01*
X64082Y31341D01*
X63950Y31359D01*
X63818Y31341D01*
X63696Y31291D01*
X63590Y31210D01*
X63509Y31104D01*
X63475Y31021D01*
X63425D01*
X63391Y31104D01*
X63310Y31210D01*
X63204Y31291D01*
X63082Y31341D01*
X62950Y31359D01*
X62818Y31341D01*
X62696Y31291D01*
X62590Y31210D01*
X62509Y31104D01*
X62475Y31021D01*
X62425D01*
X62391Y31104D01*
X62310Y31210D01*
X62204Y31291D01*
X62082Y31341D01*
X61950Y31359D01*
X61818Y31341D01*
X61696Y31291D01*
X61590Y31210D01*
X61509Y31104D01*
X61475Y31021D01*
X61425D01*
X61391Y31104D01*
X61310Y31210D01*
X61204Y31291D01*
X61082Y31341D01*
X60950Y31359D01*
X60818Y31341D01*
X60696Y31291D01*
X60590Y31210D01*
X60509Y31104D01*
X60475Y31021D01*
X60425D01*
X60391Y31104D01*
X60310Y31210D01*
X60204Y31291D01*
X60082Y31341D01*
X59950Y31359D01*
X59818Y31341D01*
X59696Y31291D01*
X59590Y31210D01*
X59509Y31104D01*
X59475Y31021D01*
X59425D01*
X59391Y31104D01*
X59310Y31210D01*
X59204Y31291D01*
X59082Y31341D01*
X58950Y31359D01*
X58818Y31341D01*
X58696Y31291D01*
X58590Y31210D01*
X58509Y31104D01*
X58459Y30982D01*
X58441Y30850D01*
X58459Y30718D01*
X58509Y30596D01*
X58590Y30490D01*
X58696Y30409D01*
X58818Y30359D01*
X58950Y30341D01*
X59082Y30359D01*
X59204Y30409D01*
X59310Y30490D01*
X59391Y30596D01*
X59425Y30679D01*
X59475D01*
X59509Y30596D01*
X59590Y30490D01*
X59696Y30409D01*
X59721Y30399D01*
Y27245D01*
X50538Y18062D01*
X50488Y17988D01*
X50471Y17900D01*
Y14250D01*
X50488Y14162D01*
X50538Y14088D01*
X51338Y13288D01*
X51412Y13238D01*
X51500Y13221D01*
X52050D01*
X52138Y13238D01*
X52212Y13288D01*
X52562Y13638D01*
X52612Y13712D01*
X52629Y13800D01*
Y14500D01*
X52612Y14588D01*
X52562Y14662D01*
X52239Y14986D01*
X52254Y15100D01*
X52238Y15217D01*
X52193Y15327D01*
X52121Y15421D01*
X52027Y15493D01*
X51917Y15538D01*
X51800Y15554D01*
X51683Y15538D01*
X51573Y15493D01*
X51479Y15421D01*
X51427Y15353D01*
X51379Y15369D01*
Y15831D01*
X51427Y15847D01*
X51479Y15779D01*
X51573Y15707D01*
X51683Y15662D01*
X51800Y15646D01*
X51917Y15662D01*
X52027Y15707D01*
X52121Y15779D01*
X52191Y15871D01*
X52300D01*
X52388Y15888D01*
X52462Y15938D01*
X60831Y24307D01*
X60950Y24291D01*
X61082Y24309D01*
X61107Y24319D01*
X61438Y23988D01*
X61512Y23938D01*
X61600Y23921D01*
X67300D01*
X67388Y23938D01*
X67462Y23988D01*
X67793Y24319D01*
X67818Y24309D01*
X67950Y24291D01*
X68082Y24309D01*
X68204Y24359D01*
X68310Y24440D01*
X68391Y24546D01*
X68401Y24571D01*
X68499D01*
X68509Y24546D01*
X68590Y24440D01*
X68696Y24359D01*
X68818Y24309D01*
X68950Y24291D01*
X69082Y24309D01*
X69204Y24359D01*
X69310Y24440D01*
X69391Y24546D01*
X69401Y24571D01*
X69499D01*
X69509Y24546D01*
X69590Y24440D01*
X69696Y24359D01*
X69818Y24309D01*
X69950Y24291D01*
X70082Y24309D01*
X70204Y24359D01*
X70310Y24440D01*
X70391Y24546D01*
X70441Y24668D01*
X70459Y24800D01*
X70441Y24932D01*
X70391Y25054D01*
X70310Y25160D01*
X70204Y25241D01*
X70082Y25291D01*
X69950Y25309D01*
X69818Y25291D01*
X69696Y25241D01*
X69590Y25160D01*
X69509Y25054D01*
X69499Y25029D01*
X69401D01*
X69391Y25054D01*
X69310Y25160D01*
X69204Y25241D01*
X69082Y25291D01*
X68950Y25309D01*
X68818Y25291D01*
X68696Y25241D01*
X68590Y25160D01*
X68509Y25054D01*
X68499Y25029D01*
X68401D01*
X68391Y25054D01*
X68310Y25160D01*
X68204Y25241D01*
X68082Y25291D01*
X67950Y25309D01*
X67818Y25291D01*
X67696Y25241D01*
X67590Y25160D01*
X67509Y25054D01*
X67476Y24975D01*
X67426D01*
X67393Y25054D01*
X67312Y25160D01*
X67207Y25241D01*
X67084Y25291D01*
X66953Y25309D01*
X66821Y25291D01*
X66698Y25241D01*
X66593Y25160D01*
X66512Y25054D01*
X66476Y24968D01*
X66426D01*
X66391Y25054D01*
X66310Y25160D01*
X66204Y25241D01*
X66082Y25291D01*
X65950Y25309D01*
X65818Y25291D01*
X65696Y25241D01*
X65590Y25160D01*
X65509Y25054D01*
X65475Y24971D01*
X65425D01*
X65391Y25054D01*
X65310Y25160D01*
X65204Y25241D01*
X65082Y25291D01*
X65000Y25302D01*
Y24800D01*
X64900D01*
Y25302D01*
X64818Y25291D01*
X64793Y25281D01*
X64462Y25612D01*
X64388Y25662D01*
X64300Y25679D01*
X63600D01*
X63512Y25662D01*
X63438Y25612D01*
X63107Y25281D01*
X63082Y25291D01*
X63000Y25302D01*
Y24800D01*
X62900D01*
Y25302D01*
X62818Y25291D01*
X62793Y25281D01*
X62462Y25612D01*
X62388Y25662D01*
X62300Y25679D01*
X60600D01*
X60512Y25662D01*
X60438Y25612D01*
X60107Y25281D01*
X60082Y25291D01*
X60000Y25302D01*
Y24800D01*
Y24298D01*
X60082Y24309D01*
X60138Y24332D01*
X60166Y24291D01*
X52224Y16348D01*
X52174Y16352D01*
X52121Y16421D01*
X52027Y16493D01*
X51917Y16538D01*
X51800Y16554D01*
X51683Y16538D01*
X51597Y16503D01*
X51569Y16544D01*
X51686Y16661D01*
X51750Y16653D01*
Y17050D01*
X51353D01*
X51361Y16986D01*
X50988Y16612D01*
X50977Y16596D01*
X50929Y16611D01*
Y17805D01*
X60112Y26988D01*
X60162Y27062D01*
X60179Y27150D01*
Y30399D01*
X60204Y30409D01*
X60310Y30490D01*
X60391Y30596D01*
X60425Y30679D01*
X60475D01*
X60509Y30596D01*
X60590Y30490D01*
X60696Y30409D01*
X60818Y30359D01*
X60950Y30341D01*
X61082Y30359D01*
X61204Y30409D01*
X61310Y30490D01*
X61391Y30596D01*
X61425Y30679D01*
X61475D01*
X61509Y30596D01*
X61590Y30490D01*
X61696Y30409D01*
X61818Y30359D01*
X61950Y30341D01*
X62082Y30359D01*
X62204Y30409D01*
X62310Y30490D01*
X62391Y30596D01*
X62425Y30679D01*
X62475D01*
X62509Y30596D01*
X62590Y30490D01*
X62696Y30409D01*
X62818Y30359D01*
X62950Y30341D01*
X63082Y30359D01*
X63204Y30409D01*
X63310Y30490D01*
X63391Y30596D01*
X63425Y30679D01*
X63475D01*
X63509Y30596D01*
X63590Y30490D01*
X63696Y30409D01*
X63818Y30359D01*
X63950Y30341D01*
X64082Y30359D01*
X64204Y30409D01*
X64310Y30490D01*
X64391Y30596D01*
X64425Y30679D01*
X64475D01*
X64509Y30596D01*
X64590Y30490D01*
X64696Y30409D01*
X64818Y30359D01*
X64950Y30341D01*
X65082Y30359D01*
X65204Y30409D01*
X65310Y30490D01*
X65391Y30596D01*
X65425Y30679D01*
X65475D01*
X65509Y30596D01*
X65590Y30490D01*
X65696Y30409D01*
X65818Y30359D01*
X65950Y30341D01*
X66082Y30359D01*
X66204Y30409D01*
X66310Y30490D01*
X66391Y30596D01*
X66425Y30679D01*
X66475D01*
X66509Y30596D01*
X66590Y30490D01*
X66696Y30409D01*
X66818Y30359D01*
X66950Y30341D01*
X67082Y30359D01*
X67204Y30409D01*
X67310Y30490D01*
X67391Y30596D01*
X67425Y30679D01*
X67475D01*
X67509Y30596D01*
X67590Y30490D01*
X67696Y30409D01*
X67818Y30359D01*
X67950Y30341D01*
X68082Y30359D01*
X68204Y30409D01*
X68310Y30490D01*
X68391Y30596D01*
X68425Y30679D01*
X68475D01*
X68509Y30596D01*
X68590Y30490D01*
X68696Y30409D01*
X68818Y30359D01*
X68950Y30341D01*
X69082Y30359D01*
X69204Y30409D01*
X69310Y30490D01*
X69391Y30596D01*
X69425Y30679D01*
X69475D01*
X69509Y30596D01*
X69590Y30490D01*
X69696Y30409D01*
X69818Y30359D01*
X69950Y30341D01*
X70082Y30359D01*
X70204Y30409D01*
X70310Y30490D01*
X70391Y30596D01*
X70441Y30718D01*
X70459Y30850D01*
X70441Y30982D01*
X70391Y31104D01*
X70310Y31210D01*
X70204Y31291D01*
X70082Y31341D01*
X69950Y31359D01*
D02*
G37*
G36*
X62913Y34900D02*
X62571D01*
X62578Y34847D01*
X62617Y34751D01*
X62681Y34668D01*
X62763Y34605D01*
X62859Y34565D01*
X62913Y34558D01*
Y34900D01*
D02*
G37*
G36*
X68812Y22349D02*
X68628Y22331D01*
X68451Y22277D01*
X68288Y22190D01*
X68146Y22073D01*
X68029Y21930D01*
X67942Y21768D01*
X67888Y21591D01*
X67870Y21407D01*
X67888Y21223D01*
X67942Y21047D01*
X68029Y20884D01*
X68146Y20741D01*
X68288Y20624D01*
X68451Y20537D01*
X68628Y20483D01*
X68812Y20465D01*
X68996Y20483D01*
X69172Y20537D01*
X69335Y20624D01*
X69478Y20741D01*
X69595Y20884D01*
X69682Y21047D01*
X69736Y21223D01*
X69754Y21407D01*
X69736Y21591D01*
X69682Y21768D01*
X69595Y21930D01*
X69478Y22073D01*
X69335Y22190D01*
X69172Y22277D01*
X68996Y22331D01*
X68812Y22349D01*
D02*
G37*
G36*
X58950Y25309D02*
X58818Y25291D01*
X58696Y25241D01*
X58590Y25160D01*
X58509Y25054D01*
X58459Y24932D01*
X58441Y24800D01*
X58459Y24668D01*
X58509Y24546D01*
X58590Y24440D01*
X58696Y24359D01*
X58818Y24309D01*
X58950Y24291D01*
X59065Y24306D01*
X59087Y24262D01*
X52202Y17377D01*
X52152Y17380D01*
X52121Y17421D01*
X52027Y17493D01*
X51917Y17538D01*
X51850Y17547D01*
Y17100D01*
Y16653D01*
X51917Y16662D01*
X52027Y16707D01*
X52121Y16779D01*
X52191Y16871D01*
X52250D01*
X52338Y16888D01*
X52412Y16938D01*
X59793Y24319D01*
X59818Y24309D01*
X59900Y24298D01*
Y24800D01*
Y25302D01*
X59818Y25291D01*
X59696Y25241D01*
X59590Y25160D01*
X59509Y25054D01*
X59475Y24971D01*
X59425D01*
X59391Y25054D01*
X59310Y25160D01*
X59204Y25241D01*
X59082Y25291D01*
X58950Y25309D01*
D02*
G37*
G36*
X68413Y35442D02*
X68359Y35435D01*
X68263Y35395D01*
X68181Y35332D01*
X68117Y35249D01*
X68078Y35153D01*
X68071Y35100D01*
X68413D01*
Y35442D01*
D02*
G37*
G36*
X51750Y17547D02*
X51683Y17538D01*
X51573Y17493D01*
X51479Y17421D01*
X51407Y17327D01*
X51362Y17217D01*
X51353Y17150D01*
X51750D01*
Y17547D01*
D02*
G37*
G36*
X68812Y10735D02*
X68628Y10717D01*
X68451Y10663D01*
X68288Y10576D01*
X68146Y10459D01*
X68029Y10316D01*
X67942Y10153D01*
X67888Y9977D01*
X67870Y9793D01*
X67888Y9609D01*
X67942Y9432D01*
X68029Y9270D01*
X68146Y9127D01*
X68288Y9010D01*
X68451Y8923D01*
X68628Y8869D01*
X68812Y8851D01*
X68996Y8869D01*
X69172Y8923D01*
X69335Y9010D01*
X69478Y9127D01*
X69595Y9270D01*
X69682Y9432D01*
X69736Y9609D01*
X69754Y9793D01*
X69736Y9977D01*
X69682Y10153D01*
X69595Y10316D01*
X69478Y10459D01*
X69335Y10576D01*
X69172Y10663D01*
X68996Y10717D01*
X68812Y10735D01*
D02*
G37*
G36*
X58900Y37258D02*
X58781Y37243D01*
X58671Y37197D01*
X58576Y37124D01*
X58503Y37029D01*
X58457Y36919D01*
X58442Y36800D01*
X58457Y36681D01*
X58503Y36571D01*
X58576Y36476D01*
X58671Y36403D01*
X58733Y36377D01*
X58723Y36328D01*
X55737D01*
X55376Y36688D01*
X55385Y36709D01*
X55392Y36763D01*
X55050D01*
Y36421D01*
X55103Y36428D01*
X55124Y36436D01*
X55536Y36024D01*
X55594Y35985D01*
X55663Y35972D01*
X55663Y35972D01*
X59250D01*
X59318Y35985D01*
X59376Y36024D01*
X59731Y36378D01*
X59781Y36357D01*
X59850Y36348D01*
Y36750D01*
X59448D01*
X59457Y36681D01*
X59478Y36631D01*
X59176Y36328D01*
X59077D01*
X59067Y36377D01*
X59129Y36403D01*
X59224Y36476D01*
X59297Y36571D01*
X59343Y36681D01*
X59358Y36800D01*
X59343Y36919D01*
X59297Y37029D01*
X59224Y37124D01*
X59129Y37197D01*
X59019Y37243D01*
X58900Y37258D01*
D02*
G37*
G36*
X52080Y22349D02*
X51896Y22331D01*
X51719Y22277D01*
X51556Y22190D01*
X51413Y22073D01*
X51296Y21930D01*
X51209Y21768D01*
X51156Y21591D01*
X51138Y21407D01*
X51156Y21223D01*
X51209Y21047D01*
X51296Y20884D01*
X51413Y20741D01*
X51556Y20624D01*
X51719Y20537D01*
X51896Y20483D01*
X52080Y20465D01*
X52263Y20483D01*
X52440Y20537D01*
X52603Y20624D01*
X52746Y20741D01*
X52863Y20884D01*
X52950Y21047D01*
X53003Y21223D01*
X53021Y21407D01*
X53003Y21591D01*
X52950Y21768D01*
X52863Y21930D01*
X52746Y22073D01*
X52603Y22190D01*
X52440Y22277D01*
X52263Y22331D01*
X52080Y22349D01*
D02*
G37*
G36*
X63900Y43308D02*
X63781Y43293D01*
X63671Y43247D01*
X63576Y43174D01*
X63503Y43079D01*
X63457Y42969D01*
X63442Y42850D01*
X63457Y42731D01*
X63503Y42621D01*
X63576Y42526D01*
X63671Y42453D01*
X63781Y42407D01*
X63900Y42392D01*
X64019Y42407D01*
X64129Y42453D01*
X64224Y42526D01*
X64297Y42621D01*
X64343Y42731D01*
X64358Y42850D01*
X64343Y42969D01*
X64297Y43079D01*
X64224Y43174D01*
X64129Y43247D01*
X64019Y43293D01*
X63900Y43308D01*
D02*
G37*
G36*
X66923Y47146D02*
X66578D01*
Y46800D01*
X66923D01*
Y47146D01*
D02*
G37*
G36*
X69023Y47242D02*
Y46800D01*
X69465D01*
X69454Y46879D01*
X69404Y46999D01*
X69325Y47103D01*
X69222Y47182D01*
X69102Y47231D01*
X69023Y47242D01*
D02*
G37*
G36*
X52980Y46473D02*
X52911Y46459D01*
X52853Y46421D01*
X52582Y46149D01*
X52524Y46156D01*
Y45794D01*
X52886D01*
X52878Y45853D01*
X52852Y45915D01*
X53053Y46116D01*
X53199D01*
X53215Y46069D01*
X53178Y46040D01*
X53112Y45954D01*
X53070Y45853D01*
X53055Y45744D01*
X53070Y45636D01*
X53112Y45535D01*
X53178Y45449D01*
X53265Y45382D01*
X53296Y45369D01*
Y44476D01*
X53309Y44408D01*
X53348Y44350D01*
X53715Y43983D01*
X53693Y43938D01*
X53663Y43942D01*
Y43550D01*
X53613D01*
Y43500D01*
X53221D01*
X53228Y43447D01*
X53267Y43351D01*
X53331Y43268D01*
X53413Y43205D01*
X53434Y43196D01*
Y38200D01*
X53448Y38132D01*
X53486Y38074D01*
X54624Y36937D01*
X54615Y36916D01*
X54608Y36863D01*
X55392D01*
X55385Y36916D01*
X55345Y37012D01*
X55282Y37095D01*
X55199Y37158D01*
X55103Y37198D01*
Y37215D01*
X55199Y37255D01*
X55282Y37318D01*
X55323Y37372D01*
X60526D01*
X60661Y37237D01*
X60658Y37187D01*
X60576Y37124D01*
X60503Y37029D01*
X60457Y36919D01*
X60442Y36800D01*
X60457Y36681D01*
X60503Y36571D01*
X60576Y36476D01*
X60671Y36403D01*
X60733Y36377D01*
X60723Y36328D01*
X60624D01*
X60322Y36631D01*
X60343Y36681D01*
X60352Y36750D01*
X59950D01*
Y36348D01*
X60019Y36357D01*
X60069Y36378D01*
X60424Y36024D01*
X60482Y35985D01*
X60550Y35972D01*
X60550Y35972D01*
X62176D01*
X62784Y35363D01*
Y35304D01*
X62763Y35295D01*
X62681Y35232D01*
X62617Y35149D01*
X62578Y35053D01*
X62571Y35000D01*
X62963D01*
Y34950D01*
X63013D01*
Y34558D01*
X63066Y34565D01*
X63078Y34570D01*
X63374Y34274D01*
X63432Y34235D01*
X63500Y34222D01*
X64400D01*
X64468Y34235D01*
X64526Y34274D01*
X64896Y34643D01*
X64937Y34627D01*
X65000Y34618D01*
Y35000D01*
X64618D01*
X64627Y34937D01*
X64643Y34896D01*
X64326Y34578D01*
X63993D01*
X63977Y34626D01*
X64032Y34668D01*
X64095Y34751D01*
X64135Y34847D01*
X64149Y34950D01*
X64135Y35053D01*
X64126Y35074D01*
X64574Y35522D01*
X64925D01*
X64934Y35473D01*
X64831Y35430D01*
X64740Y35360D01*
X64670Y35269D01*
X64627Y35163D01*
X64618Y35100D01*
X65050D01*
Y35050D01*
X65100D01*
Y34618D01*
X65163Y34627D01*
X65169Y34629D01*
X65524Y34274D01*
X65582Y34235D01*
X65650Y34222D01*
X67813D01*
X67881Y34235D01*
X67939Y34274D01*
X68338Y34674D01*
X68359Y34665D01*
X68413Y34658D01*
Y35000D01*
X68071D01*
X68078Y34947D01*
X68086Y34926D01*
X67739Y34578D01*
X67175D01*
X67166Y34627D01*
X67269Y34670D01*
X67360Y34740D01*
X67430Y34831D01*
X67473Y34937D01*
X67488Y35050D01*
X67478Y35126D01*
X68731Y36378D01*
X68781Y36357D01*
X68900Y36342D01*
X69019Y36357D01*
X69030Y36362D01*
X69072Y36334D01*
Y35404D01*
X69051Y35395D01*
X68968Y35332D01*
X68905Y35249D01*
X68881Y35193D01*
X68831D01*
X68808Y35249D01*
X68745Y35332D01*
X68662Y35395D01*
X68566Y35435D01*
X68513Y35442D01*
Y35050D01*
Y34658D01*
X68566Y34665D01*
X68662Y34705D01*
X68745Y34768D01*
X68808Y34851D01*
X68831Y34907D01*
X68881D01*
X68905Y34851D01*
X68968Y34768D01*
X69051Y34705D01*
X69147Y34665D01*
X69250Y34651D01*
X69353Y34665D01*
X69449Y34705D01*
X69532Y34768D01*
X69595Y34851D01*
X69635Y34947D01*
X69649Y35050D01*
X69635Y35153D01*
X69595Y35249D01*
X69532Y35332D01*
X69449Y35395D01*
X69428Y35404D01*
Y36450D01*
X69428Y36450D01*
X69415Y36518D01*
X69376Y36576D01*
X69395Y36622D01*
X69482D01*
X69503Y36571D01*
X69576Y36476D01*
X69671Y36403D01*
X69781Y36357D01*
X69900Y36342D01*
X70019Y36357D01*
X70129Y36403D01*
X70224Y36476D01*
X70297Y36571D01*
X70343Y36681D01*
X70358Y36800D01*
X70343Y36919D01*
X70297Y37029D01*
X70224Y37124D01*
X70129Y37197D01*
X70019Y37243D01*
X69900Y37258D01*
X69781Y37243D01*
X69671Y37197D01*
X69576Y37124D01*
X69503Y37029D01*
X69482Y36978D01*
X69318D01*
X69297Y37029D01*
X69224Y37124D01*
X69129Y37197D01*
X69019Y37243D01*
X68900Y37258D01*
X68781Y37243D01*
X68731Y37222D01*
X67976Y37976D01*
X67918Y38015D01*
X67850Y38028D01*
X60900D01*
X60832Y38015D01*
X60774Y37976D01*
X60526Y37728D01*
X55375D01*
X55345Y37799D01*
X55282Y37882D01*
X55199Y37945D01*
X55103Y37985D01*
X55000Y37999D01*
X54897Y37985D01*
X54876Y37976D01*
X54578Y38274D01*
Y43196D01*
X54599Y43205D01*
X54682Y43268D01*
X54745Y43351D01*
X54785Y43447D01*
X54799Y43550D01*
X54785Y43653D01*
X54745Y43749D01*
X54682Y43832D01*
X54599Y43895D01*
X54503Y43935D01*
X54400Y43949D01*
X54297Y43935D01*
X54276Y43926D01*
X53652Y44550D01*
Y45369D01*
X53683Y45382D01*
X53770Y45449D01*
X53836Y45535D01*
X53878Y45636D01*
X53893Y45744D01*
X53878Y45853D01*
X53836Y45954D01*
X53770Y46040D01*
X53683Y46107D01*
X53685Y46116D01*
X53850D01*
X54083Y45884D01*
X54070Y45853D01*
X54062Y45794D01*
X54424D01*
Y46156D01*
X54366Y46149D01*
X54335Y46136D01*
X54050Y46421D01*
X53992Y46459D01*
X53924Y46473D01*
X52980D01*
X52980Y46473D01*
D02*
G37*
G36*
X52424Y46156D02*
X52366Y46149D01*
X52265Y46107D01*
X52178Y46040D01*
X52112Y45954D01*
X52070Y45853D01*
X52062Y45794D01*
X52424D01*
Y46156D01*
D02*
G37*
G36*
X63830Y46473D02*
X55080D01*
X55011Y46459D01*
X54953Y46421D01*
X54953Y46421D01*
X54652Y46120D01*
X54582Y46149D01*
X54524Y46156D01*
Y45794D01*
X54886D01*
X54880Y45842D01*
X55153Y46116D01*
X55199D01*
X55215Y46069D01*
X55178Y46040D01*
X55112Y45954D01*
X55070Y45853D01*
X55055Y45744D01*
X55070Y45636D01*
X55112Y45535D01*
X55178Y45449D01*
X55265Y45382D01*
X55366Y45340D01*
X55474Y45326D01*
X55582Y45340D01*
X55613Y45353D01*
X58242Y42724D01*
X58242Y42724D01*
X58300Y42685D01*
X58369Y42672D01*
X58369Y42672D01*
X58482D01*
X58503Y42621D01*
X58576Y42526D01*
X58671Y42453D01*
X58781Y42407D01*
X58900Y42392D01*
X59019Y42407D01*
X59129Y42453D01*
X59224Y42526D01*
X59297Y42621D01*
X59343Y42731D01*
X59356Y42832D01*
X59403Y42848D01*
X59448Y42804D01*
X59457Y42731D01*
X59503Y42621D01*
X59576Y42526D01*
X59671Y42453D01*
X59781Y42407D01*
X59900Y42392D01*
X60019Y42407D01*
X60129Y42453D01*
X60224Y42526D01*
X60297Y42621D01*
X60343Y42731D01*
X60358Y42850D01*
X60343Y42969D01*
X60297Y43079D01*
X60224Y43174D01*
X60129Y43247D01*
X60019Y43293D01*
X59900Y43308D01*
X59781Y43293D01*
X59671Y43247D01*
X59580Y43177D01*
X57460Y45297D01*
X57474Y45326D01*
X57582Y45340D01*
X57683Y45382D01*
X57770Y45449D01*
X57836Y45535D01*
X57878Y45636D01*
X57893Y45744D01*
X57878Y45853D01*
X57836Y45954D01*
X57770Y46040D01*
X57683Y46107D01*
X57685Y46116D01*
X58199D01*
X58215Y46069D01*
X58178Y46040D01*
X58112Y45954D01*
X58070Y45853D01*
X58055Y45744D01*
X58070Y45636D01*
X58112Y45535D01*
X58178Y45449D01*
X58265Y45382D01*
X58366Y45340D01*
X58474Y45326D01*
X58582Y45340D01*
X58683Y45382D01*
X58770Y45449D01*
X58836Y45535D01*
X58878Y45636D01*
X58893Y45744D01*
X58878Y45853D01*
X58836Y45954D01*
X58770Y46040D01*
X58683Y46107D01*
X58685Y46116D01*
X63756D01*
X63988Y45884D01*
X63975Y45853D01*
X63968Y45794D01*
X64330D01*
Y46156D01*
X64271Y46149D01*
X64240Y46136D01*
X63956Y46421D01*
X63898Y46459D01*
X63830Y46473D01*
D02*
G37*
G36*
X69050Y49773D02*
X68899Y49758D01*
X68754Y49714D01*
X68621Y49643D01*
X68503Y49547D01*
X68407Y49429D01*
X68336Y49296D01*
X68292Y49151D01*
X68277Y49000D01*
X68292Y48849D01*
X68336Y48704D01*
X68407Y48571D01*
X68503Y48453D01*
X68621Y48357D01*
X68754Y48286D01*
X68899Y48242D01*
X69050Y48227D01*
X69201Y48242D01*
X69346Y48286D01*
X69479Y48357D01*
X69597Y48453D01*
X69693Y48571D01*
X69764Y48704D01*
X69808Y48849D01*
X69823Y49000D01*
X69808Y49151D01*
X69764Y49296D01*
X69693Y49429D01*
X69597Y49547D01*
X69479Y49643D01*
X69346Y49714D01*
X69201Y49758D01*
X69050Y49773D01*
D02*
G37*
G36*
X57200Y49853D02*
X57141Y49841D01*
X57101Y49814D01*
X57100Y49816D01*
X57079Y49828D01*
X57059Y49841D01*
X57053Y49842D01*
X57048Y49845D01*
X57024Y49848D01*
X57000Y49853D01*
X56995Y49852D01*
X56989Y49853D01*
X56966Y49846D01*
X56941Y49841D01*
X56937Y49838D01*
X56932Y49837D01*
X56924Y49831D01*
X56909Y49841D01*
X56850Y49853D01*
X56791Y49841D01*
X56750Y49814D01*
X56709Y49841D01*
X56650Y49853D01*
X56591Y49841D01*
X56575Y49830D01*
X56559Y49841D01*
X56500Y49853D01*
X56300D01*
X56241Y49841D01*
X56200Y49814D01*
X56159Y49841D01*
X56100Y49853D01*
X55900D01*
X55841Y49841D01*
X55825Y49830D01*
X55809Y49841D01*
X55750Y49853D01*
X55691Y49841D01*
X55642Y49808D01*
X55600Y49766D01*
X55558Y49808D01*
X55509Y49841D01*
X55450Y49853D01*
X55391Y49841D01*
X55350Y49814D01*
X55309Y49841D01*
X55250Y49853D01*
X55050D01*
X54991Y49841D01*
X54975Y49830D01*
X54959Y49841D01*
X54900Y49853D01*
X54700D01*
X54641Y49841D01*
X54600Y49814D01*
X54559Y49841D01*
X54500Y49853D01*
X54300D01*
X54241Y49841D01*
X54192Y49808D01*
X54158D01*
X54109Y49841D01*
X54050Y49853D01*
X54000Y49843D01*
X53950Y49853D01*
X53800D01*
X53741Y49841D01*
X53725Y49830D01*
X53709Y49841D01*
X53650Y49853D01*
X53591Y49841D01*
X53550Y49814D01*
X53509Y49841D01*
X53450Y49853D01*
X53391Y49841D01*
X53342Y49808D01*
X53309Y49759D01*
X53297Y49700D01*
Y49300D01*
X53309Y49241D01*
X53342Y49192D01*
X53391Y49159D01*
X53450Y49147D01*
X53509Y49159D01*
X53550Y49186D01*
X53591Y49159D01*
X53650Y49147D01*
X53709Y49159D01*
X53725Y49170D01*
X53741Y49159D01*
X53800Y49147D01*
X53950D01*
X54000Y49157D01*
X54050Y49147D01*
X54200D01*
X54250Y49157D01*
X54300Y49147D01*
X54500D01*
X54559Y49159D01*
X54600Y49186D01*
X54641Y49159D01*
X54700Y49147D01*
X54900D01*
X54959Y49159D01*
X54975Y49170D01*
X54991Y49159D01*
X55050Y49147D01*
X55109Y49159D01*
X55158Y49192D01*
X55192D01*
X55241Y49159D01*
X55300Y49147D01*
X55359Y49159D01*
X55375Y49170D01*
X55391Y49159D01*
X55450Y49147D01*
X55509Y49159D01*
X55558Y49192D01*
X55575Y49217D01*
X55625D01*
X55642Y49192D01*
X55691Y49159D01*
X55750Y49147D01*
X55809Y49159D01*
X55825Y49170D01*
X55841Y49159D01*
X55900Y49147D01*
X56100D01*
X56159Y49159D01*
X56175Y49170D01*
X56191Y49159D01*
X56250Y49147D01*
X56450D01*
X56509Y49159D01*
X56558Y49192D01*
X56575Y49209D01*
X56592Y49192D01*
X56641Y49159D01*
X56700Y49147D01*
X56800D01*
X56859Y49159D01*
X56900Y49186D01*
X56941Y49159D01*
X57000Y49147D01*
X57059Y49159D01*
X57099Y49186D01*
X57100Y49184D01*
X57121Y49172D01*
X57141Y49159D01*
X57147Y49158D01*
X57152Y49155D01*
X57176Y49152D01*
X57200Y49147D01*
X57205Y49148D01*
X57211Y49147D01*
X57234Y49154D01*
X57259Y49159D01*
X57263Y49162D01*
X57268Y49163D01*
X57288Y49178D01*
X57308Y49192D01*
X57311Y49196D01*
X57316Y49200D01*
X57328Y49221D01*
X57341Y49241D01*
X57342Y49247D01*
X57345Y49252D01*
X57348Y49276D01*
X57353Y49300D01*
Y49700D01*
X57341Y49759D01*
X57308Y49808D01*
X57259Y49841D01*
X57200Y49853D01*
D02*
G37*
G36*
X51350Y49773D02*
X51199Y49758D01*
X51054Y49714D01*
X50921Y49643D01*
X50803Y49547D01*
X50707Y49429D01*
X50636Y49296D01*
X50592Y49151D01*
X50577Y49000D01*
X50592Y48849D01*
X50636Y48704D01*
X50707Y48571D01*
X50803Y48453D01*
X50921Y48357D01*
X51054Y48286D01*
X51199Y48242D01*
X51350Y48227D01*
X51501Y48242D01*
X51646Y48286D01*
X51779Y48357D01*
X51897Y48453D01*
X51993Y48571D01*
X52064Y48704D01*
X52108Y48849D01*
X52123Y49000D01*
X52108Y49151D01*
X52064Y49296D01*
X51993Y49429D01*
X51897Y49547D01*
X51779Y49643D01*
X51646Y49714D01*
X51501Y49758D01*
X51350Y49773D01*
D02*
G37*
G36*
X68923Y47242D02*
X68844Y47231D01*
X68724Y47182D01*
X68621Y47103D01*
X68542Y46999D01*
X68513Y46929D01*
X67368D01*
Y47146D01*
X67023D01*
Y46750D01*
X66973D01*
Y46700D01*
X66578D01*
Y46444D01*
X65385D01*
X65250Y46431D01*
X65120Y46391D01*
X65000Y46327D01*
X64895Y46241D01*
X64894Y46241D01*
X64808Y46135D01*
X64745Y46018D01*
X64696Y46014D01*
X64675Y46040D01*
X64589Y46107D01*
X64488Y46149D01*
X64430Y46156D01*
Y45744D01*
X64380D01*
Y45694D01*
X63968D01*
X63975Y45636D01*
X64017Y45535D01*
X64084Y45449D01*
X64170Y45382D01*
X64201Y45369D01*
Y45113D01*
X64215Y45044D01*
X64253Y44986D01*
X64616Y44624D01*
X64673Y44586D01*
X64742Y44572D01*
X64742Y44572D01*
X66578D01*
Y44355D01*
X66923D01*
Y44750D01*
X67023D01*
Y44355D01*
X67368D01*
Y44572D01*
X68513D01*
X68542Y44501D01*
X68621Y44398D01*
X68724Y44319D01*
X68844Y44269D01*
X68923Y44259D01*
Y44750D01*
X68973D01*
Y44800D01*
X69465D01*
X69454Y44879D01*
X69404Y44999D01*
X69325Y45103D01*
X69222Y45182D01*
X69152Y45211D01*
Y46290D01*
X69222Y46319D01*
X69325Y46398D01*
X69404Y46501D01*
X69454Y46622D01*
X69465Y46700D01*
X68973D01*
Y46750D01*
X68923D01*
Y47242D01*
D02*
G37*
G36*
X54207Y48998D02*
X54032Y48980D01*
X53863Y48929D01*
X53708Y48846D01*
X53572Y48735D01*
X53460Y48599D01*
X53377Y48444D01*
X53326Y48275D01*
X53309Y48100D01*
X53326Y47925D01*
X53377Y47756D01*
X53460Y47601D01*
X53572Y47465D01*
X53708Y47354D01*
X53863Y47271D01*
X54032Y47220D01*
X54207Y47202D01*
X54382Y47220D01*
X54550Y47271D01*
X54705Y47354D01*
X54841Y47465D01*
X54953Y47601D01*
X55036Y47756D01*
X55087Y47925D01*
X55104Y48100D01*
X55087Y48275D01*
X55036Y48444D01*
X54953Y48599D01*
X54841Y48735D01*
X54705Y48846D01*
X54550Y48929D01*
X54382Y48980D01*
X54207Y48998D01*
D02*
G37*
G36*
X54886Y45694D02*
X54524D01*
Y45333D01*
X54582Y45340D01*
X54683Y45382D01*
X54770Y45449D01*
X54836Y45535D01*
X54878Y45636D01*
X54886Y45694D01*
D02*
G37*
G36*
X66900Y43308D02*
X66781Y43293D01*
X66671Y43247D01*
X66576Y43174D01*
X66503Y43079D01*
X66457Y42969D01*
X66442Y42850D01*
X66457Y42731D01*
X66503Y42621D01*
X66576Y42526D01*
X66671Y42453D01*
X66781Y42407D01*
X66900Y42392D01*
X67019Y42407D01*
X67129Y42453D01*
X67224Y42526D01*
X67297Y42621D01*
X67343Y42731D01*
X67358Y42850D01*
X67343Y42969D01*
X67297Y43079D01*
X67224Y43174D01*
X67129Y43247D01*
X67019Y43293D01*
X66900Y43308D01*
D02*
G37*
G36*
X67900D02*
X67781Y43293D01*
X67671Y43247D01*
X67576Y43174D01*
X67503Y43079D01*
X67457Y42969D01*
X67442Y42850D01*
X67457Y42731D01*
X67503Y42621D01*
X67576Y42526D01*
X67671Y42453D01*
X67781Y42407D01*
X67900Y42392D01*
X68019Y42407D01*
X68129Y42453D01*
X68224Y42526D01*
X68297Y42621D01*
X68343Y42731D01*
X68358Y42850D01*
X68343Y42969D01*
X68297Y43079D01*
X68224Y43174D01*
X68129Y43247D01*
X68019Y43293D01*
X67900Y43308D01*
D02*
G37*
G36*
X64900D02*
X64781Y43293D01*
X64671Y43247D01*
X64576Y43174D01*
X64503Y43079D01*
X64457Y42969D01*
X64442Y42850D01*
X64457Y42731D01*
X64503Y42621D01*
X64576Y42526D01*
X64671Y42453D01*
X64781Y42407D01*
X64900Y42392D01*
X65019Y42407D01*
X65129Y42453D01*
X65224Y42526D01*
X65297Y42621D01*
X65343Y42731D01*
X65358Y42850D01*
X65343Y42969D01*
X65297Y43079D01*
X65224Y43174D01*
X65129Y43247D01*
X65019Y43293D01*
X64900Y43308D01*
D02*
G37*
G36*
X65900D02*
X65781Y43293D01*
X65671Y43247D01*
X65576Y43174D01*
X65503Y43079D01*
X65457Y42969D01*
X65442Y42850D01*
X65457Y42731D01*
X65503Y42621D01*
X65576Y42526D01*
X65671Y42453D01*
X65781Y42407D01*
X65900Y42392D01*
X66019Y42407D01*
X66129Y42453D01*
X66224Y42526D01*
X66297Y42621D01*
X66343Y42731D01*
X66358Y42850D01*
X66343Y42969D01*
X66297Y43079D01*
X66224Y43174D01*
X66129Y43247D01*
X66019Y43293D01*
X65900Y43308D01*
D02*
G37*
G36*
X68900D02*
X68781Y43293D01*
X68671Y43247D01*
X68576Y43174D01*
X68503Y43079D01*
X68457Y42969D01*
X68442Y42850D01*
X68457Y42731D01*
X68503Y42621D01*
X68576Y42526D01*
X68671Y42453D01*
X68781Y42407D01*
X68900Y42392D01*
X69019Y42407D01*
X69129Y42453D01*
X69224Y42526D01*
X69297Y42621D01*
X69343Y42731D01*
X69358Y42850D01*
X69343Y42969D01*
X69297Y43079D01*
X69224Y43174D01*
X69129Y43247D01*
X69019Y43293D01*
X68900Y43308D01*
D02*
G37*
G36*
X69465Y44700D02*
X69023D01*
Y44259D01*
X69102Y44269D01*
X69222Y44319D01*
X69325Y44398D01*
X69404Y44501D01*
X69454Y44622D01*
X69465Y44700D01*
D02*
G37*
G36*
X54424Y45694D02*
X54062D01*
X54070Y45636D01*
X54112Y45535D01*
X54178Y45449D01*
X54265Y45382D01*
X54366Y45340D01*
X54424Y45333D01*
Y45694D01*
D02*
G37*
G36*
X52886D02*
X52062D01*
X52070Y45636D01*
X52112Y45535D01*
X52178Y45449D01*
X52265Y45382D01*
X52296Y45369D01*
Y44689D01*
X52309Y44620D01*
X52348Y44562D01*
X53236Y43674D01*
X53228Y43653D01*
X53221Y43600D01*
X53563D01*
Y43942D01*
X53509Y43935D01*
X53488Y43926D01*
X52652Y44762D01*
Y45369D01*
X52683Y45382D01*
X52770Y45449D01*
X52836Y45535D01*
X52878Y45636D01*
X52886Y45694D01*
D02*
G37*
G36*
X69900Y43308D02*
X69781Y43293D01*
X69671Y43247D01*
X69576Y43174D01*
X69503Y43079D01*
X69457Y42969D01*
X69442Y42850D01*
X69457Y42731D01*
X69503Y42621D01*
X69576Y42526D01*
X69671Y42453D01*
X69781Y42407D01*
X69900Y42392D01*
X70019Y42407D01*
X70129Y42453D01*
X70224Y42526D01*
X70297Y42621D01*
X70343Y42731D01*
X70358Y42850D01*
X70343Y42969D01*
X70297Y43079D01*
X70224Y43174D01*
X70129Y43247D01*
X70019Y43293D01*
X69900Y43308D01*
D02*
G37*
%LPD*%
G36*
X68478Y36969D02*
X68457Y36919D01*
X68442Y36800D01*
X68457Y36681D01*
X68478Y36631D01*
X67274Y35426D01*
X67269Y35430D01*
X67163Y35473D01*
X67050Y35488D01*
X66937Y35473D01*
X66866Y35444D01*
X66838Y35486D01*
X67731Y36378D01*
X67781Y36357D01*
X67900Y36342D01*
X68019Y36357D01*
X68129Y36403D01*
X68224Y36476D01*
X68297Y36571D01*
X68343Y36681D01*
X68358Y36800D01*
X68343Y36919D01*
X68297Y37029D01*
X68224Y37124D01*
X68129Y37197D01*
X68019Y37243D01*
X67900Y37258D01*
X67781Y37243D01*
X67671Y37197D01*
X67576Y37124D01*
X67503Y37029D01*
X67457Y36919D01*
X67442Y36800D01*
X67457Y36681D01*
X67478Y36631D01*
X66274Y35426D01*
X66269Y35430D01*
X66163Y35473D01*
X66050Y35488D01*
X65937Y35473D01*
X65896Y35457D01*
X65526Y35826D01*
X65468Y35865D01*
X65400Y35878D01*
X64500D01*
X64432Y35865D01*
X64374Y35826D01*
X63874Y35326D01*
X63853Y35335D01*
X63750Y35349D01*
X63647Y35335D01*
X63551Y35295D01*
X63468Y35232D01*
X63405Y35149D01*
X63381Y35093D01*
X63331D01*
X63308Y35149D01*
X63245Y35232D01*
X63162Y35295D01*
X63141Y35304D01*
Y35437D01*
X63141Y35437D01*
X63127Y35506D01*
X63108Y35535D01*
X63089Y35564D01*
X63089Y35564D01*
X62502Y36150D01*
X62731Y36378D01*
X62781Y36357D01*
X62850Y36348D01*
Y36750D01*
X62448D01*
X62457Y36681D01*
X62478Y36631D01*
X62176Y36328D01*
X62077D01*
X62067Y36377D01*
X62129Y36403D01*
X62224Y36476D01*
X62297Y36571D01*
X62343Y36681D01*
X62358Y36800D01*
X62343Y36919D01*
X62297Y37029D01*
X62224Y37124D01*
X62129Y37197D01*
X62019Y37243D01*
X61900Y37258D01*
X61781Y37243D01*
X61671Y37197D01*
X61576Y37124D01*
X61503Y37029D01*
X61457Y36919D01*
X61442Y36800D01*
X61457Y36681D01*
X61503Y36571D01*
X61576Y36476D01*
X61671Y36403D01*
X61733Y36377D01*
X61723Y36328D01*
X61077D01*
X61067Y36377D01*
X61129Y36403D01*
X61224Y36476D01*
X61297Y36571D01*
X61343Y36681D01*
X61358Y36800D01*
X61343Y36919D01*
X61297Y37029D01*
X61224Y37124D01*
X61129Y37197D01*
X61078Y37218D01*
Y37250D01*
X61065Y37318D01*
X61026Y37376D01*
X60852Y37550D01*
X60974Y37672D01*
X63512D01*
X63517Y37622D01*
X63482Y37615D01*
X63453Y37596D01*
X63424Y37576D01*
X63424Y37576D01*
X63069Y37222D01*
X63019Y37243D01*
X62950Y37252D01*
Y36850D01*
X63352D01*
X63343Y36919D01*
X63322Y36969D01*
X63624Y37272D01*
X63723D01*
X63733Y37223D01*
X63671Y37197D01*
X63576Y37124D01*
X63503Y37029D01*
X63457Y36919D01*
X63442Y36800D01*
X63457Y36681D01*
X63503Y36571D01*
X63576Y36476D01*
X63671Y36403D01*
X63781Y36357D01*
X63900Y36342D01*
X64019Y36357D01*
X64129Y36403D01*
X64224Y36476D01*
X64297Y36571D01*
X64343Y36681D01*
X64358Y36800D01*
X64343Y36919D01*
X64297Y37029D01*
X64224Y37124D01*
X64129Y37197D01*
X64067Y37223D01*
X64077Y37272D01*
X64176D01*
X64478Y36969D01*
X64457Y36919D01*
X64448Y36850D01*
X64850D01*
Y37252D01*
X64781Y37243D01*
X64731Y37222D01*
X64376Y37576D01*
X64318Y37615D01*
X64250Y37628D01*
Y37636D01*
X64285Y37672D01*
X67776D01*
X68478Y36969D01*
D02*
G37*
%LPC*%
G36*
X65352Y36750D02*
X64950D01*
Y36348D01*
X65019Y36357D01*
X65129Y36403D01*
X65224Y36476D01*
X65297Y36571D01*
X65343Y36681D01*
X65352Y36750D01*
D02*
G37*
G36*
X62850Y37252D02*
X62781Y37243D01*
X62671Y37197D01*
X62576Y37124D01*
X62503Y37029D01*
X62457Y36919D01*
X62448Y36850D01*
X62850D01*
Y37252D01*
D02*
G37*
G36*
X64950D02*
Y36850D01*
X65352D01*
X65343Y36919D01*
X65297Y37029D01*
X65224Y37124D01*
X65129Y37197D01*
X65019Y37243D01*
X64950Y37252D01*
D02*
G37*
G36*
X64850Y36750D02*
X64448D01*
X64457Y36681D01*
X64503Y36571D01*
X64576Y36476D01*
X64671Y36403D01*
X64781Y36357D01*
X64850Y36348D01*
Y36750D01*
D02*
G37*
G36*
X65900Y37258D02*
X65781Y37243D01*
X65671Y37197D01*
X65576Y37124D01*
X65503Y37029D01*
X65457Y36919D01*
X65442Y36800D01*
X65457Y36681D01*
X65503Y36571D01*
X65576Y36476D01*
X65671Y36403D01*
X65781Y36357D01*
X65900Y36342D01*
X66019Y36357D01*
X66129Y36403D01*
X66224Y36476D01*
X66297Y36571D01*
X66343Y36681D01*
X66358Y36800D01*
X66343Y36919D01*
X66297Y37029D01*
X66224Y37124D01*
X66129Y37197D01*
X66019Y37243D01*
X65900Y37258D01*
D02*
G37*
G36*
X66903D02*
X66784Y37243D01*
X66674Y37197D01*
X66579Y37124D01*
X66506Y37029D01*
X66460Y36919D01*
X66445Y36800D01*
X66460Y36681D01*
X66506Y36571D01*
X66579Y36476D01*
X66674Y36403D01*
X66784Y36357D01*
X66903Y36342D01*
X67021Y36357D01*
X67132Y36403D01*
X67227Y36476D01*
X67300Y36571D01*
X67345Y36681D01*
X67361Y36800D01*
X67345Y36919D01*
X67300Y37029D01*
X67227Y37124D01*
X67132Y37197D01*
X67021Y37243D01*
X66903Y37258D01*
D02*
G37*
G36*
X63352Y36750D02*
X62950D01*
Y36348D01*
X63019Y36357D01*
X63129Y36403D01*
X63224Y36476D01*
X63297Y36571D01*
X63343Y36681D01*
X63352Y36750D01*
D02*
G37*
%LPD*%
D10*
X53655Y47601D02*
X53727Y47532D01*
X53807Y47473D01*
X53894Y47426D01*
X53986Y47390D01*
X54083Y47367D01*
X54182Y47357D01*
X54281Y47360D01*
X54379Y47377D01*
X54474Y47406D01*
X54564Y47448D01*
X54648Y47502D01*
X54723Y47566D01*
X54790Y47639D01*
X54846Y47721D01*
X54891Y47810D01*
X54924Y47904D01*
X54943Y48001D01*
X54950Y48100D01*
X54943Y48199D01*
X54924Y48296D01*
X54891Y48390D01*
X54846Y48479D01*
X54790Y48561D01*
X54723Y48634D01*
X54648Y48698D01*
X54564Y48752D01*
X54474Y48794D01*
X54379Y48823D01*
X54281Y48840D01*
X54182Y48843D01*
X54083Y48833D01*
X53986Y48810D01*
X53894Y48774D01*
X53807Y48727D01*
X53727Y48668D01*
X53655Y48599D01*
X53594Y48521D01*
X53543Y48435D01*
X53505Y48344D01*
X53478Y48248D01*
X53465Y48150D01*
Y48050D01*
X53478Y47952D01*
X53505Y47856D01*
X53543Y47765D01*
X53594Y47679D01*
X53655Y47601D01*
X53672Y47915D02*
X53734Y47835D01*
X53816Y47776D01*
X53911Y47741D01*
X54011Y47733D01*
X54110Y47753D01*
X54200Y47800D01*
X54350Y47700D02*
Y48400D01*
X54446Y48426D01*
X54544Y48413D01*
X54629Y48362D01*
X54688Y48283D01*
X54712Y48186D01*
X54696Y48088D01*
X54643Y48004D01*
X54562Y47947D01*
X54465Y47926D01*
X54368Y47945D01*
X54221Y48376D02*
X54136Y48429D01*
X54038Y48457D01*
X53937Y48457D01*
X53840Y48429D01*
X53755Y48375D01*
X53687Y48300D01*
X53642Y48209D01*
X53625Y48110D01*
X53635Y48009D01*
X53672Y47915D01*
X53800Y49300D02*
Y49700D01*
X53950D01*
X54050D02*
Y49300D01*
X54200D01*
X54300D02*
X54500D01*
X54400D02*
Y49700D01*
X54300D02*
X54500D01*
X54650Y49650D02*
X54700Y49700D01*
X54900D01*
X54650Y49650D02*
Y49350D01*
X54700Y49300D01*
X54900D01*
X53950D02*
X53800D01*
Y49500D02*
X53900D01*
X55050D02*
X55300D01*
Y49650D02*
X55250Y49700D01*
X55050D01*
Y49300D01*
X55300D02*
Y49650D01*
X55450Y49700D02*
X55600Y49550D01*
X55750Y49700D01*
Y49300D01*
X55900D02*
Y49700D01*
X56100D01*
Y49300D01*
X55900D01*
X56250D02*
X56450D01*
X56500Y49350D01*
Y49450D01*
X56450Y49500D01*
X56300D01*
X56250Y49550D01*
Y49650D01*
X56300Y49700D01*
X56500D01*
X56650D02*
Y49350D01*
X56700Y49300D01*
X56800D01*
X56850Y49350D01*
Y49700D01*
X57000D02*
X57200Y49300D01*
Y49700D01*
X57000D02*
Y49300D01*
X55450D02*
Y49700D01*
X53650D02*
Y49300D01*
X53450D02*
Y49700D01*
Y49500D02*
X53600D01*
D11*
X50700Y14250D02*
Y17900D01*
X59950Y27150D01*
Y30850D01*
X63500Y34400D02*
X64400D01*
X65050Y35050D01*
Y35000D01*
X65650Y34400D01*
X67813D01*
X68463Y35050D01*
X69250D02*
Y36450D01*
X67850Y37850D01*
X60900D01*
X60600Y37550D01*
X60900Y37250D01*
Y36800D01*
X60550Y36150D02*
X62250D01*
X63550Y37450D01*
X64250D01*
X64900Y36800D01*
X64500Y35700D02*
X65400D01*
X66050Y35050D01*
X66150D01*
X67900Y36800D01*
X67150Y35050D02*
X68900Y36800D01*
X69900D01*
X67150Y35050D02*
X67050D01*
X64500Y35700D02*
X63750Y34950D01*
X62963D02*
Y35437D01*
X62250Y36150D01*
X62963Y34937D02*
X63500Y34400D01*
X62963Y36737D02*
X62900Y36800D01*
X60600Y37550D02*
X55050D01*
X54400Y38200D01*
Y43550D01*
X53474Y44476D01*
Y45744D01*
X52474D02*
X52392Y45663D01*
X53613Y43550D02*
Y38200D01*
X55663Y36150D01*
X59250D01*
X59900Y36800D01*
Y36650D01*
X59975Y36725D02*
X60550Y36150D01*
X55087Y36813D02*
X55000D01*
X58900Y42850D02*
X58369D01*
X55474Y45744D01*
Y45650D01*
X56474D02*
Y45744D01*
X56759D01*
X59654Y42850D01*
X59900D01*
X63830Y46294D02*
X64380Y45744D01*
Y45113D01*
X64742Y44750D01*
X68973D01*
Y46750D01*
X66973D01*
X63830Y46294D02*
X55080D01*
X54530Y45744D01*
X54474D01*
X53924Y46294D01*
X52980D01*
X52474Y45789D01*
Y44689D01*
X53613Y43550D01*
X60600Y25450D02*
X62300D01*
X62950Y24800D01*
X63600Y25450D01*
X64300D01*
X64950Y24800D01*
X67300Y24150D02*
X67950Y24800D01*
X68950D01*
X69950D01*
X67300Y24150D02*
X61600D01*
X60950Y24800D01*
Y24750D01*
X52300Y16100D01*
X51800D01*
Y15100D02*
X52400Y14500D01*
Y13800D01*
X52050Y13450D01*
X51500D01*
X50700Y14250D01*
X51150Y14750D02*
Y16450D01*
X51800Y17100D01*
X52250D01*
X60600Y25450D01*
X51150Y14750D02*
X51800Y14100D01*
D12*
X65385Y45750D02*
X65385Y45750D01*
X67973D01*
D13*
X51800Y14100D02*
D03*
Y15100D02*
D03*
Y16100D02*
D03*
Y17100D02*
D03*
D14*
X65050Y35050D02*
D03*
X66050D02*
D03*
X67050D02*
D03*
D15*
X53613Y43550D02*
D03*
X54400D02*
D03*
X55000Y37600D02*
D03*
Y36813D02*
D03*
X62963Y34950D02*
D03*
X63750D02*
D03*
X68463Y35050D02*
D03*
X69250D02*
D03*
D16*
X51350Y7300D02*
D03*
X69050D02*
D03*
Y49000D02*
D03*
X51350D02*
D03*
D17*
X66973Y44750D02*
D03*
X66973Y46750D02*
D03*
D18*
X68973Y44750D02*
D03*
Y46750D02*
D03*
D19*
X58950Y30850D02*
D03*
X59950D02*
D03*
X60950D02*
D03*
X61950D02*
D03*
X62950D02*
D03*
X63950D02*
D03*
X64950D02*
D03*
X65950D02*
D03*
X66950D02*
D03*
X67950D02*
D03*
X68950D02*
D03*
X69950D02*
D03*
X69900Y36800D02*
D03*
X68900D02*
D03*
X67900D02*
D03*
X66903D02*
D03*
X65900D02*
D03*
X64900D02*
D03*
X63900D02*
D03*
X69900Y42850D02*
D03*
X68900D02*
D03*
X67900D02*
D03*
X66900D02*
D03*
X65900D02*
D03*
X64900D02*
D03*
X63900D02*
D03*
X62900D02*
D03*
X61900D02*
D03*
X60900D02*
D03*
X59900D02*
D03*
X58900D02*
D03*
X63950Y24800D02*
D03*
X64950D02*
D03*
X65950D02*
D03*
X66953D02*
D03*
X67950D02*
D03*
X68950D02*
D03*
X69950D02*
D03*
D20*
X58950Y24800D02*
D03*
X59950D02*
D03*
X60950D02*
D03*
X61950D02*
D03*
X62950D02*
D03*
X62900Y36800D02*
D03*
X61900D02*
D03*
X60900D02*
D03*
X59900D02*
D03*
X58900D02*
D03*
D21*
X52474Y45744D02*
D03*
X53474D02*
D03*
X54474D02*
D03*
X55474D02*
D03*
X56474D02*
D03*
X57474D02*
D03*
X58474D02*
D03*
X64380D02*
D03*
X65380D02*
D03*
D22*
X67973Y45750D02*
D03*
D23*
X52080Y9793D02*
D03*
Y21407D02*
D03*
X68812Y9793D02*
D03*
Y21407D02*
D03*
M02*
