%FSLAX24Y24*%
%MOIN*%
G70*
G01*
G75*
G04 Layer_Physical_Order=1*
G04 Layer_Color=255*
%ADD10C,0.0100*%
%ADD11R,0.0472X0.0748*%
%ADD12R,0.0197X0.0610*%
%ADD13R,0.0610X0.0197*%
%ADD14R,0.0748X0.0472*%
%ADD15R,0.1575X0.0984*%
%ADD16R,0.0984X0.1575*%
%ADD17R,0.0591X0.0591*%
%ADD18R,0.0433X0.0394*%
%ADD19R,0.0394X0.0433*%
%ADD20R,0.0551X0.0295*%
%ADD21C,0.0150*%
%ADD22C,0.0177*%
%ADD23R,0.4031X0.4122*%
%ADD24C,0.0591*%
%ADD25C,0.0630*%
%ADD26R,0.0669X0.0551*%
%ADD27C,0.0787*%
%ADD28R,0.0768X0.0591*%
%ADD29C,0.0768*%
%ADD30C,0.1457*%
%ADD31C,0.0500*%
G36*
X37547Y9980D02*
X9980D01*
Y48768D01*
X10295D01*
X10309Y48720D01*
X10292Y48708D01*
X10259Y48659D01*
X10247Y48600D01*
Y48200D01*
X10259Y48141D01*
X10292Y48092D01*
X10341Y48059D01*
X10400Y48047D01*
X10459Y48059D01*
X10500Y48086D01*
X10541Y48059D01*
X10600Y48047D01*
X10659Y48059D01*
X10675Y48070D01*
X10691Y48059D01*
X10747Y48048D01*
X10750Y48031D01*
Y47996D01*
X10658Y47946D01*
X10522Y47835D01*
X10410Y47699D01*
X10327Y47544D01*
X10276Y47375D01*
X10259Y47200D01*
X10276Y47025D01*
X10327Y46856D01*
X10410Y46701D01*
X10522Y46565D01*
X10658Y46454D01*
X10813Y46371D01*
X10982Y46320D01*
X11157Y46302D01*
X11332Y46320D01*
X11500Y46371D01*
X11655Y46454D01*
X11791Y46565D01*
X11903Y46701D01*
X11986Y46856D01*
X12037Y47025D01*
X12054Y47200D01*
X12037Y47375D01*
X11986Y47544D01*
X11903Y47699D01*
X11791Y47835D01*
X11655Y47946D01*
X11500Y48029D01*
X11450Y48045D01*
X11450Y48047D01*
X11509Y48059D01*
X11550Y48086D01*
X11575Y48070D01*
X11591Y48059D01*
X11650Y48047D01*
X11850D01*
X11909Y48059D01*
X11925Y48070D01*
X11941Y48059D01*
X12000Y48047D01*
X12059Y48059D01*
X12108Y48092D01*
X12142D01*
X12191Y48059D01*
X12250Y48047D01*
X12309Y48059D01*
X12325Y48070D01*
X12341Y48059D01*
X12400Y48047D01*
X12459Y48059D01*
X12508Y48092D01*
X12525Y48117D01*
X12575D01*
X12592Y48092D01*
X12641Y48059D01*
X12700Y48047D01*
X12759Y48059D01*
X12775Y48070D01*
X12791Y48059D01*
X12850Y48047D01*
X13050D01*
X13109Y48059D01*
X13125Y48070D01*
X13141Y48059D01*
X13200Y48047D01*
X13400D01*
X13459Y48059D01*
X13508Y48092D01*
X13525Y48109D01*
X13542Y48092D01*
X13591Y48059D01*
X13650Y48047D01*
X13750D01*
X13809Y48059D01*
X13850Y48086D01*
X13891Y48059D01*
X13950Y48047D01*
X14009Y48059D01*
X14049Y48086D01*
X14050Y48084D01*
X14071Y48072D01*
X14091Y48059D01*
X14097Y48058D01*
X14102Y48055D01*
X14126Y48052D01*
X14150Y48047D01*
X14155Y48048D01*
X14161Y48047D01*
X14184Y48054D01*
X14209Y48059D01*
X14213Y48062D01*
X14218Y48063D01*
X14238Y48078D01*
X14258Y48092D01*
X14261Y48096D01*
X14266Y48100D01*
X14278Y48121D01*
X14291Y48141D01*
X14292Y48147D01*
X14295Y48152D01*
X14298Y48176D01*
X14303Y48200D01*
Y48600D01*
X14291Y48659D01*
X14258Y48708D01*
X14241Y48720D01*
X14255Y48768D01*
X37547D01*
Y9980D01*
D02*
G37*
%LPC*%
G36*
X20344Y16824D02*
X20241Y16810D01*
X20145Y16770D01*
X20062Y16707D01*
X19999Y16625D01*
X19959Y16528D01*
X19945Y16425D01*
X19959Y16322D01*
X19999Y16226D01*
X20062Y16143D01*
X20145Y16080D01*
X20241Y16040D01*
X20344Y16027D01*
X20447Y16040D01*
X20543Y16080D01*
X20626Y16143D01*
X20689Y16226D01*
X20729Y16322D01*
X20743Y16425D01*
X20729Y16528D01*
X20689Y16625D01*
X20626Y16707D01*
X20543Y16770D01*
X20447Y16810D01*
X20344Y16824D01*
D02*
G37*
G36*
X14617Y10992D02*
Y10650D01*
X14959D01*
X14952Y10703D01*
X14912Y10799D01*
X14849Y10882D01*
X14766Y10945D01*
X14670Y10985D01*
X14617Y10992D01*
D02*
G37*
G36*
X16616Y16395D02*
X15825D01*
Y15605D01*
X16616D01*
Y16395D01*
D02*
G37*
G36*
X22144Y16824D02*
X22041Y16810D01*
X21945Y16770D01*
X21862Y16707D01*
X21799Y16625D01*
X21759Y16528D01*
X21745Y16425D01*
X21759Y16322D01*
X21799Y16226D01*
X21862Y16143D01*
X21945Y16080D01*
X22041Y16040D01*
X22144Y16027D01*
X22247Y16040D01*
X22343Y16080D01*
X22426Y16143D01*
X22489Y16226D01*
X22529Y16322D01*
X22543Y16425D01*
X22529Y16528D01*
X22489Y16625D01*
X22426Y16707D01*
X22343Y16770D01*
X22247Y16810D01*
X22144Y16824D01*
D02*
G37*
G36*
X32550Y17151D02*
X32264D01*
Y16727D01*
X32550D01*
Y17151D01*
D02*
G37*
G36*
X32164D02*
X31878D01*
Y16727D01*
X32164D01*
Y17151D01*
D02*
G37*
G36*
X22536Y17375D02*
X22194D01*
Y17033D01*
X22247Y17040D01*
X22343Y17080D01*
X22426Y17143D01*
X22489Y17226D01*
X22529Y17322D01*
X22536Y17375D01*
D02*
G37*
G36*
X20394Y14817D02*
Y14475D01*
X20736D01*
X20729Y14528D01*
X20689Y14625D01*
X20626Y14707D01*
X20543Y14770D01*
X20447Y14810D01*
X20394Y14817D01*
D02*
G37*
G36*
X20294D02*
X20241Y14810D01*
X20145Y14770D01*
X20062Y14707D01*
X19999Y14625D01*
X19959Y14528D01*
X19952Y14475D01*
X20294D01*
Y14817D01*
D02*
G37*
G36*
X16270Y14392D02*
Y14050D01*
X16613D01*
X16606Y14103D01*
X16566Y14199D01*
X16502Y14282D01*
X16420Y14345D01*
X16324Y14385D01*
X16270Y14392D01*
D02*
G37*
G36*
X18494Y14817D02*
X18441Y14810D01*
X18345Y14771D01*
X18262Y14707D01*
X18199Y14625D01*
X18159Y14528D01*
X18152Y14475D01*
X18494D01*
Y14817D01*
D02*
G37*
G36*
X13309Y16395D02*
X12518D01*
Y15605D01*
X13309D01*
Y16395D01*
D02*
G37*
G36*
X22144Y15824D02*
X22041Y15810D01*
X21945Y15770D01*
X21862Y15707D01*
X21799Y15625D01*
X21759Y15528D01*
X21745Y15425D01*
X21759Y15322D01*
X21799Y15226D01*
X21839Y15173D01*
X21817Y15128D01*
X20893D01*
X20721Y15301D01*
X20729Y15322D01*
X20743Y15425D01*
X20729Y15528D01*
X20689Y15625D01*
X20626Y15707D01*
X20543Y15770D01*
X20447Y15810D01*
X20344Y15824D01*
X20241Y15810D01*
X20145Y15770D01*
X20062Y15707D01*
X19999Y15625D01*
X19959Y15528D01*
X19945Y15425D01*
X19959Y15322D01*
X19999Y15226D01*
X20062Y15143D01*
X20145Y15080D01*
X20241Y15040D01*
X20344Y15027D01*
X20447Y15040D01*
X20468Y15049D01*
X20693Y14824D01*
X20693Y14824D01*
X20751Y14785D01*
X20819Y14772D01*
X21868D01*
X21885Y14724D01*
X21862Y14707D01*
X21799Y14625D01*
X21759Y14528D01*
X21745Y14425D01*
X21759Y14322D01*
X21799Y14226D01*
X21862Y14143D01*
X21945Y14080D01*
X22041Y14040D01*
X22144Y14027D01*
X22247Y14040D01*
X22343Y14080D01*
X22397Y14121D01*
X22442Y14099D01*
Y13752D01*
X22397Y13730D01*
X22343Y13770D01*
X22247Y13810D01*
X22144Y13824D01*
X22041Y13810D01*
X21945Y13770D01*
X21862Y13707D01*
X21799Y13625D01*
X21790Y13604D01*
X20698D01*
X20689Y13625D01*
X20626Y13707D01*
X20543Y13770D01*
X20447Y13810D01*
X20344Y13824D01*
X20241Y13810D01*
X20145Y13770D01*
X20062Y13707D01*
X19999Y13625D01*
X19959Y13528D01*
X19945Y13425D01*
X19959Y13322D01*
X19999Y13226D01*
X20062Y13143D01*
X20145Y13080D01*
X20241Y13040D01*
X20344Y13027D01*
X20447Y13040D01*
X20543Y13080D01*
X20626Y13143D01*
X20689Y13226D01*
X20698Y13247D01*
X21790D01*
X21799Y13226D01*
X21862Y13143D01*
X21945Y13080D01*
X22041Y13040D01*
X22144Y13027D01*
X22247Y13040D01*
X22343Y13080D01*
X22397Y13121D01*
X22442Y13099D01*
Y12975D01*
X22268Y12802D01*
X22247Y12810D01*
X22144Y12824D01*
X22041Y12810D01*
X21945Y12770D01*
X21862Y12707D01*
X21799Y12625D01*
X21759Y12528D01*
X21745Y12425D01*
X21759Y12322D01*
X21799Y12226D01*
X21862Y12143D01*
X21945Y12080D01*
X22041Y12040D01*
X22144Y12027D01*
X22247Y12040D01*
X22343Y12080D01*
X22426Y12143D01*
X22489Y12226D01*
X22529Y12322D01*
X22543Y12425D01*
X22529Y12528D01*
X22521Y12549D01*
X22746Y12775D01*
X22785Y12833D01*
X22798Y12901D01*
X22798Y12901D01*
Y14730D01*
X22798Y14730D01*
X22785Y14798D01*
X22746Y14856D01*
X22526Y15076D01*
X22468Y15115D01*
X22431Y15122D01*
X22426Y15143D01*
X22489Y15226D01*
X22529Y15322D01*
X22543Y15425D01*
X22529Y15528D01*
X22489Y15625D01*
X22426Y15707D01*
X22343Y15770D01*
X22247Y15810D01*
X22144Y15824D01*
D02*
G37*
G36*
X18594Y14817D02*
Y14475D01*
X18936D01*
X18929Y14528D01*
X18889Y14625D01*
X18826Y14707D01*
X18743Y14771D01*
X18647Y14810D01*
X18594Y14817D01*
D02*
G37*
G36*
X10797Y18178D02*
X10452D01*
Y17832D01*
X10797D01*
Y18178D01*
D02*
G37*
G36*
X11310Y10992D02*
Y10650D01*
X11652D01*
X11645Y10703D01*
X11605Y10799D01*
X11542Y10882D01*
X11459Y10945D01*
X11363Y10985D01*
X11310Y10992D01*
D02*
G37*
G36*
X14517Y10992D02*
X14464Y10985D01*
X14368Y10945D01*
X14285Y10882D01*
X14222Y10799D01*
X14182Y10703D01*
X14175Y10650D01*
X14517D01*
Y10992D01*
D02*
G37*
G36*
X13317Y23452D02*
X12893D01*
Y23166D01*
X13317D01*
Y23452D01*
D02*
G37*
G36*
X11210Y10992D02*
X11157Y10985D01*
X11061Y10945D01*
X10978Y10882D01*
X10915Y10799D01*
X10875Y10703D01*
X10868Y10650D01*
X11210D01*
Y10992D01*
D02*
G37*
G36*
X12513Y26678D02*
Y26641D01*
X12089D01*
Y26355D01*
X12332D01*
X12357Y26330D01*
Y26159D01*
X12781D01*
Y26445D01*
X12747D01*
X12513Y26678D01*
D02*
G37*
G36*
X14959Y10550D02*
X14617D01*
Y10208D01*
X14670Y10215D01*
X14766Y10255D01*
X14849Y10318D01*
X14912Y10401D01*
X14952Y10497D01*
X14959Y10550D01*
D02*
G37*
G36*
X12781Y26059D02*
X12357D01*
Y25772D01*
X12781D01*
Y26059D01*
D02*
G37*
G36*
X11243Y20517D02*
X10452D01*
Y20172D01*
X10655D01*
Y19762D01*
X10452D01*
Y19417D01*
X11243D01*
Y19762D01*
X11040D01*
Y20172D01*
X11243D01*
Y20517D01*
D02*
G37*
G36*
Y19317D02*
X10452D01*
Y18972D01*
X10655D01*
Y18623D01*
X10452D01*
Y18278D01*
X11243D01*
Y18623D01*
X11040D01*
Y18972D01*
X11243D01*
Y19317D01*
D02*
G37*
G36*
X12620Y18623D02*
X11830D01*
Y17832D01*
X12620D01*
Y18049D01*
X13085D01*
Y17931D01*
X13718D01*
D01*
Y17931D01*
X13718D01*
X13718Y17931D01*
X13754D01*
Y17931D01*
X14387D01*
Y18049D01*
X20725D01*
X20780Y17978D01*
X20853Y17922D01*
X20938Y17887D01*
X21029Y17875D01*
X21121Y17887D01*
X21206Y17922D01*
X21279Y17978D01*
X21335Y18051D01*
X21370Y18136D01*
X21382Y18228D01*
X21370Y18319D01*
X21335Y18404D01*
X21279Y18477D01*
X21206Y18533D01*
X21121Y18569D01*
X21029Y18581D01*
X20938Y18569D01*
X20853Y18533D01*
X20780Y18477D01*
X20725Y18406D01*
X14387D01*
Y18524D01*
X13754D01*
D01*
D01*
X13754Y18524D01*
X13718D01*
Y18524D01*
X13085D01*
Y18406D01*
X12620D01*
Y18623D01*
D02*
G37*
G36*
X10797Y20962D02*
X10452D01*
Y20617D01*
X10797D01*
Y20962D01*
D02*
G37*
G36*
X12793Y23452D02*
X12369D01*
Y23166D01*
X12793D01*
Y23452D01*
D02*
G37*
G36*
X27452Y23028D02*
X26642D01*
Y22631D01*
Y22398D01*
Y22379D01*
X26395D01*
X26340Y22450D01*
X26267Y22506D01*
X26182Y22541D01*
X26090Y22553D01*
X25999Y22541D01*
X25914Y22506D01*
X25841Y22450D01*
X25785Y22377D01*
X25760Y22317D01*
X25364D01*
Y21981D01*
Y21645D01*
X25378D01*
X25526Y21498D01*
X25537Y21439D01*
X25537Y21432D01*
X25476Y21391D01*
X25378Y21294D01*
X24840D01*
Y21069D01*
X24655Y20884D01*
X24614Y20822D01*
X24599Y20748D01*
Y15691D01*
X24614Y15618D01*
X24655Y15555D01*
X24829Y15382D01*
X24829Y15382D01*
X26507Y13704D01*
Y13185D01*
X26710D01*
Y12776D01*
X26507D01*
Y12257D01*
X26382Y12132D01*
X26340Y12070D01*
X26338Y12057D01*
X26326Y11996D01*
Y11627D01*
X26182D01*
Y11080D01*
X25834Y10732D01*
X24245D01*
X24232Y10780D01*
X24329Y10832D01*
X24455Y10935D01*
X24558Y11061D01*
X24635Y11205D01*
X24683Y11361D01*
X24699Y11524D01*
X24683Y11686D01*
X24635Y11842D01*
X24558Y11986D01*
X24455Y12112D01*
X24329Y12216D01*
X24185Y12293D01*
X24029Y12340D01*
X23866Y12356D01*
X23704Y12340D01*
X23548Y12293D01*
X23404Y12216D01*
X23278Y12112D01*
X23174Y11986D01*
X23097Y11842D01*
X23050Y11686D01*
X23034Y11524D01*
X23050Y11361D01*
X23097Y11205D01*
X23174Y11061D01*
X23278Y10935D01*
X23404Y10832D01*
X23500Y10780D01*
X23488Y10732D01*
X21310D01*
X20739Y11302D01*
Y11820D01*
X19949D01*
Y11617D01*
X19624D01*
X18926Y12315D01*
X18929Y12322D01*
X18943Y12425D01*
X18929Y12528D01*
X18889Y12625D01*
X18826Y12707D01*
X18743Y12770D01*
X18647Y12810D01*
X18544Y12824D01*
X18441Y12810D01*
X18420Y12802D01*
X17517Y13705D01*
Y14512D01*
X17517Y14512D01*
X17503Y14580D01*
X17465Y14638D01*
X16977Y15126D01*
X16919Y15165D01*
X16850Y15178D01*
X16574D01*
X16566Y15199D01*
X16502Y15282D01*
X16420Y15345D01*
X16324Y15385D01*
X16220Y15399D01*
X16117Y15385D01*
X16021Y15345D01*
X15939Y15282D01*
X15875Y15199D01*
X15867Y15178D01*
X13267D01*
X13259Y15199D01*
X13195Y15282D01*
X13113Y15345D01*
X13017Y15385D01*
X12913Y15399D01*
X12810Y15385D01*
X12714Y15345D01*
X12631Y15282D01*
X12568Y15199D01*
X12528Y15103D01*
X12515Y15000D01*
X12528Y14897D01*
X12568Y14801D01*
X12631Y14718D01*
X12714Y14655D01*
X12810Y14615D01*
X12913Y14601D01*
X13017Y14615D01*
X13113Y14655D01*
X13195Y14718D01*
X13259Y14801D01*
X13267Y14822D01*
X15867D01*
X15875Y14801D01*
X15939Y14718D01*
X16021Y14655D01*
X16117Y14615D01*
X16220Y14601D01*
X16324Y14615D01*
X16420Y14655D01*
X16502Y14718D01*
X16566Y14801D01*
X16574Y14822D01*
X16776D01*
X17160Y14438D01*
Y13631D01*
X17174Y13562D01*
X17212Y13505D01*
X18168Y12549D01*
X18159Y12528D01*
X18145Y12425D01*
X18159Y12322D01*
X18168Y12301D01*
X17645Y11778D01*
X14921D01*
X14912Y11799D01*
X14849Y11882D01*
X14766Y11945D01*
X14670Y11985D01*
X14567Y11999D01*
X14464Y11985D01*
X14368Y11945D01*
X14285Y11882D01*
X14222Y11799D01*
X14213Y11778D01*
X11614D01*
X11605Y11799D01*
X11542Y11882D01*
X11459Y11945D01*
X11363Y11985D01*
X11260Y11999D01*
X11157Y11985D01*
X11061Y11945D01*
X10978Y11882D01*
X10915Y11799D01*
X10875Y11703D01*
X10861Y11600D01*
X10875Y11497D01*
X10915Y11401D01*
X10978Y11318D01*
X11061Y11255D01*
X11157Y11215D01*
X11260Y11201D01*
X11363Y11215D01*
X11459Y11255D01*
X11542Y11318D01*
X11605Y11401D01*
X11614Y11422D01*
X14213D01*
X14222Y11401D01*
X14285Y11318D01*
X14368Y11255D01*
X14464Y11215D01*
X14567Y11201D01*
X14670Y11215D01*
X14766Y11255D01*
X14849Y11318D01*
X14912Y11401D01*
X14921Y11422D01*
X17719D01*
X17787Y11435D01*
X17845Y11474D01*
X18103Y11731D01*
X18149Y11712D01*
Y11475D01*
X18939D01*
Y11693D01*
X18986Y11712D01*
X19408Y11289D01*
X19471Y11248D01*
X19471Y11248D01*
D01*
X19544Y11233D01*
X19949D01*
Y11030D01*
X20467D01*
X21094Y10403D01*
X21156Y10362D01*
X21230Y10347D01*
X25913D01*
X25975Y10359D01*
X25987Y10362D01*
X26049Y10403D01*
X26325Y10679D01*
X26854D01*
Y11627D01*
X26710D01*
Y11916D01*
X26779Y11985D01*
X27298D01*
Y12776D01*
X27095D01*
Y13185D01*
X27298D01*
Y13704D01*
X28003Y14409D01*
X29209D01*
Y14265D01*
X30137D01*
X30137Y14054D01*
X29776Y13694D01*
X29283D01*
X29248Y13780D01*
X29184Y13862D01*
X29102Y13926D01*
X29006Y13965D01*
X28952Y13972D01*
Y13580D01*
X28902D01*
Y13530D01*
X28510D01*
X28517Y13477D01*
X28557Y13381D01*
X28620Y13298D01*
X28703Y13235D01*
X28710Y13232D01*
Y12729D01*
X28703Y12726D01*
X28620Y12662D01*
X28557Y12580D01*
X28517Y12483D01*
X28510Y12430D01*
X29294D01*
X29287Y12483D01*
X29248Y12580D01*
X29184Y12662D01*
X29102Y12726D01*
X29095Y12729D01*
Y13232D01*
X29102Y13235D01*
X29184Y13298D01*
X29214Y13337D01*
X29850D01*
X29919Y13351D01*
X29977Y13390D01*
X30290Y13703D01*
X30340Y13703D01*
X30451Y13592D01*
X30451Y13592D01*
X30451Y13592D01*
X30485Y13569D01*
X30509Y13553D01*
X30509Y13553D01*
X30509Y13553D01*
X30536Y13548D01*
X30577Y13540D01*
X30577Y13540D01*
X30577D01*
X31687D01*
X31755Y13553D01*
X31813Y13592D01*
X32340Y14119D01*
X32340Y14119D01*
X32379Y14177D01*
X32393Y14246D01*
X32393Y14246D01*
Y16203D01*
X32550D01*
Y16627D01*
X31878D01*
Y16203D01*
X32036D01*
Y14320D01*
X31841Y14125D01*
X31795Y14144D01*
Y15855D01*
X31382D01*
Y16203D01*
X31574D01*
Y17151D01*
X31518D01*
X31416Y17172D01*
X31403Y17240D01*
X31364Y17298D01*
X31249Y17413D01*
X31268Y17459D01*
X32623D01*
X32910Y17172D01*
X32902Y17151D01*
X32902Y17151D01*
Y17151D01*
Y17151D01*
X32902D01*
D01*
Y16203D01*
X33151D01*
Y15855D01*
X32737D01*
Y14080D01*
X33921D01*
Y15855D01*
X33508D01*
Y16203D01*
X33574D01*
Y17151D01*
X33405D01*
X33403Y17165D01*
X33364Y17223D01*
X32823Y17764D01*
X32765Y17803D01*
X32697Y17816D01*
X31212D01*
X30608Y18420D01*
X30627Y18466D01*
X30805D01*
Y18457D01*
X30819Y18388D01*
X30857Y18330D01*
X31074Y18114D01*
X31074Y18114D01*
X31132Y18075D01*
X31200Y18062D01*
X31200Y18062D01*
X33619D01*
X34137Y17544D01*
Y13485D01*
X34150Y13417D01*
X34189Y13359D01*
X35605Y11943D01*
Y11405D01*
X36395D01*
Y12195D01*
X35857D01*
X34493Y13559D01*
Y17618D01*
X34480Y17686D01*
X34441Y17744D01*
X34441Y17744D01*
X33819Y18366D01*
X33761Y18405D01*
X33693Y18418D01*
X31274D01*
X31194Y18498D01*
Y19277D01*
X29786D01*
Y18871D01*
X29686D01*
Y19277D01*
X27648D01*
Y18466D01*
X27163Y17981D01*
X27074Y17993D01*
X26982Y17981D01*
X26897Y17946D01*
X26824Y17890D01*
X26768Y17816D01*
X26733Y17731D01*
X26721Y17640D01*
X26733Y17549D01*
X26768Y17463D01*
X26824Y17390D01*
X26897Y17334D01*
X26982Y17299D01*
X27074Y17287D01*
X27165Y17299D01*
X27250Y17334D01*
X27323Y17390D01*
X27380Y17463D01*
X27415Y17549D01*
X27427Y17640D01*
X27415Y17729D01*
X27900Y18214D01*
X27947Y18195D01*
Y17723D01*
X27719Y17495D01*
X27680Y17437D01*
X27667Y17369D01*
Y16424D01*
X27595Y16369D01*
X27539Y16296D01*
X27504Y16211D01*
X27492Y16120D01*
X27504Y16028D01*
X27539Y15943D01*
X27562Y15913D01*
X27540Y15868D01*
X27274D01*
X26458Y16684D01*
Y19767D01*
X26456Y19779D01*
X26488Y19817D01*
X26642D01*
Y19797D01*
Y19482D01*
X26757D01*
Y19251D01*
X26771Y19183D01*
X26810Y19125D01*
X26868Y19086D01*
X26936Y19072D01*
X27004Y19086D01*
X27062Y19125D01*
X27101Y19183D01*
X27114Y19251D01*
Y19482D01*
X27452D01*
Y19797D01*
Y20112D01*
Y20426D01*
Y20741D01*
Y21056D01*
Y21371D01*
Y21520D01*
X27047D01*
Y21620D01*
X27452D01*
Y21686D01*
Y22001D01*
Y22316D01*
Y22631D01*
Y23028D01*
D02*
G37*
G36*
X13317Y23066D02*
X12369D01*
Y22780D01*
X12650D01*
Y22642D01*
X10971Y20962D01*
X10897D01*
Y20617D01*
X11243D01*
Y20690D01*
X12978Y22426D01*
X13020Y22489D01*
X13030Y22538D01*
X13035Y22562D01*
Y22780D01*
X13317D01*
Y23066D01*
D02*
G37*
G36*
X16170Y14392D02*
X16117Y14385D01*
X16021Y14345D01*
X15939Y14282D01*
X15875Y14199D01*
X15835Y14103D01*
X15828Y14050D01*
X16170D01*
Y14392D01*
D02*
G37*
G36*
X34000Y12199D02*
X33897Y12185D01*
X33801Y12145D01*
X33718Y12082D01*
X33655Y11999D01*
X33615Y11903D01*
X33601Y11800D01*
X33615Y11697D01*
X33655Y11601D01*
X33718Y11518D01*
X33801Y11455D01*
X33897Y11415D01*
X34000Y11401D01*
X34103Y11415D01*
X34199Y11455D01*
X34282Y11518D01*
X34345Y11601D01*
X34385Y11697D01*
X34399Y11800D01*
X34385Y11903D01*
X34345Y11999D01*
X34282Y12082D01*
X34199Y12145D01*
X34103Y12185D01*
X34000Y12199D01*
D02*
G37*
G36*
X33000D02*
X32897Y12185D01*
X32801Y12145D01*
X32718Y12082D01*
X32655Y11999D01*
X32615Y11903D01*
X32601Y11800D01*
X32615Y11697D01*
X32655Y11601D01*
X32718Y11518D01*
X32801Y11455D01*
X32897Y11415D01*
X33000Y11401D01*
X33103Y11415D01*
X33199Y11455D01*
X33282Y11518D01*
X33345Y11601D01*
X33385Y11697D01*
X33399Y11800D01*
X33385Y11903D01*
X33345Y11999D01*
X33282Y12082D01*
X33199Y12145D01*
X33103Y12185D01*
X33000Y12199D01*
D02*
G37*
G36*
X32000D02*
X31897Y12185D01*
X31801Y12145D01*
X31718Y12082D01*
X31655Y11999D01*
X31615Y11903D01*
X31601Y11800D01*
X31615Y11697D01*
X31655Y11601D01*
X31718Y11518D01*
X31801Y11455D01*
X31897Y11415D01*
X32000Y11401D01*
X32103Y11415D01*
X32199Y11455D01*
X32282Y11518D01*
X32345Y11601D01*
X32385Y11697D01*
X32399Y11800D01*
X32385Y11903D01*
X32345Y11999D01*
X32282Y12082D01*
X32199Y12145D01*
X32103Y12185D01*
X32000Y12199D01*
D02*
G37*
G36*
X35000D02*
X34897Y12185D01*
X34801Y12145D01*
X34718Y12082D01*
X34655Y11999D01*
X34615Y11903D01*
X34601Y11800D01*
X34615Y11697D01*
X34655Y11601D01*
X34718Y11518D01*
X34801Y11455D01*
X34897Y11415D01*
X35000Y11401D01*
X35103Y11415D01*
X35199Y11455D01*
X35282Y11518D01*
X35345Y11601D01*
X35385Y11697D01*
X35399Y11800D01*
X35385Y11903D01*
X35345Y11999D01*
X35282Y12082D01*
X35199Y12145D01*
X35103Y12185D01*
X35000Y12199D01*
D02*
G37*
G36*
X11655Y12995D02*
X10865D01*
Y12205D01*
X11655D01*
Y12995D01*
D02*
G37*
G36*
X20344Y12824D02*
X20241Y12810D01*
X20145Y12770D01*
X20062Y12707D01*
X19999Y12625D01*
X19959Y12528D01*
X19945Y12425D01*
X19959Y12322D01*
X19999Y12226D01*
X20062Y12143D01*
X20145Y12080D01*
X20241Y12040D01*
X20344Y12027D01*
X20447Y12040D01*
X20543Y12080D01*
X20626Y12143D01*
X20689Y12226D01*
X20729Y12322D01*
X20743Y12425D01*
X20729Y12528D01*
X20689Y12625D01*
X20626Y12707D01*
X20543Y12770D01*
X20447Y12810D01*
X20344Y12824D01*
D02*
G37*
G36*
X28852Y12330D02*
X28510D01*
X28517Y12277D01*
X28557Y12181D01*
X28620Y12098D01*
X28703Y12035D01*
X28799Y11995D01*
X28852Y11988D01*
Y12330D01*
D02*
G37*
G36*
X18494Y11375D02*
X18149D01*
Y11030D01*
X18494D01*
Y11375D01*
D02*
G37*
G36*
X22539Y11820D02*
X21749D01*
Y11030D01*
X22539D01*
Y11820D01*
D02*
G37*
G36*
X27902Y12779D02*
X27799Y12765D01*
X27703Y12726D01*
X27620Y12662D01*
X27557Y12580D01*
X27517Y12483D01*
X27504Y12380D01*
X27517Y12277D01*
X27557Y12181D01*
X27620Y12098D01*
X27703Y12035D01*
X27799Y11995D01*
X27902Y11982D01*
X28006Y11995D01*
X28013Y11998D01*
X28326Y11685D01*
Y11627D01*
X28182D01*
Y10679D01*
D01*
X28182D01*
Y10679D01*
X28182D01*
X28182D01*
Y10653D01*
X27981D01*
X27878Y10756D01*
Y11103D01*
X27206D01*
Y10679D01*
X27412D01*
X27766Y10325D01*
X27800Y10302D01*
X27828Y10283D01*
X27828Y10283D01*
D01*
X27835Y10282D01*
X27902Y10268D01*
X28850D01*
X28903Y10279D01*
X28923Y10283D01*
X28923Y10283D01*
X28923D01*
X28944Y10297D01*
X28986Y10325D01*
X29340Y10679D01*
X29492D01*
Y11103D01*
X29206D01*
Y11088D01*
X28901Y10783D01*
X28854Y10803D01*
Y11627D01*
X28710D01*
Y11765D01*
X28698Y11826D01*
X28696Y11838D01*
X28654Y11901D01*
X28285Y12270D01*
X28287Y12277D01*
X28301Y12380D01*
X28287Y12483D01*
X28248Y12580D01*
X28184Y12662D01*
X28102Y12726D01*
X28006Y12765D01*
X27902Y12779D01*
D02*
G37*
G36*
X18939Y11375D02*
X18594D01*
Y11030D01*
X18939D01*
Y11375D01*
D02*
G37*
G36*
X29294Y12330D02*
X28952D01*
Y11988D01*
X29006Y11995D01*
X29013Y11998D01*
X29338Y11673D01*
X29319Y11627D01*
X29206D01*
Y11203D01*
X29878D01*
Y11627D01*
X29734D01*
Y11741D01*
X29719Y11815D01*
X29678Y11877D01*
X29285Y12270D01*
X29287Y12277D01*
X29294Y12330D01*
D02*
G37*
G36*
X27878Y11627D02*
X27592D01*
Y11203D01*
X27878D01*
Y11627D01*
D02*
G37*
G36*
X27492D02*
X27206D01*
Y11203D01*
X27492D01*
Y11627D01*
D02*
G37*
G36*
X14962Y12995D02*
X14172D01*
Y12205D01*
X14962D01*
Y12995D01*
D02*
G37*
G36*
X20736Y14375D02*
X20394D01*
Y14033D01*
X20447Y14040D01*
X20543Y14080D01*
X20626Y14143D01*
X20689Y14226D01*
X20729Y14322D01*
X20736Y14375D01*
D02*
G37*
G36*
X20294D02*
X19952D01*
X19959Y14322D01*
X19999Y14226D01*
X20062Y14143D01*
X20145Y14080D01*
X20241Y14040D01*
X20294Y14033D01*
Y14375D01*
D02*
G37*
G36*
X28852Y13972D02*
X28799Y13965D01*
X28703Y13926D01*
X28620Y13862D01*
X28557Y13780D01*
X28517Y13683D01*
X28510Y13630D01*
X28852D01*
Y13972D01*
D02*
G37*
G36*
X18494Y14375D02*
X18152D01*
X18159Y14322D01*
X18199Y14226D01*
X18262Y14143D01*
X18345Y14080D01*
X18441Y14040D01*
X18494Y14033D01*
Y14375D01*
D02*
G37*
G36*
X12963Y14392D02*
Y14050D01*
X13306D01*
X13299Y14103D01*
X13259Y14199D01*
X13195Y14282D01*
X13113Y14345D01*
X13017Y14385D01*
X12963Y14392D01*
D02*
G37*
G36*
X12863D02*
X12810Y14385D01*
X12714Y14345D01*
X12631Y14282D01*
X12568Y14199D01*
X12528Y14103D01*
X12521Y14050D01*
X12863D01*
Y14392D01*
D02*
G37*
G36*
X18936Y14375D02*
X18594D01*
Y14033D01*
X18647Y14040D01*
X18743Y14080D01*
X18826Y14143D01*
X18889Y14226D01*
X18929Y14322D01*
X18936Y14375D01*
D02*
G37*
G36*
X27902Y13979D02*
X27799Y13965D01*
X27703Y13926D01*
X27620Y13862D01*
X27557Y13780D01*
X27517Y13683D01*
X27504Y13580D01*
X27517Y13477D01*
X27557Y13381D01*
X27620Y13298D01*
X27703Y13235D01*
X27799Y13195D01*
X27902Y13182D01*
X28006Y13195D01*
X28102Y13235D01*
X28184Y13298D01*
X28248Y13381D01*
X28287Y13477D01*
X28301Y13580D01*
X28287Y13683D01*
X28248Y13780D01*
X28184Y13862D01*
X28102Y13926D01*
X28006Y13965D01*
X27902Y13979D01*
D02*
G37*
G36*
X26091Y13055D02*
X26033Y13044D01*
X25983Y13011D01*
X25963D01*
X25914Y13044D01*
X25855Y13055D01*
X25797Y13044D01*
X25757Y13017D01*
X25717Y13044D01*
X25658Y13055D01*
X25343D01*
X25285Y13044D01*
X25235Y13011D01*
X25202Y12961D01*
X25190Y12902D01*
Y12824D01*
Y12666D01*
X25202Y12608D01*
X25235Y12558D01*
Y12538D01*
X25202Y12488D01*
X25190Y12430D01*
X25202Y12371D01*
X25235Y12322D01*
X25285Y12289D01*
X25343Y12277D01*
X25580D01*
X25638Y12289D01*
X25688Y12322D01*
X25766Y12401D01*
X25785Y12402D01*
X25865Y12322D01*
X25915Y12289D01*
X25973Y12277D01*
X25973D01*
X26032Y12289D01*
X26081Y12322D01*
X26199Y12440D01*
X26233Y12490D01*
X26244Y12548D01*
Y12902D01*
X26233Y12961D01*
X26199Y13011D01*
X26150Y13044D01*
X26091Y13055D01*
D02*
G37*
G36*
X30694Y13006D02*
X30537D01*
X30478Y12995D01*
X30440Y12969D01*
X30439Y12968D01*
X30399Y12995D01*
X30340Y13006D01*
X30282Y12995D01*
X30232Y12962D01*
X30212D01*
X30208Y12965D01*
X30204Y12969D01*
X30183Y12981D01*
X30162Y12995D01*
X30157Y12996D01*
X30152Y12999D01*
X30128Y13002D01*
X30104Y13006D01*
X30099Y13005D01*
X30093Y13006D01*
X30069Y13000D01*
X30045Y12995D01*
X30041Y12992D01*
X30036Y12990D01*
X30016Y12975D01*
X29996Y12962D01*
X29996Y12962D01*
X29984Y12953D01*
X29976Y12962D01*
X29926Y12995D01*
X29868Y13006D01*
X29632D01*
X29573Y12995D01*
X29523Y12962D01*
X29484Y12922D01*
X29451Y12873D01*
X29439Y12814D01*
Y12420D01*
X29451Y12362D01*
X29484Y12312D01*
X29523Y12273D01*
X29573Y12240D01*
X29632Y12228D01*
X29868D01*
X29926Y12240D01*
X29976Y12273D01*
X29978Y12275D01*
X29996Y12273D01*
X30045Y12240D01*
X30104Y12228D01*
X30162Y12240D01*
X30212Y12273D01*
X30232D01*
X30237Y12270D01*
X30240Y12266D01*
X30261Y12253D01*
X30282Y12240D01*
X30287Y12239D01*
X30292Y12236D01*
X30316Y12233D01*
X30340Y12228D01*
X30346Y12229D01*
X30351Y12229D01*
X30375Y12235D01*
X30399Y12240D01*
X30403Y12243D01*
X30409Y12244D01*
X30428Y12259D01*
X30439Y12266D01*
X30478Y12240D01*
X30537Y12228D01*
X30694D01*
X30753Y12240D01*
X30803Y12273D01*
X30842Y12312D01*
X30875Y12362D01*
X30887Y12420D01*
Y12814D01*
X30875Y12873D01*
X30842Y12922D01*
X30803Y12962D01*
X30753Y12995D01*
X30694Y13006D01*
D02*
G37*
G36*
X12863Y13950D02*
X12521D01*
X12528Y13897D01*
X12568Y13801D01*
X12631Y13718D01*
X12714Y13655D01*
X12810Y13615D01*
X12863Y13608D01*
Y13950D01*
D02*
G37*
G36*
X16613D02*
X16270D01*
Y13608D01*
X16324Y13615D01*
X16420Y13655D01*
X16502Y13718D01*
X16566Y13801D01*
X16606Y13897D01*
X16613Y13950D01*
D02*
G37*
G36*
X16170D02*
X15828D01*
X15835Y13897D01*
X15875Y13801D01*
X15939Y13718D01*
X16021Y13655D01*
X16117Y13615D01*
X16170Y13608D01*
Y13950D01*
D02*
G37*
G36*
X13306D02*
X12963D01*
Y13608D01*
X13017Y13615D01*
X13113Y13655D01*
X13195Y13718D01*
X13259Y13801D01*
X13299Y13897D01*
X13306Y13950D01*
D02*
G37*
G36*
X18600Y42599D02*
X18497Y42585D01*
X18401Y42545D01*
X18318Y42482D01*
X18255Y42399D01*
X18215Y42303D01*
X18201Y42200D01*
X18215Y42097D01*
X18255Y42001D01*
X18318Y41918D01*
X18401Y41855D01*
X18497Y41815D01*
X18600Y41801D01*
X18703Y41815D01*
X18799Y41855D01*
X18882Y41918D01*
X18945Y42001D01*
X18985Y42097D01*
X18999Y42200D01*
X18985Y42303D01*
X18945Y42399D01*
X18882Y42482D01*
X18799Y42545D01*
X18703Y42585D01*
X18600Y42599D01*
D02*
G37*
G36*
X12650Y41592D02*
Y41250D01*
X12992D01*
X12985Y41303D01*
X12945Y41399D01*
X12882Y41482D01*
X12799Y41545D01*
X12703Y41585D01*
X12650Y41592D01*
D02*
G37*
G36*
X12550D02*
X12497Y41585D01*
X12401Y41545D01*
X12318Y41482D01*
X12255Y41399D01*
X12215Y41303D01*
X12208Y41250D01*
X12550D01*
Y41592D01*
D02*
G37*
G36*
X30995Y43195D02*
X30205D01*
Y42405D01*
X30995D01*
Y43195D01*
D02*
G37*
G36*
X30992Y44750D02*
X30650D01*
Y44408D01*
X30703Y44415D01*
X30799Y44455D01*
X30882Y44518D01*
X30945Y44601D01*
X30985Y44697D01*
X30992Y44750D01*
D02*
G37*
G36*
X29878Y11103D02*
X29592D01*
Y10679D01*
X29763D01*
X30090Y10352D01*
X30090Y10352D01*
X30148Y10314D01*
X30210Y10301D01*
X30265Y10229D01*
X30338Y10173D01*
X30423Y10138D01*
X30515Y10126D01*
X30606Y10138D01*
X30691Y10173D01*
X30764Y10229D01*
X30821Y10302D01*
X30856Y10387D01*
X30868Y10479D01*
X30856Y10570D01*
X30821Y10655D01*
X30764Y10728D01*
X30691Y10784D01*
X30606Y10820D01*
X30515Y10832D01*
X30423Y10820D01*
X30338Y10784D01*
X30265Y10728D01*
X30222Y10725D01*
X29878Y11069D01*
Y11103D01*
D02*
G37*
G36*
X30600Y44199D02*
X30497Y44185D01*
X30401Y44145D01*
X30318Y44082D01*
X30255Y43999D01*
X30215Y43903D01*
X30201Y43800D01*
X30215Y43697D01*
X30255Y43601D01*
X30318Y43518D01*
X30401Y43455D01*
X30497Y43415D01*
X30600Y43401D01*
X30703Y43415D01*
X30799Y43455D01*
X30882Y43518D01*
X30945Y43601D01*
X30954Y43622D01*
X31331D01*
X31573Y43379D01*
Y43018D01*
D01*
X31573Y43018D01*
Y43018D01*
X31573D01*
X31573D01*
X31573Y42982D01*
X31573D01*
Y42349D01*
X31692D01*
Y42133D01*
X31543Y41984D01*
X31497Y42003D01*
Y42088D01*
X30903D01*
D01*
D01*
X30903Y42088D01*
X30897D01*
Y42088D01*
X30303D01*
Y41950D01*
X30082D01*
X30082Y41950D01*
X30013Y41936D01*
X29955Y41898D01*
X29723Y41665D01*
X29702Y41674D01*
X29598Y41687D01*
X29495Y41674D01*
X29474Y41665D01*
X29234Y41906D01*
X29176Y41944D01*
X29107Y41958D01*
X25512D01*
X25512Y41958D01*
X25444Y41944D01*
X25386Y41906D01*
X25176Y41696D01*
X25150Y41706D01*
X25046Y41720D01*
X24943Y41706D01*
X24936Y41703D01*
X24294Y42346D01*
X24231Y42388D01*
X24219Y42390D01*
X24158Y42402D01*
X19670D01*
X18982Y43090D01*
X18985Y43097D01*
X18999Y43200D01*
X18985Y43303D01*
X18945Y43399D01*
X18882Y43482D01*
X18799Y43545D01*
X18703Y43585D01*
X18600Y43599D01*
X18497Y43585D01*
X18401Y43545D01*
X18318Y43482D01*
X18255Y43399D01*
X18215Y43303D01*
X18201Y43200D01*
X18215Y43097D01*
X18218Y43090D01*
X17784Y42656D01*
X17742Y42594D01*
X17740Y42581D01*
X17728Y42520D01*
Y37248D01*
X17497Y37017D01*
X17425Y37026D01*
X17334Y37014D01*
X17249Y36979D01*
X17176Y36923D01*
X17132Y36865D01*
X16553D01*
X15922Y37497D01*
X15859Y37538D01*
X15847Y37541D01*
X15786Y37553D01*
X15451D01*
Y37835D01*
X14779D01*
Y36887D01*
X15451D01*
Y37168D01*
X15706D01*
X16201Y36673D01*
X15523Y35995D01*
X15005D01*
Y35205D01*
X15795D01*
Y35723D01*
X16553Y36481D01*
X17132D01*
X17176Y36424D01*
X17249Y36367D01*
X17334Y36332D01*
X17425Y36320D01*
X17497Y36330D01*
X17705Y36121D01*
Y35920D01*
X17661Y35898D01*
X17599Y35945D01*
X17503Y35985D01*
X17400Y35999D01*
X17297Y35985D01*
X17201Y35945D01*
X17118Y35882D01*
X17055Y35799D01*
X17035Y35751D01*
X16997Y35726D01*
X16997Y35726D01*
X16843Y35571D01*
X16798Y35594D01*
X16799Y35600D01*
X16785Y35703D01*
X16745Y35799D01*
X16682Y35882D01*
X16599Y35945D01*
X16503Y35985D01*
X16400Y35999D01*
X16297Y35985D01*
X16201Y35945D01*
X16118Y35882D01*
X16055Y35799D01*
X16015Y35703D01*
X16001Y35600D01*
X16015Y35497D01*
X16055Y35401D01*
X16118Y35318D01*
X16201Y35255D01*
X16297Y35215D01*
X16400Y35201D01*
X16407Y35202D01*
X16429Y35157D01*
X16271Y35000D01*
X16233Y34942D01*
X16219Y34874D01*
Y33105D01*
X16174Y33083D01*
X16093Y33145D01*
X15997Y33185D01*
X15944Y33192D01*
Y32800D01*
Y32408D01*
X15997Y32415D01*
X16093Y32455D01*
X16174Y32517D01*
X16219Y32495D01*
Y30625D01*
X16176D01*
Y30625D01*
X15978D01*
Y30629D01*
X15965Y30697D01*
X15926Y30755D01*
X15926Y30755D01*
X15720Y30962D01*
X15662Y31000D01*
X15594Y31014D01*
X15333D01*
Y31152D01*
X15215D01*
Y31869D01*
X15770Y32424D01*
X15791Y32415D01*
X15844Y32408D01*
Y32750D01*
X15502D01*
X15509Y32697D01*
X15517Y32676D01*
X14910Y32069D01*
X14871Y32011D01*
X14858Y31943D01*
Y31152D01*
X14739D01*
Y30885D01*
X15036D01*
Y30785D01*
X14739D01*
Y30519D01*
D01*
X14739Y30519D01*
Y30519D01*
X14739D01*
X14739D01*
X14739Y30483D01*
X14739D01*
Y29850D01*
X14858D01*
Y29752D01*
X14739D01*
Y29119D01*
D01*
X14739Y29119D01*
Y29119D01*
X14739D01*
X14739D01*
X14739Y29083D01*
X14739D01*
Y28945D01*
X14509D01*
X12765Y30688D01*
Y33213D01*
X12765Y33213D01*
X12751Y33282D01*
X12732Y33311D01*
X12713Y33340D01*
X12713Y33340D01*
X11176Y34876D01*
X11185Y34897D01*
X11199Y35000D01*
X11185Y35103D01*
X11145Y35199D01*
X11082Y35282D01*
X10999Y35345D01*
X10903Y35385D01*
X10800Y35399D01*
X10697Y35385D01*
X10601Y35345D01*
X10518Y35282D01*
X10455Y35199D01*
X10415Y35103D01*
X10401Y35000D01*
X10415Y34897D01*
X10455Y34801D01*
X10518Y34718D01*
X10601Y34655D01*
X10697Y34615D01*
X10800Y34601D01*
X10903Y34615D01*
X10924Y34624D01*
X12408Y33139D01*
Y32709D01*
X12362Y32690D01*
X11176Y33876D01*
X11185Y33897D01*
X11199Y34000D01*
X11185Y34103D01*
X11145Y34199D01*
X11082Y34282D01*
X10999Y34345D01*
X10903Y34385D01*
X10800Y34399D01*
X10697Y34385D01*
X10601Y34345D01*
X10518Y34282D01*
X10455Y34199D01*
X10415Y34103D01*
X10401Y34000D01*
X10415Y33897D01*
X10455Y33801D01*
X10518Y33718D01*
X10601Y33655D01*
X10697Y33615D01*
X10800Y33601D01*
X10903Y33615D01*
X10924Y33624D01*
X12081Y32466D01*
Y32036D01*
X12035Y32017D01*
X11176Y32876D01*
X11185Y32897D01*
X11199Y33000D01*
X11185Y33103D01*
X11145Y33199D01*
X11082Y33282D01*
X10999Y33345D01*
X10903Y33385D01*
X10800Y33399D01*
X10697Y33385D01*
X10601Y33345D01*
X10518Y33282D01*
X10455Y33199D01*
X10415Y33103D01*
X10401Y33000D01*
X10415Y32897D01*
X10455Y32801D01*
X10518Y32718D01*
X10601Y32655D01*
X10697Y32615D01*
X10800Y32601D01*
X10903Y32615D01*
X10924Y32624D01*
X11751Y31797D01*
Y31367D01*
X11705Y31348D01*
X11176Y31876D01*
X11185Y31897D01*
X11199Y32000D01*
X11185Y32103D01*
X11145Y32199D01*
X11082Y32282D01*
X10999Y32345D01*
X10903Y32385D01*
X10800Y32399D01*
X10697Y32385D01*
X10601Y32345D01*
X10518Y32282D01*
X10455Y32199D01*
X10415Y32103D01*
X10401Y32000D01*
X10415Y31897D01*
X10455Y31801D01*
X10518Y31718D01*
X10601Y31655D01*
X10697Y31615D01*
X10800Y31601D01*
X10903Y31615D01*
X10924Y31624D01*
X11106Y31441D01*
X11087Y31395D01*
X10850D01*
Y31050D01*
X11195D01*
Y31287D01*
X11241Y31306D01*
X11459Y31088D01*
Y30228D01*
X11473Y30160D01*
X11512Y30102D01*
X11989Y29625D01*
X11970Y29578D01*
X11154D01*
X11145Y29599D01*
X11082Y29682D01*
X10999Y29745D01*
X10903Y29785D01*
X10800Y29799D01*
X10697Y29785D01*
X10601Y29745D01*
X10518Y29682D01*
X10455Y29599D01*
X10415Y29503D01*
X10401Y29400D01*
X10415Y29297D01*
X10455Y29201D01*
X10518Y29118D01*
X10601Y29055D01*
X10697Y29015D01*
X10800Y29001D01*
X10903Y29015D01*
X10999Y29055D01*
X11082Y29118D01*
X11145Y29201D01*
X11154Y29222D01*
X11963D01*
X12560Y28625D01*
X12541Y28578D01*
X11154D01*
X11145Y28599D01*
X11082Y28682D01*
X10999Y28745D01*
X10903Y28785D01*
X10800Y28799D01*
X10697Y28785D01*
X10601Y28745D01*
X10518Y28682D01*
X10455Y28599D01*
X10415Y28503D01*
X10401Y28400D01*
X10415Y28297D01*
X10455Y28201D01*
X10518Y28118D01*
X10601Y28055D01*
X10697Y28015D01*
X10800Y28001D01*
X10903Y28015D01*
X10999Y28055D01*
X11082Y28118D01*
X11145Y28201D01*
X11154Y28222D01*
X12550D01*
X14943Y25829D01*
X14927Y25781D01*
X14849Y25771D01*
X14763Y25736D01*
X14690Y25680D01*
X14685Y25672D01*
X14635Y25669D01*
X12513Y27790D01*
Y28051D01*
X11565D01*
Y27379D01*
X12420D01*
X13308Y26491D01*
X13289Y26445D01*
X12881D01*
Y26109D01*
Y25772D01*
X13305D01*
Y25930D01*
X13420D01*
X14409Y24941D01*
X14390Y24895D01*
X14220D01*
X13903Y25211D01*
X13845Y25250D01*
X13777Y25263D01*
X13305D01*
Y25421D01*
X12747D01*
X12716Y25452D01*
X12658Y25491D01*
X12590Y25504D01*
X11887D01*
Y25918D01*
X10113D01*
Y24734D01*
X11887D01*
Y25148D01*
X12357D01*
Y24749D01*
X13305D01*
Y24907D01*
X13703D01*
X13931Y24679D01*
X13912Y24633D01*
X13158D01*
X13158Y24633D01*
X13089Y24619D01*
X13060Y24600D01*
X13031Y24581D01*
X13031Y24581D01*
X12926Y24476D01*
X12369D01*
Y24318D01*
X11939D01*
X11871Y24304D01*
X11813Y24266D01*
X11813Y24266D01*
X11340Y23792D01*
X10113D01*
Y22608D01*
X11887D01*
Y23792D01*
D01*
X11887D01*
Y23792D01*
Y23792D01*
X11887Y23792D01*
X11875Y23823D01*
X12013Y23961D01*
X12369D01*
Y23803D01*
X13317D01*
D01*
Y23803D01*
X13317D01*
Y23803D01*
Y23803D01*
X13339Y23803D01*
X13376Y23754D01*
X13449Y23698D01*
X13535Y23663D01*
X13626Y23651D01*
X13717Y23663D01*
X13802Y23698D01*
X13876Y23754D01*
X13932Y23827D01*
X13967Y23913D01*
X13973Y23961D01*
X15769D01*
Y23941D01*
Y23626D01*
X16506D01*
Y23235D01*
X16863D01*
Y22521D01*
X17198D01*
Y22282D01*
X17212Y22214D01*
X17251Y22156D01*
X17308Y22117D01*
X17377Y22104D01*
X17399Y22083D01*
X17399Y22083D01*
X17411Y21991D01*
X17446Y21906D01*
X17472Y21873D01*
X17450Y21828D01*
X16997D01*
X16943Y21899D01*
X16869Y21955D01*
X16784Y21991D01*
X16693Y22003D01*
X16602Y21991D01*
X16516Y21955D01*
X16443Y21899D01*
X16387Y21826D01*
X16352Y21741D01*
X16340Y21650D01*
X16352Y21558D01*
X16387Y21473D01*
X16443Y21400D01*
X16516Y21344D01*
X16602Y21309D01*
X16693Y21297D01*
X16784Y21309D01*
X16841Y21332D01*
X16871Y21292D01*
X16852Y21267D01*
X16816Y21182D01*
X16804Y21091D01*
X16816Y20999D01*
X16852Y20914D01*
X16908Y20841D01*
X16971Y20793D01*
X16955Y20745D01*
X14387D01*
Y20864D01*
X13754D01*
D01*
D01*
X13754Y20864D01*
X13718D01*
Y20864D01*
X13085D01*
Y20745D01*
X12620D01*
Y20962D01*
X11830D01*
Y20172D01*
X12620D01*
Y20389D01*
X13085D01*
Y20270D01*
X13718D01*
D01*
Y20270D01*
X13718D01*
X13718Y20270D01*
X13754D01*
Y20270D01*
X14387D01*
Y20389D01*
X19988D01*
X20056Y20402D01*
X20114Y20441D01*
X22236Y22562D01*
X22266Y22560D01*
X22274Y22518D01*
X19301Y19545D01*
X14387D01*
Y19664D01*
X13754D01*
D01*
D01*
X13754Y19664D01*
X13718D01*
Y19664D01*
X13085D01*
Y19545D01*
X12620D01*
Y19762D01*
X11830D01*
Y18972D01*
X12620D01*
Y19189D01*
X13085D01*
Y19070D01*
X13718D01*
D01*
Y19070D01*
X13718D01*
X13718Y19070D01*
X13754D01*
Y19070D01*
X14387D01*
Y19189D01*
X19375D01*
X19443Y19202D01*
X19501Y19241D01*
X22599Y22338D01*
X22618Y22368D01*
X22668D01*
X22703Y22316D01*
X23038Y21981D01*
X22008Y20951D01*
X21966Y20889D01*
X21964Y20877D01*
X21952Y20815D01*
Y17773D01*
X21945Y17770D01*
X21862Y17707D01*
X21799Y17625D01*
X21796Y17617D01*
X11729D01*
X11243Y18104D01*
Y18178D01*
X10897D01*
Y17832D01*
X10971D01*
X11514Y17289D01*
X11576Y17248D01*
X11588Y17245D01*
X11650Y17233D01*
X19182D01*
X19204Y17188D01*
X19171Y17145D01*
X19135Y17060D01*
X19123Y16968D01*
X19135Y16877D01*
X19171Y16792D01*
X19227Y16719D01*
X19298Y16664D01*
Y14431D01*
X18668Y13802D01*
X18647Y13810D01*
X18544Y13824D01*
X18441Y13810D01*
X18345Y13771D01*
X18262Y13707D01*
X18199Y13625D01*
X18159Y13528D01*
X18145Y13425D01*
X18159Y13322D01*
X18199Y13226D01*
X18262Y13143D01*
X18345Y13080D01*
X18441Y13040D01*
X18544Y13027D01*
X18647Y13040D01*
X18743Y13080D01*
X18826Y13143D01*
X18889Y13226D01*
X18929Y13322D01*
X18943Y13425D01*
X18929Y13528D01*
X18921Y13549D01*
X19603Y14231D01*
X19603Y14231D01*
X19622Y14260D01*
X19641Y14289D01*
X19655Y14358D01*
X19655Y14358D01*
Y16664D01*
X19726Y16719D01*
X19782Y16792D01*
X19817Y16877D01*
X19829Y16968D01*
X19817Y17060D01*
X19782Y17145D01*
X19726Y17218D01*
X19731Y17233D01*
X21796D01*
X21799Y17226D01*
X21862Y17143D01*
X21945Y17080D01*
X22041Y17040D01*
X22094Y17033D01*
Y17425D01*
X22144D01*
Y17475D01*
X22536D01*
X22529Y17528D01*
X22489Y17625D01*
X22426Y17707D01*
X22343Y17770D01*
X22336Y17773D01*
Y20736D01*
X23390Y21789D01*
X24840D01*
Y21645D01*
X25264D01*
Y21981D01*
Y22317D01*
X24840D01*
Y22173D01*
X23390D01*
X23032Y22531D01*
Y23841D01*
X23079Y23857D01*
X23124Y23798D01*
X23198Y23742D01*
X23283Y23706D01*
X23374Y23694D01*
X23463Y23706D01*
X23929Y23240D01*
X23929Y23240D01*
X23958Y23221D01*
X23987Y23201D01*
X24055Y23188D01*
X24055Y23188D01*
X25787D01*
X25856Y23201D01*
X25914Y23240D01*
X26171Y23498D01*
X27648D01*
Y23192D01*
X29371D01*
Y23597D01*
X29471D01*
Y23192D01*
X31194D01*
Y23508D01*
X31242Y23524D01*
X31290Y23460D01*
X31363Y23404D01*
X31449Y23369D01*
X31540Y23357D01*
X31629Y23369D01*
X31712Y23286D01*
Y23028D01*
X31391D01*
Y22631D01*
Y22316D01*
Y22001D01*
Y21686D01*
Y21371D01*
Y21305D01*
X31796D01*
Y21205D01*
X31391D01*
Y21056D01*
Y20741D01*
Y20426D01*
Y20112D01*
Y19797D01*
Y19482D01*
X32201D01*
Y19797D01*
Y19817D01*
X33930D01*
X36024Y17724D01*
X36015Y17703D01*
X36001Y17600D01*
X36015Y17497D01*
X36055Y17401D01*
X36118Y17318D01*
X36201Y17255D01*
X36297Y17215D01*
X36400Y17201D01*
X36503Y17215D01*
X36599Y17255D01*
X36682Y17318D01*
X36745Y17401D01*
X36785Y17497D01*
X36799Y17600D01*
X36785Y17703D01*
X36745Y17799D01*
X36682Y17882D01*
X36599Y17945D01*
X36503Y17985D01*
X36400Y17999D01*
X36297Y17985D01*
X36276Y17976D01*
X34131Y20122D01*
X34134Y20132D01*
X34615D01*
X36024Y18724D01*
X36015Y18703D01*
X36001Y18600D01*
X36015Y18497D01*
X36055Y18401D01*
X36118Y18318D01*
X36201Y18255D01*
X36297Y18215D01*
X36400Y18201D01*
X36503Y18215D01*
X36599Y18255D01*
X36682Y18318D01*
X36745Y18401D01*
X36785Y18497D01*
X36799Y18600D01*
X36785Y18703D01*
X36745Y18799D01*
X36682Y18882D01*
X36599Y18945D01*
X36503Y18985D01*
X36400Y18999D01*
X36297Y18985D01*
X36276Y18976D01*
X34816Y20437D01*
X34819Y20447D01*
X35301D01*
X36024Y19724D01*
X36015Y19703D01*
X36001Y19600D01*
X36015Y19497D01*
X36055Y19401D01*
X36118Y19318D01*
X36201Y19255D01*
X36297Y19215D01*
X36400Y19201D01*
X36503Y19215D01*
X36599Y19255D01*
X36682Y19318D01*
X36745Y19401D01*
X36785Y19497D01*
X36799Y19600D01*
X36785Y19703D01*
X36745Y19799D01*
X36682Y19882D01*
X36599Y19945D01*
X36503Y19985D01*
X36400Y19999D01*
X36297Y19985D01*
X36276Y19976D01*
X36094Y20159D01*
X36113Y20205D01*
X36795D01*
Y20995D01*
X36257D01*
X36186Y21067D01*
X36128Y21105D01*
X36059Y21119D01*
X34113D01*
Y21155D01*
X34113D01*
Y21299D01*
X34956D01*
X35017Y21311D01*
X35029Y21314D01*
X35092Y21355D01*
X35259Y21523D01*
X35331Y21513D01*
X35422Y21525D01*
X35507Y21560D01*
X35580Y21617D01*
X35636Y21690D01*
X35672Y21775D01*
X35684Y21866D01*
X35674Y21938D01*
X36246Y22510D01*
X36288Y22572D01*
X36290Y22584D01*
X36303Y22646D01*
Y26674D01*
X36347Y26696D01*
X36401Y26655D01*
X36497Y26615D01*
X36600Y26601D01*
X36703Y26615D01*
X36799Y26655D01*
X36882Y26718D01*
X36945Y26801D01*
X36985Y26897D01*
X36999Y27000D01*
X36985Y27103D01*
X36945Y27199D01*
X36882Y27282D01*
X36799Y27345D01*
X36703Y27385D01*
X36600Y27399D01*
X36497Y27385D01*
X36401Y27345D01*
X36347Y27304D01*
X36303Y27326D01*
Y27674D01*
X36347Y27696D01*
X36401Y27655D01*
X36497Y27615D01*
X36600Y27601D01*
X36703Y27615D01*
X36799Y27655D01*
X36882Y27718D01*
X36945Y27801D01*
X36985Y27897D01*
X36999Y28000D01*
X36985Y28103D01*
X36945Y28199D01*
X36882Y28282D01*
X36799Y28345D01*
X36703Y28385D01*
X36600Y28399D01*
X36497Y28385D01*
X36401Y28345D01*
X36347Y28304D01*
X36303Y28326D01*
Y28674D01*
X36347Y28696D01*
X36401Y28655D01*
X36497Y28615D01*
X36600Y28601D01*
X36703Y28615D01*
X36799Y28655D01*
X36882Y28718D01*
X36945Y28801D01*
X36985Y28897D01*
X36999Y29000D01*
X36985Y29103D01*
X36945Y29199D01*
X36882Y29282D01*
X36799Y29345D01*
X36703Y29385D01*
X36600Y29399D01*
X36497Y29385D01*
X36401Y29345D01*
X36347Y29304D01*
X36303Y29326D01*
Y29448D01*
X36477Y29623D01*
X36497Y29615D01*
X36550Y29608D01*
Y29950D01*
X36208D01*
X36214Y29903D01*
X35992Y29682D01*
X35946Y29701D01*
Y30012D01*
X35933Y30080D01*
X35894Y30138D01*
X35894Y30138D01*
X35657Y30375D01*
Y32400D01*
X35643Y32468D01*
X35605Y32526D01*
X35605Y32526D01*
X34693Y33437D01*
X34635Y33476D01*
X34567Y33489D01*
X32216D01*
X31555Y34150D01*
X31497Y34188D01*
X31429Y34202D01*
X27477D01*
X25919Y35760D01*
X25862Y35799D01*
X25793Y35812D01*
X21148D01*
Y35820D01*
X21148D01*
Y35977D01*
X21600D01*
X21668Y35991D01*
X21726Y36030D01*
X22173Y36476D01*
X22173Y36476D01*
X22192Y36505D01*
X22211Y36534D01*
X22225Y36602D01*
X22225Y36602D01*
Y37967D01*
X22246Y37976D01*
X22328Y38039D01*
X22392Y38122D01*
X22395Y38129D01*
X24203D01*
X24265Y38141D01*
X24277Y38144D01*
X24339Y38185D01*
X24629Y38476D01*
X24671Y38448D01*
X24661Y38424D01*
X24648Y38321D01*
X24661Y38218D01*
X24701Y38122D01*
X24765Y38039D01*
X24847Y37976D01*
X24943Y37936D01*
X25046Y37923D01*
X25150Y37936D01*
X25246Y37976D01*
X25328Y38039D01*
X25392Y38122D01*
X25432Y38218D01*
X25445Y38321D01*
X25432Y38424D01*
X25392Y38521D01*
X25328Y38603D01*
X25332Y38615D01*
X26000D01*
X26216Y38399D01*
X26213Y38392D01*
X26206Y38339D01*
X26548D01*
Y38681D01*
X26495Y38674D01*
X26488Y38671D01*
X26216Y38943D01*
X26154Y38985D01*
X26141Y38987D01*
X26080Y38999D01*
X25354D01*
X25332Y39044D01*
X25392Y39122D01*
X25432Y39218D01*
X25445Y39321D01*
X25432Y39424D01*
X25392Y39521D01*
X25328Y39603D01*
X25246Y39667D01*
X25150Y39706D01*
X25046Y39720D01*
X24943Y39706D01*
X24847Y39667D01*
X24765Y39603D01*
X24701Y39521D01*
X24661Y39424D01*
X24648Y39321D01*
X24661Y39218D01*
X24701Y39122D01*
X24761Y39044D01*
X24739Y38999D01*
X24689D01*
X24628Y38987D01*
X24615Y38985D01*
X24553Y38943D01*
X24124Y38514D01*
X22395D01*
X22392Y38521D01*
X22328Y38603D01*
X22246Y38667D01*
X22150Y38706D01*
X22096Y38713D01*
Y38321D01*
X21996D01*
Y38713D01*
X21943Y38706D01*
X21847Y38667D01*
X21765Y38603D01*
X21701Y38521D01*
X21698Y38514D01*
X21113D01*
Y38441D01*
X20689D01*
Y38155D01*
X20719D01*
X20736Y38144D01*
X20809Y38129D01*
X21698D01*
X21701Y38122D01*
X21765Y38039D01*
X21847Y37976D01*
X21868Y37967D01*
Y36676D01*
X21526Y36334D01*
X21148D01*
Y36492D01*
X20724D01*
Y36156D01*
X20624D01*
Y36492D01*
X20200D01*
Y36334D01*
X18956D01*
X18888Y36321D01*
X18830Y36282D01*
X18830Y36282D01*
X18524Y35976D01*
X18503Y35985D01*
X18450Y35992D01*
Y35650D01*
X18792D01*
X18785Y35703D01*
X18776Y35724D01*
X19030Y35977D01*
X19791D01*
X19807Y35930D01*
X19746Y35883D01*
X19690Y35810D01*
X19655Y35725D01*
X19643Y35634D01*
X19655Y35542D01*
X19690Y35457D01*
X19746Y35384D01*
X19820Y35328D01*
X19905Y35293D01*
X19996Y35281D01*
X20087Y35293D01*
X20158Y35322D01*
X20200Y35294D01*
Y35169D01*
X18520D01*
X18510Y35218D01*
X18599Y35255D01*
X18682Y35318D01*
X18745Y35401D01*
X18785Y35497D01*
X18792Y35550D01*
X18400D01*
Y35600D01*
X18350D01*
Y35992D01*
X18297Y35985D01*
X18201Y35945D01*
X18135Y35895D01*
X18090Y35917D01*
Y36201D01*
X18075Y36274D01*
X18061Y36295D01*
X18034Y36337D01*
X17769Y36602D01*
X17778Y36673D01*
X17769Y36745D01*
X18056Y37032D01*
X18098Y37094D01*
X18100Y37107D01*
X18112Y37168D01*
Y42440D01*
X18490Y42818D01*
X18497Y42815D01*
X18600Y42801D01*
X18703Y42815D01*
X18710Y42818D01*
X19454Y42074D01*
X19496Y42046D01*
X19516Y42032D01*
X19590Y42018D01*
X24078D01*
X24664Y41432D01*
X24661Y41424D01*
X24648Y41321D01*
X24661Y41218D01*
X24667Y41203D01*
X24477Y41013D01*
X22365D01*
X22343Y41058D01*
X22392Y41122D01*
X22432Y41218D01*
X22445Y41321D01*
X22432Y41424D01*
X22392Y41521D01*
X22328Y41603D01*
X22246Y41667D01*
X22150Y41706D01*
X22046Y41720D01*
X21943Y41706D01*
X21847Y41667D01*
X21765Y41603D01*
X21701Y41521D01*
X21661Y41424D01*
X21648Y41321D01*
X21661Y41218D01*
X21701Y41122D01*
X21750Y41058D01*
X21728Y41013D01*
X21303D01*
X21303Y41013D01*
X21235Y40999D01*
X21206Y40980D01*
X21177Y40961D01*
X21177Y40961D01*
X20513Y40297D01*
X20475Y40239D01*
X20461Y40171D01*
Y39851D01*
X20165D01*
Y39179D01*
X21113D01*
Y39851D01*
X20818D01*
Y40097D01*
X21377Y40656D01*
X21756D01*
X21772Y40609D01*
X21765Y40603D01*
X21701Y40521D01*
X21661Y40424D01*
X21648Y40321D01*
X21661Y40218D01*
X21701Y40122D01*
X21765Y40039D01*
X21847Y39976D01*
X21943Y39936D01*
X22046Y39923D01*
X22150Y39936D01*
X22246Y39976D01*
X22328Y40039D01*
X22392Y40122D01*
X22400Y40143D01*
X22854D01*
X22868Y40111D01*
X22924Y40038D01*
X22997Y39982D01*
X23082Y39946D01*
X23173Y39934D01*
X23265Y39946D01*
X23350Y39982D01*
X23423Y40038D01*
X23479Y40111D01*
X23514Y40196D01*
X23526Y40287D01*
X23514Y40379D01*
X23479Y40464D01*
X23423Y40537D01*
X23350Y40593D01*
X23265Y40628D01*
X23173Y40640D01*
X23189Y40656D01*
X24551D01*
X24619Y40670D01*
X24677Y40708D01*
X24916Y40947D01*
X24943Y40936D01*
X25046Y40923D01*
X25150Y40936D01*
X25246Y40976D01*
X25328Y41039D01*
X25392Y41122D01*
X25432Y41218D01*
X25445Y41321D01*
X25432Y41424D01*
X25425Y41440D01*
X25586Y41601D01*
X26283D01*
X26306Y41556D01*
X26253Y41488D01*
X26213Y41392D01*
X26206Y41339D01*
X26991D01*
X26984Y41392D01*
X26944Y41488D01*
X26880Y41571D01*
X26891Y41601D01*
X29034D01*
X29222Y41413D01*
X29213Y41392D01*
X29200Y41289D01*
X29213Y41185D01*
X29253Y41089D01*
X29307Y41019D01*
X29285Y40974D01*
X29193D01*
X29125Y40960D01*
X29067Y40921D01*
X28612Y40467D01*
X26952D01*
X26944Y40488D01*
X26880Y40571D01*
X26798Y40634D01*
X26702Y40674D01*
X26598Y40687D01*
X26495Y40674D01*
X26399Y40634D01*
X26317Y40571D01*
X26253Y40488D01*
X26213Y40392D01*
X26200Y40289D01*
X26213Y40185D01*
X26253Y40089D01*
X26317Y40007D01*
X26399Y39943D01*
X26495Y39903D01*
X26598Y39890D01*
X26702Y39903D01*
X26798Y39943D01*
X26880Y40007D01*
X26944Y40089D01*
X26952Y40110D01*
X28686D01*
X28754Y40124D01*
X28812Y40162D01*
X29259Y40609D01*
X29307Y40597D01*
X29317Y40571D01*
X29253Y40488D01*
X29213Y40392D01*
X29200Y40289D01*
X29213Y40185D01*
X29253Y40089D01*
X29317Y40007D01*
X29399Y39943D01*
X29495Y39903D01*
X29598Y39890D01*
X29702Y39903D01*
X29798Y39943D01*
X29880Y40007D01*
X29944Y40089D01*
X29984Y40185D01*
X29997Y40289D01*
X29998Y40290D01*
X31087D01*
X31155Y40304D01*
X31213Y40342D01*
X31326Y40456D01*
X31365Y40514D01*
X31378Y40582D01*
X31378Y40582D01*
Y40786D01*
X31497D01*
Y41419D01*
D01*
Y41419D01*
X31497Y41419D01*
Y41455D01*
X31497D01*
Y41540D01*
X31543Y41559D01*
X31661Y41441D01*
Y39728D01*
X31509Y39576D01*
X31463Y39596D01*
Y39643D01*
X30830D01*
D01*
D01*
X30830Y39643D01*
X30794D01*
Y39643D01*
X30161D01*
Y39050D01*
D01*
Y39050D01*
X30152Y39041D01*
X30149D01*
Y38995D01*
X29928D01*
X29906Y39040D01*
X29944Y39089D01*
X29984Y39185D01*
X29997Y39289D01*
X29984Y39392D01*
X29944Y39488D01*
X29880Y39571D01*
X29798Y39634D01*
X29702Y39674D01*
X29598Y39687D01*
X29495Y39674D01*
X29399Y39634D01*
X29317Y39571D01*
X29253Y39488D01*
X29213Y39392D01*
X29200Y39289D01*
X29213Y39185D01*
X29253Y39089D01*
X29301Y39026D01*
X29279Y38982D01*
X27158D01*
X26975Y39164D01*
X26984Y39185D01*
X26997Y39289D01*
X26984Y39392D01*
X26944Y39488D01*
X26880Y39571D01*
X26798Y39634D01*
X26702Y39674D01*
X26598Y39687D01*
X26495Y39674D01*
X26399Y39634D01*
X26317Y39571D01*
X26253Y39488D01*
X26213Y39392D01*
X26200Y39289D01*
X26213Y39185D01*
X26253Y39089D01*
X26317Y39007D01*
X26399Y38943D01*
X26495Y38903D01*
X26598Y38890D01*
X26702Y38903D01*
X26723Y38912D01*
X26958Y38677D01*
X27016Y38638D01*
X27084Y38625D01*
X27084Y38625D01*
X29309D01*
X29325Y38577D01*
X29317Y38570D01*
X29253Y38488D01*
X29213Y38392D01*
X29200Y38289D01*
X29213Y38185D01*
X29253Y38089D01*
X29317Y38007D01*
X29399Y37943D01*
X29495Y37903D01*
X29598Y37890D01*
X29702Y37903D01*
X29798Y37943D01*
X29880Y38007D01*
X29944Y38089D01*
X29984Y38185D01*
X29997Y38289D01*
X29984Y38392D01*
X29944Y38488D01*
X29880Y38570D01*
X29850Y38593D01*
X29858Y38611D01*
X30149D01*
Y38447D01*
X30782D01*
Y38447D01*
X30782D01*
X30782Y38447D01*
X30818D01*
Y38447D01*
X30956D01*
Y35396D01*
X30970Y35328D01*
X31008Y35270D01*
X31349Y34930D01*
X31329Y34884D01*
X30275D01*
X26981Y38178D01*
X26984Y38185D01*
X26991Y38239D01*
X26648D01*
Y37896D01*
X26702Y37903D01*
X26709Y37906D01*
X30060Y34555D01*
X30122Y34514D01*
X30196Y34499D01*
X31365D01*
Y34355D01*
X31789D01*
Y34691D01*
Y35028D01*
X31755D01*
X31450Y35333D01*
X31470Y35379D01*
X32313D01*
Y35537D01*
X33379D01*
X33464Y35452D01*
X33451Y35421D01*
X33437Y35313D01*
X33451Y35204D01*
X33493Y35103D01*
X33559Y35017D01*
X33646Y34950D01*
X33747Y34908D01*
X33855Y34894D01*
X33963Y34908D01*
X34064Y34950D01*
X34151Y35017D01*
X34218Y35103D01*
X34230Y35134D01*
X34948D01*
X37030Y33052D01*
Y32395D01*
X36995D01*
Y32395D01*
X36205D01*
Y31605D01*
X36887D01*
X36906Y31559D01*
X36724Y31376D01*
X36703Y31385D01*
X36600Y31399D01*
X36497Y31385D01*
X36401Y31345D01*
X36318Y31282D01*
X36255Y31199D01*
X36215Y31103D01*
X36201Y31000D01*
X36215Y30897D01*
X36255Y30801D01*
X36318Y30718D01*
X36401Y30655D01*
X36497Y30615D01*
X36600Y30601D01*
X36703Y30615D01*
X36799Y30655D01*
X36882Y30718D01*
X36945Y30801D01*
X36985Y30897D01*
X36999Y31000D01*
X36985Y31103D01*
X36976Y31124D01*
X37335Y31482D01*
X37374Y31540D01*
X37387Y31609D01*
X37387Y31609D01*
Y33126D01*
X37374Y33194D01*
X37335Y33252D01*
X37335Y33252D01*
X35148Y35439D01*
X35090Y35477D01*
X35022Y35491D01*
X34230D01*
X34218Y35522D01*
X34151Y35609D01*
X34064Y35675D01*
X33963Y35717D01*
X33855Y35731D01*
X33747Y35717D01*
X33716Y35704D01*
X33579Y35841D01*
X33521Y35880D01*
X33453Y35893D01*
X32313D01*
Y36051D01*
X32018D01*
Y39039D01*
X32018Y39039D01*
X32004Y39107D01*
X31985Y39136D01*
X31966Y39165D01*
X31966Y39165D01*
X31784Y39346D01*
X31966Y39528D01*
X31966Y39528D01*
X31985Y39557D01*
X32004Y39586D01*
X32018Y39654D01*
X32018Y39654D01*
Y41515D01*
X32018Y41515D01*
X32004Y41583D01*
X31966Y41641D01*
X31835Y41772D01*
X31996Y41933D01*
X31996Y41933D01*
X32019Y41968D01*
X32035Y41991D01*
X32049Y42059D01*
Y42349D01*
X32167D01*
Y42982D01*
D01*
Y42982D01*
X32167Y42982D01*
Y43018D01*
X32167D01*
Y43651D01*
X31806D01*
X31531Y43926D01*
X31473Y43965D01*
X31405Y43978D01*
X30954D01*
X30945Y43999D01*
X30882Y44082D01*
X30799Y44145D01*
X30703Y44185D01*
X30600Y44199D01*
D02*
G37*
G36*
X26991Y41239D02*
X26648D01*
Y40896D01*
X26702Y40903D01*
X26798Y40943D01*
X26880Y41007D01*
X26944Y41089D01*
X26984Y41185D01*
X26991Y41239D01*
D02*
G37*
G36*
X22046Y39720D02*
X21943Y39706D01*
X21847Y39667D01*
X21765Y39603D01*
X21701Y39521D01*
X21661Y39424D01*
X21648Y39321D01*
X21661Y39218D01*
X21701Y39122D01*
X21765Y39039D01*
X21847Y38976D01*
X21943Y38936D01*
X22046Y38923D01*
X22150Y38936D01*
X22246Y38976D01*
X22328Y39039D01*
X22392Y39122D01*
X22432Y39218D01*
X22445Y39321D01*
X22432Y39424D01*
X22392Y39521D01*
X22328Y39603D01*
X22246Y39667D01*
X22150Y39706D01*
X22046Y39720D01*
D02*
G37*
G36*
X33855Y39731D02*
X33747Y39717D01*
X33646Y39675D01*
X33559Y39609D01*
X33493Y39522D01*
X33451Y39421D01*
X33437Y39313D01*
X33451Y39204D01*
X33493Y39103D01*
X33559Y39017D01*
X33646Y38950D01*
X33747Y38908D01*
X33855Y38894D01*
X33963Y38908D01*
X34064Y38950D01*
X34151Y39017D01*
X34218Y39103D01*
X34230Y39134D01*
X34701D01*
X34710Y39113D01*
X34773Y39031D01*
X34856Y38967D01*
X34952Y38928D01*
X35055Y38914D01*
X35158Y38928D01*
X35254Y38967D01*
X35337Y39031D01*
X35400Y39113D01*
X35440Y39209D01*
X35454Y39313D01*
X35440Y39416D01*
X35400Y39512D01*
X35337Y39595D01*
X35254Y39658D01*
X35158Y39698D01*
X35055Y39711D01*
X34952Y39698D01*
X34856Y39658D01*
X34773Y39595D01*
X34710Y39512D01*
X34701Y39491D01*
X34230D01*
X34218Y39522D01*
X34151Y39609D01*
X34064Y39675D01*
X33963Y39717D01*
X33855Y39731D01*
D02*
G37*
G36*
X21113Y38828D02*
X20689D01*
Y38541D01*
X21113D01*
Y38828D01*
D02*
G37*
G36*
X33855Y40731D02*
X33747Y40717D01*
X33646Y40675D01*
X33559Y40609D01*
X33493Y40522D01*
X33451Y40421D01*
X33437Y40313D01*
X33451Y40204D01*
X33493Y40103D01*
X33559Y40017D01*
X33646Y39950D01*
X33747Y39908D01*
X33855Y39894D01*
X33963Y39908D01*
X34064Y39950D01*
X34151Y40017D01*
X34218Y40103D01*
X34230Y40134D01*
X34660D01*
Y39917D01*
X35450D01*
Y40708D01*
X34660D01*
Y40491D01*
X34230D01*
X34218Y40522D01*
X34151Y40609D01*
X34064Y40675D01*
X33963Y40717D01*
X33855Y40731D01*
D02*
G37*
G36*
X26548Y41239D02*
X26206D01*
X26213Y41185D01*
X26253Y41089D01*
X26317Y41007D01*
X26399Y40943D01*
X26495Y40903D01*
X26548Y40896D01*
Y41239D01*
D02*
G37*
G36*
X18600Y41599D02*
X18497Y41585D01*
X18401Y41545D01*
X18318Y41482D01*
X18255Y41399D01*
X18215Y41303D01*
X18201Y41200D01*
X18215Y41097D01*
X18255Y41001D01*
X18318Y40918D01*
X18401Y40855D01*
X18497Y40815D01*
X18600Y40801D01*
X18703Y40815D01*
X18799Y40855D01*
X18882Y40918D01*
X18945Y41001D01*
X18985Y41097D01*
X18999Y41200D01*
X18985Y41303D01*
X18945Y41399D01*
X18882Y41482D01*
X18799Y41545D01*
X18703Y41585D01*
X18600Y41599D01*
D02*
G37*
G36*
X25046Y40720D02*
X24943Y40706D01*
X24847Y40667D01*
X24765Y40603D01*
X24701Y40521D01*
X24661Y40424D01*
X24648Y40321D01*
X24661Y40218D01*
X24701Y40122D01*
X24765Y40039D01*
X24847Y39976D01*
X24943Y39936D01*
X25046Y39923D01*
X25150Y39936D01*
X25246Y39976D01*
X25328Y40039D01*
X25392Y40122D01*
X25432Y40218D01*
X25445Y40321D01*
X25432Y40424D01*
X25392Y40521D01*
X25328Y40603D01*
X25246Y40667D01*
X25150Y40706D01*
X25046Y40720D01*
D02*
G37*
G36*
X33855Y47637D02*
X33747Y47622D01*
X33646Y47581D01*
X33559Y47514D01*
X33493Y47427D01*
X33451Y47326D01*
X33437Y47218D01*
X33451Y47110D01*
X33493Y47009D01*
X33559Y46922D01*
X33646Y46856D01*
X33747Y46814D01*
X33855Y46800D01*
X33963Y46814D01*
X34064Y46856D01*
X34151Y46922D01*
X34218Y47009D01*
X34259Y47110D01*
X34274Y47218D01*
X34259Y47326D01*
X34218Y47427D01*
X34151Y47514D01*
X34064Y47581D01*
X33963Y47622D01*
X33855Y47637D01*
D02*
G37*
G36*
X36000Y47698D02*
X35871Y47681D01*
X35751Y47631D01*
X35648Y47552D01*
X35569Y47449D01*
X35519Y47329D01*
X35502Y47200D01*
X35519Y47071D01*
X35569Y46951D01*
X35648Y46848D01*
X35751Y46769D01*
X35871Y46719D01*
X36000Y46702D01*
X36129Y46719D01*
X36249Y46769D01*
X36352Y46848D01*
X36431Y46951D01*
X36481Y47071D01*
X36498Y47200D01*
X36481Y47329D01*
X36431Y47449D01*
X36352Y47552D01*
X36249Y47631D01*
X36129Y47681D01*
X36000Y47698D01*
D02*
G37*
G36*
X29524Y48301D02*
X29361Y48285D01*
X29205Y48237D01*
X29061Y48161D01*
X28935Y48057D01*
X28832Y47931D01*
X28755Y47787D01*
X28707Y47631D01*
X28691Y47469D01*
X28707Y47306D01*
X28755Y47150D01*
X28832Y47006D01*
X28935Y46880D01*
X29061Y46776D01*
X29205Y46700D01*
X29361Y46652D01*
X29524Y46636D01*
X29686Y46652D01*
X29842Y46700D01*
X29986Y46776D01*
X30112Y46880D01*
X30216Y47006D01*
X30293Y47150D01*
X30340Y47306D01*
X30356Y47469D01*
X30340Y47631D01*
X30293Y47787D01*
X30216Y47931D01*
X30112Y48057D01*
X29986Y48161D01*
X29842Y48237D01*
X29686Y48285D01*
X29524Y48301D01*
D02*
G37*
G36*
X34950Y48150D02*
X34516D01*
Y47805D01*
X34950D01*
Y48150D01*
D02*
G37*
G36*
X36950Y48681D02*
X36874Y48671D01*
X36756Y48623D01*
X36655Y48545D01*
X36577Y48444D01*
X36550Y48378D01*
X35484D01*
Y48595D01*
X35050D01*
Y48200D01*
Y47805D01*
X35484D01*
Y48022D01*
X36550D01*
X36577Y47956D01*
X36655Y47855D01*
X36756Y47777D01*
X36822Y47750D01*
Y46650D01*
X36756Y46623D01*
X36655Y46545D01*
X36577Y46444D01*
X36550Y46378D01*
X35484D01*
Y46595D01*
X35050D01*
Y46200D01*
Y45805D01*
X35484D01*
Y46022D01*
X36550D01*
X36577Y45956D01*
X36655Y45855D01*
X36756Y45777D01*
X36874Y45729D01*
X36950Y45719D01*
Y46200D01*
X37000D01*
Y46250D01*
X37481D01*
X37471Y46326D01*
X37423Y46444D01*
X37345Y46545D01*
X37244Y46623D01*
X37178Y46650D01*
Y47750D01*
X37244Y47777D01*
X37345Y47855D01*
X37423Y47956D01*
X37471Y48074D01*
X37481Y48150D01*
X37000D01*
Y48200D01*
X36950D01*
Y48681D01*
D02*
G37*
G36*
X37050D02*
Y48250D01*
X37481D01*
X37471Y48326D01*
X37423Y48444D01*
X37345Y48545D01*
X37244Y48623D01*
X37126Y48671D01*
X37050Y48681D01*
D02*
G37*
G36*
X34950Y48595D02*
X34516D01*
Y48250D01*
X34950D01*
Y48595D01*
D02*
G37*
G36*
X20134Y48301D02*
X19971Y48285D01*
X19815Y48237D01*
X19671Y48161D01*
X19545Y48057D01*
X19442Y47931D01*
X19365Y47787D01*
X19318Y47631D01*
X19302Y47469D01*
X19318Y47306D01*
X19365Y47150D01*
X19442Y47006D01*
X19545Y46880D01*
X19671Y46776D01*
X19815Y46700D01*
X19971Y46652D01*
X20134Y46636D01*
X20296Y46652D01*
X20452Y46700D01*
X20596Y46776D01*
X20722Y46880D01*
X20826Y47006D01*
X20903Y47150D01*
X20950Y47306D01*
X20966Y47469D01*
X20950Y47631D01*
X20903Y47787D01*
X20826Y47931D01*
X20722Y48057D01*
X20596Y48161D01*
X20452Y48237D01*
X20296Y48285D01*
X20134Y48301D01*
D02*
G37*
G36*
X26787Y46385D02*
X26683Y46372D01*
X26587Y46332D01*
X26505Y46269D01*
X26441Y46186D01*
X26402Y46090D01*
X26388Y45987D01*
X26402Y45883D01*
X26441Y45787D01*
X26505Y45705D01*
X26587Y45641D01*
X26683Y45602D01*
X26787Y45588D01*
X26890Y45602D01*
X26986Y45641D01*
X27069Y45705D01*
X27132Y45787D01*
X27141Y45808D01*
X28365D01*
Y45579D01*
X29313D01*
Y46251D01*
X28365D01*
Y46165D01*
X27141D01*
X27132Y46186D01*
X27069Y46269D01*
X26986Y46332D01*
X26890Y46372D01*
X26787Y46385D01*
D02*
G37*
G36*
X30992Y45750D02*
X30208D01*
X30215Y45697D01*
X30255Y45601D01*
X30318Y45518D01*
X30401Y45455D01*
X30422Y45446D01*
Y45154D01*
X30401Y45145D01*
X30318Y45082D01*
X30309Y45070D01*
X29313D01*
Y45228D01*
X28889D01*
Y44891D01*
Y44555D01*
X29313D01*
Y44713D01*
X30213D01*
X30215Y44697D01*
X30255Y44601D01*
X30318Y44518D01*
X30401Y44455D01*
X30497Y44415D01*
X30550Y44408D01*
Y44800D01*
X30600D01*
Y44850D01*
X30992D01*
X30985Y44903D01*
X30945Y44999D01*
X30882Y45082D01*
X30799Y45145D01*
X30778Y45154D01*
Y45446D01*
X30799Y45455D01*
X30882Y45518D01*
X30945Y45601D01*
X30985Y45697D01*
X30992Y45750D01*
D02*
G37*
G36*
X21691Y47903D02*
X21098D01*
Y47270D01*
X21691D01*
Y47408D01*
X22446D01*
X22608Y47246D01*
Y46341D01*
X22587Y46332D01*
X22505Y46269D01*
X22441Y46186D01*
X22402Y46090D01*
X22388Y45987D01*
X22402Y45883D01*
X22441Y45787D01*
X22505Y45705D01*
X22587Y45641D01*
X22683Y45602D01*
X22787Y45588D01*
X22890Y45602D01*
X22986Y45641D01*
X23069Y45705D01*
X23132Y45787D01*
X23141Y45808D01*
X23247D01*
X23333Y45721D01*
Y44857D01*
X23154Y44678D01*
X23105D01*
X23083Y44723D01*
X23132Y44787D01*
X23172Y44883D01*
X23185Y44987D01*
X23172Y45090D01*
X23132Y45186D01*
X23069Y45269D01*
X22986Y45332D01*
X22890Y45372D01*
X22787Y45385D01*
X22683Y45372D01*
X22663Y45363D01*
X21573Y46453D01*
Y46535D01*
X21691D01*
Y47169D01*
X21098D01*
Y46535D01*
X21216D01*
Y46379D01*
X21230Y46310D01*
X21268Y46253D01*
X22410Y45111D01*
X22402Y45090D01*
X22388Y44987D01*
X22402Y44883D01*
X22441Y44787D01*
X22490Y44723D01*
X22468Y44678D01*
X13220D01*
X13220Y44678D01*
X13152Y44665D01*
X13123Y44646D01*
X13094Y44626D01*
X13094Y44626D01*
X11901Y43433D01*
X11863Y43375D01*
X11849Y43307D01*
Y42772D01*
X11863Y42704D01*
X11901Y42646D01*
X12224Y42324D01*
X12215Y42303D01*
X12201Y42200D01*
X12215Y42097D01*
X12255Y42001D01*
X12318Y41918D01*
X12401Y41855D01*
X12497Y41815D01*
X12600Y41801D01*
X12703Y41815D01*
X12799Y41855D01*
X12882Y41918D01*
X12945Y42001D01*
X12985Y42097D01*
X12999Y42200D01*
X12985Y42303D01*
X12945Y42399D01*
X12882Y42482D01*
X12799Y42545D01*
X12703Y42585D01*
X12600Y42599D01*
X12497Y42585D01*
X12476Y42576D01*
X12206Y42846D01*
Y42980D01*
X12255Y43001D01*
X12318Y42918D01*
X12401Y42855D01*
X12497Y42815D01*
X12600Y42801D01*
X12703Y42815D01*
X12799Y42855D01*
X12882Y42918D01*
X12945Y43001D01*
X12985Y43097D01*
X12999Y43200D01*
X12985Y43303D01*
X12976Y43324D01*
X13684Y44032D01*
X20626D01*
X21734Y42924D01*
X21734Y42924D01*
X21763Y42904D01*
X21792Y42885D01*
X21860Y42872D01*
X21860Y42872D01*
X25850D01*
X25918Y42885D01*
X25976Y42924D01*
X26663Y43610D01*
X26683Y43602D01*
X26787Y43588D01*
X26890Y43602D01*
X26986Y43641D01*
X27069Y43705D01*
X27132Y43787D01*
X27172Y43883D01*
X27185Y43987D01*
X27172Y44090D01*
X27132Y44186D01*
X27069Y44269D01*
X27084Y44314D01*
X27500D01*
X27568Y44327D01*
X27626Y44366D01*
X27973Y44713D01*
X28365D01*
Y44555D01*
X28789D01*
Y44891D01*
Y45228D01*
X28365D01*
Y45070D01*
X27899D01*
X27831Y45056D01*
X27773Y45018D01*
X27426Y44671D01*
X27099D01*
X27077Y44715D01*
X27132Y44787D01*
X27172Y44883D01*
X27185Y44987D01*
X27172Y45090D01*
X27132Y45186D01*
X27069Y45269D01*
X26986Y45332D01*
X26890Y45372D01*
X26787Y45385D01*
X26683Y45372D01*
X26587Y45332D01*
X26505Y45269D01*
X26441Y45186D01*
X26402Y45090D01*
X26388Y44987D01*
X26402Y44883D01*
X26441Y44787D01*
X26496Y44715D01*
X26474Y44671D01*
X24189D01*
X24189Y44671D01*
X24121Y44657D01*
X24063Y44618D01*
X23610Y44165D01*
X23141D01*
X23132Y44186D01*
X23069Y44269D01*
X23061Y44274D01*
X23077Y44322D01*
X23228D01*
X23297Y44335D01*
X23355Y44374D01*
X23638Y44657D01*
X23638Y44657D01*
X23657Y44686D01*
X23677Y44715D01*
X23690Y44783D01*
X23690Y44783D01*
Y45795D01*
X23690Y45795D01*
X23677Y45864D01*
X23638Y45921D01*
X23447Y46113D01*
X23389Y46151D01*
X23320Y46165D01*
X23141D01*
X23132Y46186D01*
X23069Y46269D01*
X22986Y46332D01*
X22965Y46341D01*
Y47320D01*
X22951Y47388D01*
X22913Y47446D01*
X22646Y47713D01*
X22588Y47751D01*
X22520Y47765D01*
X21691D01*
Y47903D01*
D02*
G37*
G36*
X37481Y46150D02*
X37050D01*
Y45719D01*
X37126Y45729D01*
X37244Y45777D01*
X37345Y45855D01*
X37423Y45956D01*
X37471Y46074D01*
X37481Y46150D01*
D02*
G37*
G36*
X33805Y46594D02*
X33420D01*
Y46397D01*
X31018D01*
X31018Y46397D01*
X30950Y46383D01*
X30892Y46344D01*
X30724Y46176D01*
X30703Y46185D01*
X30650Y46192D01*
Y45850D01*
X30992D01*
X30985Y45903D01*
X30976Y45924D01*
X31092Y46040D01*
X33420D01*
Y45843D01*
X33805D01*
Y46218D01*
Y46594D01*
D02*
G37*
G36*
X34950Y46595D02*
X34516D01*
Y46378D01*
X34290D01*
Y46594D01*
X33905D01*
Y46218D01*
Y45843D01*
X34290D01*
Y46022D01*
X34516D01*
Y45805D01*
X34950D01*
Y46200D01*
Y46595D01*
D02*
G37*
G36*
X30550Y46192D02*
X30497Y46185D01*
X30401Y46145D01*
X30318Y46082D01*
X30255Y45999D01*
X30215Y45903D01*
X30208Y45850D01*
X30550D01*
Y46192D01*
D02*
G37*
G36*
X10750Y31395D02*
X10405D01*
Y31050D01*
X10750D01*
Y31395D01*
D02*
G37*
G36*
X11210Y10550D02*
X10868D01*
X10875Y10497D01*
X10915Y10401D01*
X10978Y10318D01*
X11061Y10255D01*
X11157Y10215D01*
X11210Y10208D01*
Y10550D01*
D02*
G37*
G36*
X11652D02*
X11310D01*
Y10208D01*
X11363Y10215D01*
X11459Y10255D01*
X11542Y10318D01*
X11605Y10401D01*
X11645Y10497D01*
X11652Y10550D01*
D02*
G37*
G36*
X33805Y34263D02*
X33443D01*
X33451Y34204D01*
X33493Y34103D01*
X33559Y34017D01*
X33646Y33950D01*
X33747Y33908D01*
X33805Y33901D01*
Y34263D01*
D02*
G37*
G36*
X14428Y37311D02*
X13755D01*
Y36887D01*
X13913D01*
Y34602D01*
X13926Y34534D01*
X13965Y34476D01*
X15517Y32924D01*
X15509Y32903D01*
X15502Y32850D01*
X15844D01*
Y33192D01*
X15791Y33185D01*
X15770Y33176D01*
X14270Y34676D01*
Y36887D01*
X14428D01*
Y37311D01*
D02*
G37*
G36*
X11195Y27795D02*
X10405D01*
Y27005D01*
X11195D01*
Y27795D01*
D02*
G37*
G36*
X36650Y30392D02*
Y30050D01*
X36992D01*
X36985Y30103D01*
X36945Y30199D01*
X36882Y30282D01*
X36799Y30345D01*
X36703Y30385D01*
X36650Y30392D01*
D02*
G37*
G36*
X33905Y34725D02*
Y34313D01*
Y33901D01*
X33963Y33908D01*
X34064Y33950D01*
X34151Y34017D01*
X34152Y34018D01*
X34202Y34021D01*
X35741Y32482D01*
Y30661D01*
X35753Y30600D01*
X35755Y30588D01*
X35797Y30525D01*
X36216Y30106D01*
X36215Y30103D01*
X36208Y30050D01*
X36550D01*
Y30392D01*
X36497Y30385D01*
X36486Y30381D01*
X36125Y30741D01*
Y32561D01*
X36111Y32635D01*
X36069Y32697D01*
X34318Y34449D01*
X34255Y34490D01*
X34243Y34493D01*
X34228Y34496D01*
X34218Y34522D01*
X34151Y34609D01*
X34064Y34675D01*
X33963Y34717D01*
X33905Y34725D01*
D02*
G37*
G36*
X36992Y29950D02*
X36650D01*
Y29608D01*
X36703Y29615D01*
X36799Y29655D01*
X36882Y29718D01*
X36945Y29801D01*
X36985Y29897D01*
X36992Y29950D01*
D02*
G37*
G36*
X11195Y30950D02*
X10850D01*
Y30605D01*
X11195D01*
Y30950D01*
D02*
G37*
G36*
X10750D02*
X10405D01*
Y30605D01*
X10750D01*
Y30950D01*
D02*
G37*
G36*
X14517Y10550D02*
X14175D01*
X14182Y10497D01*
X14222Y10401D01*
X14285Y10318D01*
X14368Y10255D01*
X14464Y10215D01*
X14517Y10208D01*
Y10550D01*
D02*
G37*
G36*
X12513Y27028D02*
X12089D01*
Y26741D01*
X12513D01*
Y27028D01*
D02*
G37*
G36*
X26548Y38239D02*
X26206D01*
X26213Y38185D01*
X26253Y38089D01*
X26317Y38007D01*
X26399Y37943D01*
X26495Y37903D01*
X26548Y37896D01*
Y38239D01*
D02*
G37*
G36*
X33855Y38731D02*
X33747Y38717D01*
X33646Y38675D01*
X33559Y38609D01*
X33493Y38522D01*
X33451Y38421D01*
X33437Y38313D01*
X33451Y38204D01*
X33493Y38103D01*
X33559Y38017D01*
X33646Y37950D01*
X33747Y37908D01*
X33855Y37894D01*
X33963Y37908D01*
X34064Y37950D01*
X34151Y38017D01*
X34218Y38103D01*
X34259Y38204D01*
X34274Y38313D01*
X34259Y38421D01*
X34218Y38522D01*
X34151Y38609D01*
X34064Y38675D01*
X33963Y38717D01*
X33855Y38731D01*
D02*
G37*
G36*
X20589Y38828D02*
X20165D01*
Y38541D01*
X20589D01*
Y38828D01*
D02*
G37*
G36*
X26648Y38681D02*
Y38339D01*
X26991D01*
X26984Y38392D01*
X26944Y38488D01*
X26880Y38570D01*
X26798Y38634D01*
X26702Y38674D01*
X26648Y38681D01*
D02*
G37*
G36*
X20589Y38441D02*
X20165D01*
Y38155D01*
X20589D01*
Y38441D01*
D02*
G37*
G36*
X14428Y37835D02*
X14141D01*
Y37411D01*
X14428D01*
Y37835D01*
D02*
G37*
G36*
X11989Y27028D02*
X11565D01*
Y26778D01*
X10974D01*
X10920Y26850D01*
X10847Y26906D01*
X10761Y26941D01*
X10670Y26953D01*
X10579Y26941D01*
X10493Y26906D01*
X10420Y26850D01*
X10364Y26777D01*
X10329Y26691D01*
X10317Y26600D01*
X10329Y26509D01*
X10364Y26423D01*
X10420Y26350D01*
X10493Y26294D01*
X10579Y26259D01*
X10670Y26247D01*
X10761Y26259D01*
X10847Y26294D01*
X10920Y26350D01*
X10974Y26422D01*
X11565D01*
Y26355D01*
X11989D01*
Y26691D01*
Y27028D01*
D02*
G37*
G36*
X35055Y38711D02*
X34952Y38698D01*
X34856Y38658D01*
X34773Y38595D01*
X34710Y38512D01*
X34670Y38416D01*
X34656Y38313D01*
X34670Y38209D01*
X34710Y38113D01*
X34773Y38031D01*
X34856Y37967D01*
X34877Y37959D01*
Y37587D01*
X33994Y36704D01*
X33963Y36717D01*
X33855Y36731D01*
X33747Y36717D01*
X33646Y36675D01*
X33559Y36609D01*
X33493Y36522D01*
X33451Y36421D01*
X33437Y36313D01*
X33451Y36204D01*
X33493Y36103D01*
X33559Y36017D01*
X33646Y35950D01*
X33747Y35908D01*
X33855Y35894D01*
X33963Y35908D01*
X34064Y35950D01*
X34151Y36017D01*
X34218Y36103D01*
X34259Y36204D01*
X34274Y36313D01*
X34259Y36421D01*
X34247Y36452D01*
X35181Y37386D01*
X35181Y37386D01*
X35220Y37444D01*
X35234Y37513D01*
Y37959D01*
X35254Y37967D01*
X35337Y38031D01*
X35400Y38113D01*
X35440Y38209D01*
X35454Y38313D01*
X35440Y38416D01*
X35400Y38512D01*
X35337Y38595D01*
X35254Y38658D01*
X35158Y38698D01*
X35055Y38711D01*
D02*
G37*
G36*
X32313Y35028D02*
X31889D01*
Y34691D01*
Y34355D01*
X32313D01*
Y34499D01*
X33397D01*
X33458Y34438D01*
X33451Y34421D01*
X33443Y34363D01*
X33805D01*
Y34725D01*
X33747Y34717D01*
X33730Y34710D01*
X33612Y34827D01*
X33550Y34869D01*
X33538Y34871D01*
X33476Y34884D01*
X32313D01*
Y35028D01*
D02*
G37*
G36*
X12992Y41150D02*
X12208D01*
X12215Y41097D01*
X12255Y41001D01*
X12318Y40918D01*
X12401Y40855D01*
X12422Y40846D01*
Y38852D01*
X12435Y38784D01*
X12474Y38726D01*
X13755Y37445D01*
Y37411D01*
X14041D01*
Y37835D01*
X13870D01*
X12778Y38926D01*
Y40846D01*
X12799Y40855D01*
X12882Y40918D01*
X12945Y41001D01*
X12985Y41097D01*
X12992Y41150D01*
D02*
G37*
G36*
X33855Y37731D02*
X33747Y37717D01*
X33646Y37675D01*
X33559Y37609D01*
X33493Y37522D01*
X33451Y37421D01*
X33437Y37313D01*
X33451Y37204D01*
X33493Y37103D01*
X33559Y37017D01*
X33646Y36950D01*
X33747Y36908D01*
X33855Y36894D01*
X33963Y36908D01*
X34064Y36950D01*
X34151Y37017D01*
X34218Y37103D01*
X34259Y37204D01*
X34274Y37313D01*
X34259Y37421D01*
X34218Y37522D01*
X34151Y37609D01*
X34064Y37675D01*
X33963Y37717D01*
X33855Y37731D01*
D02*
G37*
%LPD*%
G36*
X29573Y28033D02*
X29656Y27970D01*
X29677Y27961D01*
Y27793D01*
X29690Y27725D01*
X29729Y27667D01*
X29734Y27663D01*
X31497Y25901D01*
X31481Y25853D01*
X31448Y25849D01*
X31363Y25814D01*
X31290Y25758D01*
X31234Y25684D01*
X31198Y25599D01*
X31186Y25508D01*
X31198Y25419D01*
X30550Y24771D01*
X30511Y24784D01*
X30502Y24790D01*
X30495Y24848D01*
X30459Y24933D01*
X30403Y25006D01*
X30330Y25062D01*
X30245Y25097D01*
X30198Y25104D01*
Y25462D01*
X29526D01*
Y25531D01*
X29474Y25496D01*
X29474Y25496D01*
X29283Y25305D01*
X29244Y25247D01*
X29230Y25179D01*
Y24873D01*
X29184Y24854D01*
X29017Y25021D01*
Y25038D01*
X29175D01*
Y25986D01*
X29017D01*
Y27275D01*
X29456Y27714D01*
X29456Y27714D01*
X29495Y27772D01*
X29508Y27840D01*
X29508Y27840D01*
Y28040D01*
X29556Y28056D01*
X29573Y28033D01*
D02*
G37*
G36*
X34609Y28796D02*
X34672Y28713D01*
X34709Y28685D01*
X34698Y28637D01*
X34689Y28635D01*
X34631Y28596D01*
X34185Y28150D01*
X34146Y28092D01*
X34133Y28024D01*
Y26639D01*
X34146Y26570D01*
X34185Y26512D01*
X34578Y26119D01*
X34569Y26098D01*
X34556Y25995D01*
X34569Y25892D01*
X34609Y25796D01*
X34672Y25713D01*
X34755Y25650D01*
X34851Y25610D01*
X34954Y25597D01*
X35058Y25610D01*
X35154Y25650D01*
X35236Y25713D01*
X35300Y25796D01*
X35339Y25892D01*
X35353Y25995D01*
X35339Y26098D01*
X35300Y26195D01*
X35236Y26277D01*
X35154Y26341D01*
X35058Y26380D01*
X34954Y26394D01*
X34851Y26380D01*
X34830Y26372D01*
X34489Y26713D01*
Y27939D01*
X34530Y27968D01*
X34561Y27957D01*
X34569Y27892D01*
X34609Y27796D01*
X34672Y27713D01*
X34755Y27650D01*
X34851Y27610D01*
X34954Y27597D01*
X35058Y27610D01*
X35154Y27650D01*
X35236Y27713D01*
X35300Y27796D01*
X35339Y27892D01*
X35353Y27995D01*
X35339Y28098D01*
X35300Y28195D01*
X35236Y28277D01*
X35233Y28280D01*
X35235Y28330D01*
X35256Y28344D01*
X35523Y28611D01*
X35573Y28606D01*
X35589Y28581D01*
Y27883D01*
X35078Y27372D01*
X35058Y27380D01*
X34954Y27394D01*
X34851Y27380D01*
X34755Y27341D01*
X34672Y27277D01*
X34609Y27195D01*
X34569Y27098D01*
X34556Y26995D01*
X34569Y26892D01*
X34609Y26796D01*
X34672Y26713D01*
X34755Y26650D01*
X34851Y26610D01*
X34954Y26597D01*
X35058Y26610D01*
X35154Y26650D01*
X35236Y26713D01*
X35300Y26796D01*
X35339Y26892D01*
X35353Y26995D01*
X35339Y27098D01*
X35331Y27119D01*
X35872Y27660D01*
X35918Y27641D01*
Y22725D01*
X35402Y22210D01*
X35331Y22219D01*
X35239Y22207D01*
X35154Y22172D01*
X35081Y22116D01*
X35025Y22043D01*
X34990Y21958D01*
X34978Y21866D01*
X34987Y21794D01*
X34876Y21684D01*
X34113D01*
Y21828D01*
X33689D01*
Y21491D01*
X33589D01*
Y21828D01*
X33270D01*
X33250Y21874D01*
X33555Y22179D01*
X34113D01*
Y22851D01*
X33818D01*
Y24585D01*
X33805Y24653D01*
X33789Y24676D01*
X33766Y24711D01*
X33766Y24711D01*
X30558Y27919D01*
Y27988D01*
X30603Y28010D01*
X30656Y27970D01*
X30752Y27930D01*
X30855Y27916D01*
X30958Y27930D01*
X31054Y27970D01*
X31137Y28033D01*
X31200Y28116D01*
X31240Y28212D01*
X31254Y28315D01*
X31240Y28418D01*
X31232Y28439D01*
X31609Y28817D01*
X34600D01*
X34609Y28796D01*
D02*
G37*
G36*
X22512Y44274D02*
X22505Y44269D01*
X22441Y44186D01*
X22402Y44090D01*
X22395Y44037D01*
X22787D01*
Y43987D01*
X22837D01*
Y43595D01*
X22890Y43602D01*
X22986Y43641D01*
X23069Y43705D01*
X23132Y43787D01*
X23141Y43808D01*
X23683D01*
X23752Y43822D01*
X23810Y43860D01*
X24263Y44314D01*
X26489D01*
X26505Y44269D01*
X26441Y44186D01*
X26402Y44090D01*
X26388Y43987D01*
X26402Y43883D01*
X26410Y43863D01*
X25776Y43228D01*
X21934D01*
X20887Y44275D01*
X20906Y44322D01*
X22496D01*
X22512Y44274D01*
D02*
G37*
G36*
X30960Y17197D02*
X30941Y17151D01*
X30902D01*
Y16203D01*
X31025D01*
Y15855D01*
X30611D01*
Y14080D01*
X31731D01*
X31750Y14034D01*
X31613Y13897D01*
X30651D01*
X30493Y14054D01*
X30493Y15091D01*
X30480Y15159D01*
X30441Y15217D01*
X30441Y15217D01*
X30157Y15500D01*
Y15575D01*
X29683D01*
Y15625D01*
X29633D01*
Y15961D01*
X29308D01*
Y16557D01*
X29602Y16851D01*
X29602Y16851D01*
X29641Y16909D01*
X29655Y16977D01*
X29655Y16977D01*
Y17758D01*
X29701Y17777D01*
X30036Y17442D01*
Y17151D01*
X29878D01*
Y16727D01*
X30550D01*
Y17151D01*
X30393D01*
Y17516D01*
X30379Y17584D01*
X30340Y17642D01*
X29905Y18078D01*
Y18187D01*
X29951Y18206D01*
X30960Y17197D01*
D02*
G37*
G36*
X31661Y38965D02*
Y36051D01*
X31365D01*
Y35483D01*
X31355Y35479D01*
X31313Y35506D01*
Y38447D01*
X31451D01*
Y38694D01*
X31135D01*
Y38794D01*
X31451D01*
Y39041D01*
D01*
Y39041D01*
X31460Y39050D01*
X31463D01*
Y39097D01*
X31509Y39116D01*
X31661Y38965D01*
D02*
G37*
G36*
X22365Y25093D02*
Y24941D01*
X23313D01*
Y25045D01*
X23355Y25073D01*
X23389Y25059D01*
X23480Y25047D01*
X23569Y25059D01*
X23949Y24679D01*
X24007Y24640D01*
X24075Y24627D01*
X27889D01*
X27917Y24585D01*
X27908Y24564D01*
X25862D01*
X25794Y24551D01*
X25736Y24512D01*
X25736Y24512D01*
X25542Y24318D01*
X25453Y24329D01*
X25361Y24317D01*
X25276Y24282D01*
X25203Y24226D01*
X25147Y24153D01*
X25112Y24068D01*
X25100Y23976D01*
X25112Y23885D01*
X25147Y23800D01*
X25203Y23727D01*
X25276Y23671D01*
X25361Y23635D01*
X25453Y23623D01*
X25544Y23635D01*
X25629Y23671D01*
X25702Y23727D01*
X25758Y23800D01*
X25794Y23885D01*
X25806Y23976D01*
X25794Y24065D01*
X25936Y24207D01*
X27847D01*
X27970Y24084D01*
Y24002D01*
X27648D01*
Y23855D01*
X26098D01*
X26029Y23841D01*
X25971Y23802D01*
X25971Y23802D01*
X25713Y23545D01*
X24129D01*
X23715Y23958D01*
X23727Y24047D01*
X23715Y24139D01*
X23680Y24224D01*
X23624Y24297D01*
X23551Y24353D01*
X23465Y24388D01*
X23374Y24400D01*
X23283Y24388D01*
X23198Y24353D01*
X23124Y24297D01*
X23079Y24238D01*
X23032Y24254D01*
Y24555D01*
X23313D01*
Y24841D01*
X22365D01*
Y24555D01*
X22647D01*
Y23880D01*
X22599Y23865D01*
X22599Y23866D01*
X22599Y23866D01*
X21903Y24562D01*
X21925Y24607D01*
X21949Y24604D01*
X22040Y24616D01*
X22125Y24651D01*
X22198Y24707D01*
X22255Y24780D01*
X22290Y24865D01*
X22302Y24957D01*
X22290Y25048D01*
X22255Y25133D01*
X22253Y25135D01*
X22291Y25168D01*
X22365Y25093D01*
D02*
G37*
G36*
X15424Y30625D02*
X15424D01*
Y30428D01*
X15800D01*
Y30378D01*
X15850D01*
Y30130D01*
X16176D01*
Y30130D01*
X16184D01*
X16219Y30095D01*
Y29700D01*
X16176D01*
Y29700D01*
X15424D01*
Y29614D01*
X15333D01*
Y29752D01*
X15215D01*
Y29850D01*
X15333D01*
Y30483D01*
D01*
Y30483D01*
X15333Y30483D01*
Y30519D01*
X15333D01*
Y30657D01*
X15424D01*
Y30625D01*
D02*
G37*
G36*
X34559Y32138D02*
Y31600D01*
X35300D01*
Y31272D01*
X35253Y31256D01*
X35236Y31277D01*
X35154Y31341D01*
X35058Y31380D01*
X34954Y31394D01*
X34851Y31380D01*
X34755Y31341D01*
X34672Y31277D01*
X34609Y31195D01*
X34569Y31098D01*
X34556Y30995D01*
X34569Y30892D01*
X34609Y30796D01*
X34672Y30713D01*
X34755Y30650D01*
X34851Y30610D01*
X34954Y30597D01*
X35058Y30610D01*
X35154Y30650D01*
X35236Y30713D01*
X35253Y30735D01*
X35300Y30719D01*
Y30301D01*
X35307Y30265D01*
X35262Y30244D01*
X35236Y30277D01*
X35154Y30341D01*
X35058Y30380D01*
X34954Y30394D01*
X34851Y30380D01*
X34755Y30341D01*
X34672Y30277D01*
X34609Y30195D01*
X34569Y30098D01*
X34560Y30024D01*
X32382D01*
X32366Y30072D01*
X32419Y30113D01*
X32475Y30186D01*
X32510Y30271D01*
X32522Y30362D01*
X32510Y30454D01*
X32475Y30539D01*
X32419Y30612D01*
X32346Y30668D01*
X32261Y30703D01*
X32169Y30715D01*
X32078Y30703D01*
X31993Y30668D01*
X31920Y30612D01*
X31865Y30541D01*
X31080D01*
X31064Y30588D01*
X31079Y30599D01*
X31142Y30682D01*
X31182Y30778D01*
X31189Y30831D01*
X30405D01*
X30412Y30778D01*
X30452Y30682D01*
X30515Y30599D01*
X30530Y30588D01*
X30514Y30541D01*
X30080D01*
X30064Y30588D01*
X30079Y30599D01*
X30142Y30682D01*
X30182Y30778D01*
X30196Y30881D01*
X30182Y30984D01*
X30142Y31080D01*
X30079Y31163D01*
X29996Y31226D01*
X29900Y31266D01*
X29797Y31280D01*
X29694Y31266D01*
X29598Y31226D01*
X29515Y31163D01*
X29452Y31080D01*
X29412Y30984D01*
X29398Y30881D01*
X29412Y30778D01*
X29452Y30682D01*
X29515Y30599D01*
X29530Y30588D01*
X29513Y30541D01*
X29080D01*
X29064Y30588D01*
X29079Y30599D01*
X29142Y30682D01*
X29182Y30778D01*
X29196Y30881D01*
X29182Y30984D01*
X29142Y31080D01*
X29079Y31163D01*
X28996Y31226D01*
X28900Y31266D01*
X28797Y31280D01*
X28694Y31266D01*
X28598Y31226D01*
X28515Y31163D01*
X28452Y31080D01*
X28412Y30984D01*
X28398Y30881D01*
X28412Y30778D01*
X28452Y30682D01*
X28515Y30599D01*
X28530Y30588D01*
X28514Y30541D01*
X28192D01*
Y31276D01*
X28057D01*
X28041Y31324D01*
X28050Y31330D01*
X28106Y31403D01*
X28141Y31489D01*
X28153Y31580D01*
X28141Y31669D01*
X28396Y31924D01*
X28396Y31924D01*
X28435Y31982D01*
X28442Y32019D01*
X28491Y32030D01*
X28515Y31999D01*
X28598Y31936D01*
X28694Y31896D01*
X28797Y31882D01*
X28900Y31896D01*
X28996Y31936D01*
X29079Y31999D01*
X29142Y32082D01*
X29182Y32178D01*
X29196Y32281D01*
X29182Y32384D01*
X29142Y32480D01*
X29079Y32563D01*
X29092Y32602D01*
X29488D01*
X29510Y32557D01*
X29452Y32480D01*
X29412Y32384D01*
X29398Y32281D01*
X29412Y32178D01*
X29452Y32082D01*
X29515Y31999D01*
X29598Y31936D01*
X29694Y31896D01*
X29797Y31882D01*
X29900Y31896D01*
X29996Y31936D01*
X30079Y31999D01*
X30142Y32082D01*
X30182Y32178D01*
X30196Y32281D01*
X30182Y32384D01*
X30142Y32480D01*
X30079Y32563D01*
X30092Y32602D01*
X30488D01*
X30510Y32557D01*
X30452Y32480D01*
X30412Y32384D01*
X30398Y32281D01*
X30412Y32178D01*
X30452Y32082D01*
X30515Y31999D01*
X30598Y31936D01*
X30694Y31896D01*
X30797Y31882D01*
X30900Y31896D01*
X30996Y31936D01*
X31079Y31999D01*
X31142Y32082D01*
X31182Y32178D01*
X31196Y32281D01*
X31182Y32384D01*
X31142Y32480D01*
X31079Y32563D01*
X31092Y32602D01*
X34096D01*
X34559Y32138D01*
D02*
G37*
%LPC*%
G36*
X30747Y31273D02*
X30694Y31266D01*
X30598Y31226D01*
X30515Y31163D01*
X30452Y31080D01*
X30412Y30984D01*
X30405Y30931D01*
X30747D01*
Y31273D01*
D02*
G37*
G36*
X15750Y30328D02*
X15424D01*
Y30130D01*
X15750D01*
Y30328D01*
D02*
G37*
G36*
X22737Y43937D02*
X22395D01*
X22402Y43883D01*
X22441Y43787D01*
X22505Y43705D01*
X22587Y43641D01*
X22683Y43602D01*
X22737Y43595D01*
Y43937D01*
D02*
G37*
G36*
X30847Y31273D02*
Y30931D01*
X31189D01*
X31182Y30984D01*
X31142Y31080D01*
X31079Y31163D01*
X30996Y31226D01*
X30900Y31266D01*
X30847Y31273D01*
D02*
G37*
G36*
X30528Y26636D02*
X30436Y26624D01*
X30351Y26589D01*
X30278Y26533D01*
X30222Y26460D01*
X30187Y26375D01*
X30175Y26283D01*
X30186Y26194D01*
X29978Y25986D01*
X29912D01*
Y25562D01*
X30198D01*
Y25702D01*
X30439Y25942D01*
X30528Y25930D01*
X30619Y25942D01*
X30704Y25978D01*
X30777Y26034D01*
X30833Y26107D01*
X30869Y26192D01*
X30881Y26283D01*
X30869Y26375D01*
X30833Y26460D01*
X30777Y26533D01*
X30704Y26589D01*
X30619Y26624D01*
X30528Y26636D01*
D02*
G37*
G36*
X34954Y24394D02*
X34851Y24380D01*
X34755Y24341D01*
X34672Y24277D01*
X34609Y24195D01*
X34569Y24098D01*
X34556Y23995D01*
X34569Y23892D01*
X34609Y23796D01*
X34672Y23713D01*
X34755Y23650D01*
X34851Y23610D01*
X34954Y23597D01*
X35058Y23610D01*
X35154Y23650D01*
X35236Y23713D01*
X35300Y23796D01*
X35339Y23892D01*
X35353Y23995D01*
X35339Y24098D01*
X35300Y24195D01*
X35236Y24277D01*
X35154Y24341D01*
X35058Y24380D01*
X34954Y24394D01*
D02*
G37*
G36*
X30550Y16627D02*
X29878D01*
Y16203D01*
X29944D01*
X29963Y16157D01*
X29767Y15961D01*
X29733D01*
Y15675D01*
X30157D01*
Y15847D01*
X30340Y16030D01*
X30379Y16088D01*
X30393Y16156D01*
Y16203D01*
X30550D01*
Y16627D01*
D02*
G37*
G36*
X29812Y25986D02*
X29526D01*
Y25562D01*
X29812D01*
Y25986D01*
D02*
G37*
G36*
X34954Y25394D02*
X34851Y25380D01*
X34755Y25341D01*
X34672Y25277D01*
X34609Y25195D01*
X34569Y25098D01*
X34556Y24995D01*
X34569Y24892D01*
X34609Y24796D01*
X34672Y24713D01*
X34755Y24650D01*
X34851Y24610D01*
X34954Y24597D01*
X35058Y24610D01*
X35154Y24650D01*
X35236Y24713D01*
X35300Y24796D01*
X35339Y24892D01*
X35353Y24995D01*
X35339Y25098D01*
X35300Y25195D01*
X35236Y25277D01*
X35154Y25341D01*
X35058Y25380D01*
X34954Y25394D01*
D02*
G37*
%LPD*%
D10*
X21697Y23011D02*
X21897D01*
X21797D02*
Y23411D01*
X21721Y23357D01*
X25343Y12902D02*
X25658D01*
X25855D02*
Y12548D01*
X25973Y12430D01*
X25973D01*
X26091Y12548D01*
Y12902D01*
X25580Y12666D02*
X25658Y12587D01*
Y12509D01*
X25580Y12430D01*
X25343D01*
Y12666D02*
Y12824D01*
Y12902D01*
Y12666D02*
X25580D01*
X29592Y12814D02*
X29632Y12854D01*
X29868D01*
X29907Y12814D01*
Y12539D02*
Y12420D01*
X29868Y12381D01*
X29632D01*
X29592Y12420D01*
Y12814D01*
X29828Y12539D02*
X29907D01*
X30104Y12381D02*
Y12854D01*
X30340Y12381D01*
Y12854D01*
X30537D02*
X30694D01*
X30734Y12814D01*
Y12420D01*
X30694Y12381D01*
X30537D01*
Y12854D01*
X32004Y24211D02*
X32204D01*
X32104D02*
Y24611D01*
X32028Y24557D01*
X11673Y46666D02*
X11740Y46739D01*
X11796Y46821D01*
X11841Y46910D01*
X11874Y47004D01*
X11893Y47101D01*
X11900Y47200D01*
X11893Y47299D01*
X11874Y47396D01*
X11841Y47490D01*
X11796Y47579D01*
X11740Y47661D01*
X11673Y47734D01*
X11598Y47798D01*
X11514Y47852D01*
X11424Y47894D01*
X11329Y47923D01*
X11231Y47940D01*
X11132Y47943D01*
X11033Y47933D01*
X10936Y47910D01*
X10844Y47874D01*
X10757Y47827D01*
X10677Y47768D01*
X10605Y47699D01*
X10544Y47621D01*
X10493Y47535D01*
X10455Y47444D01*
X10428Y47348D01*
X10415Y47250D01*
Y47150D01*
X10428Y47052D01*
X10455Y46956D01*
X10493Y46865D01*
X10544Y46779D01*
X10605Y46701D01*
X10677Y46632D01*
X10757Y46573D01*
X10844Y46526D01*
X10936Y46490D01*
X11033Y46467D01*
X11132Y46457D01*
X11231Y46460D01*
X11329Y46477D01*
X11424Y46506D01*
X11514Y46548D01*
X11598Y46602D01*
X11673Y46666D01*
X11300Y46800D02*
Y47500D01*
X11396Y47526D01*
X11494Y47513D01*
X11579Y47462D01*
X11638Y47383D01*
X11662Y47286D01*
X11646Y47188D01*
X11593Y47104D01*
X11512Y47047D01*
X11415Y47026D01*
X11318Y47045D01*
X11171Y47476D02*
X11086Y47529D01*
X10988Y47557D01*
X10887Y47557D01*
X10790Y47529D01*
X10704Y47475D01*
X10637Y47400D01*
X10592Y47309D01*
X10575Y47210D01*
X10585Y47109D01*
X10623Y47015D01*
X10684Y46936D01*
X10766Y46876D01*
X10861Y46841D01*
X10961Y46833D01*
X11060Y46853D01*
X11150Y46900D01*
X13050Y48200D02*
Y48600D01*
X12850D01*
Y48200D01*
X13050D01*
X13200D02*
X13400D01*
X13450Y48250D01*
Y48350D01*
X13400Y48400D01*
X13250D01*
X13200Y48450D01*
Y48550D01*
X13250Y48600D01*
X13450D01*
X13600D02*
Y48250D01*
X13650Y48200D01*
X13750D01*
X13800Y48250D01*
Y48600D01*
X13950D02*
X14150Y48200D01*
Y48600D01*
X13950D02*
Y48200D01*
X12700D02*
Y48600D01*
X12550Y48450D01*
X12400Y48600D01*
Y48200D01*
X12250D02*
Y48550D01*
X12200Y48600D01*
X12000D01*
Y48200D01*
Y48400D02*
X12250D01*
X11850Y48200D02*
X11650D01*
X11600Y48250D01*
Y48550D01*
X11650Y48600D01*
X11850D01*
X11450D02*
X11250D01*
X11350D02*
Y48200D01*
X11250D02*
X11450D01*
X11150D02*
X11000D01*
Y48600D01*
X10900D02*
X10750D01*
Y48200D01*
X10900D01*
X10850Y48400D02*
X10750D01*
X10550D02*
X10400D01*
Y48200D02*
Y48600D01*
X10600D02*
Y48200D01*
D11*
X26518Y11153D02*
D03*
X27542D02*
D03*
X28518D02*
D03*
X29542D02*
D03*
X33238Y16677D02*
D03*
X32214D02*
D03*
X31238Y16677D02*
D03*
X30214D02*
D03*
X29862Y25512D02*
D03*
X28839D02*
D03*
X15115Y37361D02*
D03*
X14091D02*
D03*
D12*
X20211Y22926D02*
D03*
X19896D02*
D03*
X19581D02*
D03*
X19266D02*
D03*
X18951D02*
D03*
X18637D02*
D03*
X18322D02*
D03*
X18007D02*
D03*
X17692D02*
D03*
X17377D02*
D03*
X17062D02*
D03*
X20211Y27868D02*
D03*
X19896D02*
D03*
X19581D02*
D03*
X19266D02*
D03*
X18951D02*
D03*
X18637Y27872D02*
D03*
X18322D02*
D03*
X18007D02*
D03*
X17692D02*
D03*
X17377Y27872D02*
D03*
X17062Y27872D02*
D03*
X27846Y18872D02*
D03*
X28161D02*
D03*
X28459D02*
D03*
X28791D02*
D03*
X29106D02*
D03*
X29421D02*
D03*
X29736D02*
D03*
X30051D02*
D03*
X30366D02*
D03*
X30681D02*
D03*
X30996D02*
D03*
Y23597D02*
D03*
X30681D02*
D03*
X30366D02*
D03*
X30051D02*
D03*
X29736D02*
D03*
X29421D02*
D03*
X29106D02*
D03*
X28791D02*
D03*
X28459D02*
D03*
X28161D02*
D03*
X27846D02*
D03*
D13*
X21062Y23824D02*
D03*
Y24139D02*
D03*
Y24454D02*
D03*
Y24769D02*
D03*
Y25084D02*
D03*
Y25399D02*
D03*
Y25714D02*
D03*
Y26029D02*
D03*
X21057Y26362D02*
D03*
Y26659D02*
D03*
Y26974D02*
D03*
X16175D02*
D03*
Y26659D02*
D03*
Y26362D02*
D03*
Y26029D02*
D03*
Y25714D02*
D03*
Y25399D02*
D03*
Y25084D02*
D03*
Y24769D02*
D03*
Y24454D02*
D03*
Y24139D02*
D03*
Y23824D02*
D03*
X27047Y19680D02*
D03*
Y19995D02*
D03*
Y20310D02*
D03*
Y20625D02*
D03*
Y20940D02*
D03*
Y21255D02*
D03*
Y21570D02*
D03*
Y21885D02*
D03*
Y22200D02*
D03*
Y22515D02*
D03*
Y22830D02*
D03*
X31796Y19680D02*
D03*
Y19995D02*
D03*
Y20310D02*
D03*
Y20625D02*
D03*
Y20940D02*
D03*
Y21255D02*
D03*
Y21570D02*
D03*
Y21885D02*
D03*
Y22200D02*
D03*
Y22515D02*
D03*
Y22830D02*
D03*
D14*
X12843Y23116D02*
D03*
Y24139D02*
D03*
X12831Y25085D02*
D03*
Y26109D02*
D03*
X12039Y26691D02*
D03*
Y27715D02*
D03*
X20674Y35132D02*
D03*
Y36156D02*
D03*
X20639Y38491D02*
D03*
Y39515D02*
D03*
X28839Y44891D02*
D03*
Y45915D02*
D03*
X31839Y35715D02*
D03*
Y34691D02*
D03*
X22839Y25915D02*
D03*
Y24891D02*
D03*
X25314Y21981D02*
D03*
Y20957D02*
D03*
X29683Y15625D02*
D03*
Y14602D02*
D03*
X33639Y21491D02*
D03*
Y22515D02*
D03*
D15*
X11000Y23200D02*
D03*
Y25326D02*
D03*
D16*
X31203Y14968D02*
D03*
X33329D02*
D03*
D17*
X11260Y12600D02*
D03*
X14567Y12600D02*
D03*
X18544Y11425D02*
D03*
X20344Y11425D02*
D03*
X22144D02*
D03*
X26902Y12380D02*
D03*
Y13580D02*
D03*
X36000Y11800D02*
D03*
X36400Y20600D02*
D03*
X30855Y29315D02*
D03*
X27797Y30881D02*
D03*
X30797Y33281D02*
D03*
X34954Y31995D02*
D03*
X36600Y32000D02*
D03*
X35055Y40313D02*
D03*
X30600Y42800D02*
D03*
X20000Y31000D02*
D03*
X17894Y32800D02*
D03*
X15400Y35600D02*
D03*
X10800Y31000D02*
D03*
Y27400D02*
D03*
X10847Y20567D02*
D03*
Y19367D02*
D03*
Y18228D02*
D03*
X12913Y16000D02*
D03*
X12225Y18228D02*
D03*
Y19367D02*
D03*
Y20567D02*
D03*
X16220Y16000D02*
D03*
D18*
X14071Y18228D02*
D03*
Y19367D02*
D03*
Y20567D02*
D03*
X13402D02*
D03*
Y19367D02*
D03*
Y18228D02*
D03*
X31135Y38744D02*
D03*
X31146Y39346D02*
D03*
X30477D02*
D03*
X30465Y38744D02*
D03*
D19*
X15036Y28766D02*
D03*
Y29435D02*
D03*
Y30166D02*
D03*
Y30835D02*
D03*
X17600Y30735D02*
D03*
Y30065D02*
D03*
X30600Y41102D02*
D03*
Y41772D02*
D03*
X31200D02*
D03*
Y41102D02*
D03*
X31870Y42665D02*
D03*
Y43335D02*
D03*
X21395Y47587D02*
D03*
Y46852D02*
D03*
D20*
X15800Y29452D02*
D03*
Y30378D02*
D03*
D21*
X11260Y11600D02*
X11260Y11600D01*
X17719D01*
X18544Y12425D01*
X17339Y13631D01*
Y14512D01*
X16850Y15000D01*
X12913D01*
X14071Y18228D02*
X21029D01*
X19988Y20567D02*
X22138Y22717D01*
Y23528D01*
X21526Y24139D01*
X21062D01*
Y24454D02*
X21758D01*
X22472Y23740D01*
Y22465D01*
X19375Y19367D01*
X14071D01*
Y20567D02*
X19988D01*
X19520Y21320D02*
X20860Y22660D01*
Y23824D01*
X21062D01*
X22839Y24891D02*
X22900D01*
X23374Y24047D02*
X24055Y23366D01*
X25787D01*
X26098Y23676D01*
X27834D01*
X28149D02*
Y24158D01*
X27921Y24386D01*
X25862D01*
X25453Y23976D01*
X25320Y21981D02*
X24939D01*
X25001Y20957D02*
X25314D01*
X25390Y19740D02*
Y16634D01*
X26804Y15220D01*
X28600D01*
X28870Y15490D01*
Y16843D01*
X29226Y17199D01*
Y17945D01*
X29094Y18077D01*
Y18793D01*
X29409D02*
Y18395D01*
X29476Y18327D01*
Y16977D01*
X29130Y16631D01*
Y14772D01*
X29300Y14602D01*
X29683D01*
X29850Y13516D02*
X30315Y13980D01*
X30577Y13718D01*
X31687D01*
X32214Y14246D01*
Y16677D01*
X33238D02*
X33329Y16586D01*
Y14968D01*
X34315Y13485D02*
Y17618D01*
X33693Y18240D01*
X31200D01*
X30983Y18457D01*
Y18793D01*
X31138Y17638D02*
X32697D01*
X33238Y17097D01*
Y16677D01*
X31238Y17172D02*
Y16677D01*
X31203Y16643D01*
Y14968D01*
X30315Y15091D02*
X30315Y13980D01*
X30315Y15091D02*
X29780Y15625D01*
X29683D01*
X30214Y16156D01*
Y16677D01*
Y17516D01*
X29726Y18004D01*
Y18775D01*
X29724Y18777D01*
Y18793D01*
X30039D02*
Y18371D01*
X31238Y17172D01*
X31138Y17638D02*
X30354Y18422D01*
Y18793D01*
X31882Y19996D02*
X34004D01*
X36400Y17600D01*
Y18600D02*
X34689Y20311D01*
X31882D01*
Y20626D02*
X35374D01*
X36400Y19600D01*
Y20600D02*
X36059Y20940D01*
X31882D01*
X32695Y21570D02*
X33639Y22515D01*
X33640D01*
Y24585D01*
X30380Y27845D01*
Y28600D01*
X30170Y28810D01*
X29540D01*
X29330Y28600D01*
Y27840D01*
X28839Y27349D01*
Y25901D01*
Y25658D01*
X24152D01*
X23895Y25915D01*
X22839D01*
X22639Y25714D01*
X21062D01*
Y25084D02*
X21821D01*
X21949Y24957D01*
X21518Y24769D02*
X21062D01*
X20211Y22926D02*
Y22481D01*
X20000Y22270D01*
X19800D01*
X19266Y22926D02*
Y21862D01*
X18960Y21555D01*
Y21050D01*
X18142Y21091D02*
X18951Y21900D01*
Y22926D01*
X18637D02*
Y21940D01*
X18346Y21650D01*
X16693D01*
X17157Y21091D02*
X18142D01*
X18007Y22423D02*
Y22926D01*
X18322D02*
Y22419D01*
X17692Y22143D02*
Y22926D01*
X17377D02*
Y22282D01*
X17692Y22143D02*
X17752Y22083D01*
X16175Y24139D02*
X13761D01*
X13626Y24004D01*
X13158Y24454D02*
X16175D01*
Y24769D02*
X15407D01*
X15354Y24717D01*
X14146D01*
X13777Y25085D01*
X12831D01*
X12590Y25326D01*
X11000D01*
X11174Y25152D01*
X11939Y24139D02*
X12843D01*
X13158Y24454D01*
X14598Y25005D02*
X15289D01*
X15369Y25084D01*
X16175D01*
Y25399D02*
X14976D01*
X14940Y25430D02*
X14621D01*
X12336Y27715D01*
X12039D01*
Y26691D02*
X12248D01*
X12831Y26109D01*
X13494D01*
X14598Y25005D01*
X15309Y25714D02*
X16175D01*
Y26029D02*
X15408D01*
X12037Y29400D01*
X10800D01*
Y28400D02*
X12624D01*
X15309Y25714D01*
X16175Y26362D02*
X15504D01*
X11638Y30228D01*
Y31162D01*
X10800Y32000D01*
X11929Y31871D02*
X10800Y33000D01*
Y34000D02*
X12260Y32540D01*
Y30488D01*
X15774Y26974D01*
X16175D01*
Y26659D02*
X15660D01*
X11929Y30390D01*
Y31871D01*
X12587Y30614D02*
Y33213D01*
X10800Y35000D01*
X12600Y38852D02*
X14091Y37361D01*
Y34602D01*
X15894Y32800D01*
X15036Y31943D01*
Y30835D01*
X15594D01*
X15800Y30629D01*
Y30348D01*
X15036Y30166D02*
Y29435D01*
X15787D01*
X15800Y29422D02*
Y28208D01*
X16136Y27872D01*
X17062D01*
X17377Y27872D02*
Y28323D01*
X17340Y28360D01*
X16400D01*
X17692Y27872D02*
Y28387D01*
X17375Y28704D01*
X17020D01*
X16398Y29327D01*
Y34874D01*
X17124Y35600D01*
X17400D01*
X18400D02*
X18956Y36156D01*
X20674D01*
X21600D01*
X22046Y36602D01*
Y38321D01*
X24551Y40835D02*
X25038Y41321D01*
X25046D02*
X25054D01*
X25512Y41780D01*
X29107D01*
X29598Y41289D01*
X29598Y41289D02*
X30082Y41772D01*
X31583D01*
X31839Y41515D01*
Y39654D01*
X31532Y39346D01*
X31839Y39039D01*
Y35715D01*
X31860Y35694D01*
X31839Y35715D02*
X33453D01*
X33855Y35313D01*
X35022D01*
X37209Y33126D01*
Y31609D01*
X36600Y31000D01*
Y30000D02*
X36583D01*
X35768Y30012D02*
X35478Y30301D01*
Y32400D01*
X34567Y33311D01*
X32142D01*
X31429Y34024D01*
X27404D01*
X25793Y35634D01*
X19996D01*
X20674Y35132D02*
X20518Y34976D01*
X21929Y34638D02*
X22780Y33787D01*
Y31764D01*
X22016Y31000D01*
X22000D01*
X21000Y31996D02*
Y32000D01*
Y31996D02*
X20512Y31508D01*
X17504D01*
X17061Y31065D01*
Y29706D01*
X17264Y29504D01*
X18311D01*
X18580Y29235D01*
Y28310D01*
X18637Y28253D01*
Y27872D01*
X18322D02*
Y28824D01*
X18071Y29075D01*
X18840Y29403D02*
X19020Y29583D01*
X20819D01*
X20996Y29406D01*
X21224Y28303D02*
X22602D01*
X22614Y28315D02*
X28855D01*
X28510Y28970D02*
X28855Y29315D01*
X28510Y28970D02*
X23510D01*
X23085Y27720D02*
X22460D01*
X21399Y26659D01*
X21057D01*
Y26362D02*
X21709D01*
X21969Y26622D01*
X21057Y26974D02*
Y27516D01*
X21062Y26029D02*
X21989D01*
X22290Y26330D01*
X25880D01*
X25400Y25230D02*
X28020D01*
X28779Y24471D01*
Y23681D01*
X28446Y23676D02*
Y24344D01*
X27985Y24805D01*
X24075D01*
X23480Y25400D01*
X26090Y22200D02*
X26940D01*
X26936Y20940D02*
X26370D01*
X26154Y20724D01*
X26591Y20626D02*
X26936D01*
Y20311D02*
X26370D01*
X26413Y19996D02*
X26936D01*
X25992Y20055D02*
X26280Y19767D01*
Y16610D01*
X27200Y15690D01*
X28440D01*
X27845Y16120D02*
Y17369D01*
X28125Y17649D01*
Y18727D01*
X28149D01*
Y18793D01*
X28446D02*
Y18348D01*
X28375Y18277D01*
Y17150D01*
X28779Y17671D02*
X28800Y17650D01*
X28779Y17671D02*
Y18793D01*
X27834D02*
Y18400D01*
X27074Y17640D01*
X26936Y19251D02*
Y19681D01*
X30039Y23681D02*
Y24347D01*
X30154Y24756D02*
X30354Y24556D01*
Y23681D01*
X30669D02*
Y24637D01*
X31539Y25508D01*
X31969Y25681D02*
X29857Y27793D01*
X29855D01*
Y28315D01*
X30855D02*
X31535Y28995D01*
X34954D01*
X34805Y29846D02*
X34954Y29995D01*
X34805Y29846D02*
X18930D01*
X18710Y30065D01*
X17600D01*
Y30735D02*
X18454D01*
X19093Y30096D01*
X26001D01*
X26310Y30406D01*
X26583Y30906D02*
X27126Y30362D01*
X32169D01*
X31010Y29470D02*
X35200D01*
X35425Y29245D01*
Y28765D01*
X35130Y28470D01*
X34757D01*
X34311Y28024D01*
Y26639D01*
X34954Y25995D01*
X35768Y27809D02*
Y30012D01*
X34954Y31995D02*
X34170Y32780D01*
X28600D01*
X28270Y32450D01*
Y32050D01*
X27800Y31580D01*
X26583Y30906D02*
X26031D01*
Y30901D01*
X25476Y30346D01*
X20654D01*
X20000Y31000D01*
X19266Y29140D02*
Y27868D01*
X19581D02*
Y28215D01*
X19945Y28579D01*
X18840Y29403D02*
Y28740D01*
X18951Y28629D01*
Y27868D01*
X18007Y27872D02*
Y28478D01*
X17374Y29110D01*
X17138D01*
X16724Y29524D01*
Y32631D01*
X16894Y32800D01*
X16917Y34630D02*
X21921D01*
X24110Y33281D02*
X27797D01*
X24110D02*
X24110Y33281D01*
X21224Y28303D02*
X21189Y28268D01*
X15036Y28766D02*
X14435D01*
X12587Y30614D01*
X10670Y26600D02*
X11948D01*
X12039Y26691D01*
X11939Y24139D02*
X11000Y23200D01*
X12225Y20567D02*
X13402D01*
Y19367D02*
X12225D01*
Y18228D02*
X13402D01*
X18544Y13425D02*
X19476Y14358D01*
Y16968D01*
X20344Y15425D02*
X20819Y14950D01*
X22400D01*
X22620Y14730D01*
Y12901D01*
X22144Y12425D01*
Y13425D02*
X20344D01*
X20344Y12425D02*
Y12425D01*
X26518Y11153D02*
Y11144D01*
X28902Y13516D02*
X29850D01*
X29542Y11153D02*
X30216Y10479D01*
X30515D01*
X34315Y13485D02*
X36000Y11800D01*
X33403Y21255D02*
X33639Y21491D01*
X33403Y21255D02*
X31882D01*
Y21570D02*
X32695D01*
X32622Y21885D02*
X31882D01*
X32610Y22200D02*
X31882D01*
Y22515D02*
X32635D01*
X32790Y22670D01*
X31890Y23360D02*
X31540Y23710D01*
X30983Y23681D02*
Y23857D01*
X31969Y24843D01*
Y25681D01*
X30528Y26283D02*
X29862Y25618D01*
Y25370D01*
X29600D01*
X29409Y25179D01*
Y23681D01*
X29094D02*
Y24692D01*
X28839Y24947D01*
Y25512D01*
Y25658D01*
X29724Y24426D02*
Y23681D01*
X31882Y22830D02*
X31890D01*
Y23360D01*
X35768Y27809D02*
X34954Y26995D01*
X31010Y29470D02*
X30855Y29315D01*
X31839Y34691D02*
X31843Y34694D01*
X31839Y34691D02*
X31135Y35396D01*
Y38744D01*
X31146Y39346D02*
X31532D01*
X31200Y40582D02*
Y41102D01*
Y41772D02*
X31200Y41772D01*
X31583Y41772D02*
X31870Y42059D01*
Y42665D01*
Y43335D02*
X31405Y43800D01*
X30600D01*
Y44800D02*
Y45800D01*
X31018Y46218D01*
X33855D01*
X33873Y46200D02*
X37000D01*
Y48200D01*
X35000D01*
X34982Y46218D02*
X35000Y46200D01*
X30509Y44891D02*
X30600Y44800D01*
X30509Y44891D02*
X27899D01*
X27500Y44492D01*
X24189D01*
X23683Y43987D01*
X22787D01*
X23228Y44500D02*
X23512Y44783D01*
Y45795D01*
X23320Y45987D01*
X22787D01*
Y47320D01*
X22520Y47587D01*
X21395D01*
Y46852D02*
Y46379D01*
X22787Y44987D01*
X23228Y44500D02*
X13220D01*
X12028Y43307D01*
Y42772D01*
X12600Y42200D01*
Y41200D02*
Y38852D01*
Y43200D02*
X13610Y44210D01*
X20700D01*
X21860Y43050D01*
X25850D01*
X26787Y43987D01*
X28839Y45915D02*
X28768Y45987D01*
X26787D01*
X30287Y41102D02*
X30600D01*
X30287D02*
X29980Y40795D01*
X29193D01*
X28686Y40289D01*
X26598D01*
X26598Y39289D02*
X27084Y38803D01*
X29858D01*
X30465Y38744D02*
Y39335D01*
X30477Y39346D01*
X31087Y40469D02*
X31200Y40582D01*
X31087Y40469D02*
X29778D01*
X29598Y40289D01*
X26598Y38289D02*
X26593D01*
X24551Y40835D02*
X21303D01*
X20639Y40171D01*
Y39515D01*
Y38491D02*
X20809Y38321D01*
X22046Y40321D02*
X23139D01*
X23173Y40287D01*
X33855Y36313D02*
X35055Y37513D01*
Y38313D01*
Y39313D02*
X33855D01*
X33855Y40313D02*
X35055D01*
D22*
X11650Y17425D02*
X22144D01*
Y20815D01*
X23310Y21981D01*
X24939D01*
X25725Y21570D02*
X26940D01*
X26936Y21255D02*
X25612D01*
X25314Y20957D01*
X25001D02*
X24791Y20748D01*
Y15691D01*
X24965Y15518D01*
X26902Y13580D01*
X27924Y14602D01*
X29300D01*
X28902Y13580D02*
Y12380D01*
X29542Y11741D01*
Y11153D01*
X28850Y10461D01*
X27902D01*
X27542Y10820D01*
Y11153D01*
X28518D02*
Y11765D01*
X27902Y12380D01*
X26902Y13580D02*
Y12380D01*
X26518Y11996D01*
Y11153D01*
X26518Y11144D02*
X25913Y10539D01*
X21230D01*
X20344Y11425D01*
X19544D01*
X19544Y11425D02*
X18544Y12425D01*
X11650Y17425D02*
X10847Y18228D01*
Y19367D01*
Y20567D01*
X12843Y22562D01*
Y23116D01*
X21062Y25399D02*
X22332D01*
X22839Y24891D01*
Y22452D01*
X23310Y21981D01*
X25725Y21570D02*
X25314Y21981D01*
X28839Y25901D02*
X27800Y26940D01*
X27797Y30881D02*
X27253Y31425D01*
X24146D01*
X23075Y32496D01*
Y33866D01*
X21809Y35132D01*
X20674D01*
X20518Y34976D02*
X18059D01*
X17898Y35138D01*
Y36201D01*
X17425Y36673D01*
X17920Y37168D01*
Y42520D01*
X18600Y43200D01*
X19590Y42210D01*
X24158D01*
X25046Y41321D01*
X24689Y38807D02*
X26080D01*
X30196Y34691D01*
X31839D01*
X33476D01*
X33855Y34313D01*
X34182D01*
X35933Y32561D01*
Y30661D01*
X36594Y30000D01*
X36583D02*
X36110Y29528D01*
Y22646D01*
X34956Y21491D01*
X33639D01*
X17425Y36673D02*
X16473D01*
X15400Y35600D01*
X16473Y36673D02*
X15786Y37361D01*
X15115D01*
X20809Y38321D02*
X24203D01*
X24689Y38807D01*
X29858Y38803D02*
X30406D01*
X30465Y38744D01*
D23*
X18622Y25396D02*
D03*
D24*
X11260Y10600D02*
D03*
Y11600D02*
D03*
X14567Y10600D02*
D03*
Y11600D02*
D03*
X16220Y14000D02*
D03*
Y15000D02*
D03*
X18544Y13425D02*
D03*
X18544Y12425D02*
D03*
X20344Y12425D02*
D03*
Y13425D02*
D03*
Y14425D02*
D03*
Y15425D02*
D03*
Y16425D02*
D03*
X22144Y14425D02*
D03*
Y13425D02*
D03*
Y12425D02*
D03*
Y15425D02*
D03*
Y16425D02*
D03*
Y17425D02*
D03*
X18544Y14425D02*
D03*
X12913Y15000D02*
D03*
Y14000D02*
D03*
X10800Y28400D02*
D03*
Y29400D02*
D03*
Y32000D02*
D03*
Y33000D02*
D03*
Y34000D02*
D03*
Y35000D02*
D03*
X15894Y32800D02*
D03*
X16894D02*
D03*
X18400Y35600D02*
D03*
X17400D02*
D03*
X16400D02*
D03*
X20000Y32000D02*
D03*
X21000Y31000D02*
D03*
X22000D02*
D03*
Y32000D02*
D03*
X21000D02*
D03*
X27797Y32281D02*
D03*
X28797D02*
D03*
X29797D02*
D03*
X30797D02*
D03*
X29797Y33281D02*
D03*
X28797D02*
D03*
X27797D02*
D03*
X28797Y30881D02*
D03*
X28855Y29315D02*
D03*
Y28315D02*
D03*
X29855D02*
D03*
X30855D02*
D03*
X29855Y29315D02*
D03*
X30797Y30881D02*
D03*
X29797D02*
D03*
X34954Y24995D02*
D03*
Y23995D02*
D03*
Y25995D02*
D03*
Y26995D02*
D03*
Y27995D02*
D03*
Y28995D02*
D03*
Y29995D02*
D03*
Y30995D02*
D03*
X36600Y29000D02*
D03*
Y28000D02*
D03*
Y27000D02*
D03*
Y30000D02*
D03*
Y31000D02*
D03*
X35055Y38313D02*
D03*
Y39313D02*
D03*
X30600Y44800D02*
D03*
Y43800D02*
D03*
X29598Y41289D02*
D03*
Y40289D02*
D03*
Y39289D02*
D03*
Y38289D02*
D03*
X26598Y41289D02*
D03*
Y40289D02*
D03*
Y39289D02*
D03*
Y38289D02*
D03*
X25046Y39321D02*
D03*
Y38321D02*
D03*
Y40321D02*
D03*
Y41321D02*
D03*
X26787Y43987D02*
D03*
Y44987D02*
D03*
Y45987D02*
D03*
X30600Y45800D02*
D03*
X22787Y45987D02*
D03*
Y44987D02*
D03*
Y43987D02*
D03*
X22046Y41321D02*
D03*
Y40321D02*
D03*
Y39321D02*
D03*
Y38321D02*
D03*
X18600Y42200D02*
D03*
Y41200D02*
D03*
Y43200D02*
D03*
X12600D02*
D03*
Y42200D02*
D03*
Y41200D02*
D03*
X36400Y17600D02*
D03*
Y18600D02*
D03*
Y19600D02*
D03*
X32000Y11800D02*
D03*
X33000D02*
D03*
X34000D02*
D03*
X35000D02*
D03*
X28902Y13580D02*
D03*
Y12380D02*
D03*
X27902Y13580D02*
D03*
Y12380D02*
D03*
D25*
X33855Y34313D02*
D03*
Y35313D02*
D03*
Y36313D02*
D03*
Y37313D02*
D03*
Y38313D02*
D03*
Y39313D02*
D03*
Y40313D02*
D03*
Y47218D02*
D03*
D26*
X33855Y46218D02*
D03*
D27*
X36000Y47200D02*
D03*
D28*
X35000Y46200D02*
D03*
Y48200D02*
D03*
D29*
X37000Y46200D02*
D03*
Y48200D02*
D03*
D30*
X23866Y11524D02*
D03*
X29524Y47469D02*
D03*
X20134D02*
D03*
D31*
X19476Y16968D02*
D03*
X21029Y18228D02*
D03*
X19520Y21320D02*
D03*
X19800Y22270D02*
D03*
X18960Y21050D02*
D03*
X17752Y22083D02*
D03*
X17157Y21091D02*
D03*
X16693Y21650D02*
D03*
X13626Y24004D02*
D03*
X14940Y25430D02*
D03*
X16400Y28360D02*
D03*
X18071Y29075D02*
D03*
X19945Y28579D02*
D03*
X19266Y29140D02*
D03*
X18080Y30065D02*
D03*
X21057Y27516D02*
D03*
X21969Y26622D02*
D03*
X21949Y24957D02*
D03*
X23374Y24047D02*
D03*
X23480Y25400D02*
D03*
X25453Y23976D02*
D03*
X26090Y22200D02*
D03*
X26154Y20724D02*
D03*
X25992Y20055D02*
D03*
X25390Y19740D02*
D03*
X27074Y17640D02*
D03*
X27845Y16120D02*
D03*
X28440Y15690D02*
D03*
X28375Y17150D02*
D03*
X28800Y17650D02*
D03*
X32790Y22670D02*
D03*
X31540Y23710D02*
D03*
X30154Y24756D02*
D03*
X31539Y25508D02*
D03*
X30528Y26283D02*
D03*
X27800Y26940D02*
D03*
X25880Y26330D02*
D03*
X25400Y25230D02*
D03*
X23085Y27720D02*
D03*
X23510Y28970D02*
D03*
X22602Y28303D02*
D03*
X20996Y29406D02*
D03*
X21189Y28268D02*
D03*
X25046Y28993D02*
D03*
X26310Y30406D02*
D03*
X27800Y31580D02*
D03*
X24110Y33281D02*
D03*
X19996Y35634D02*
D03*
X17425Y36673D02*
D03*
X16917Y34630D02*
D03*
X23173Y40287D02*
D03*
X32169Y30362D02*
D03*
X35331Y21866D02*
D03*
X30515Y10479D02*
D03*
X10670Y26600D02*
D03*
M02*
