%FSLAX24Y24*%
%MOIN*%
G70*
G01*
G75*
G04 Layer_Physical_Order=2*
G04 Layer_Color=16711680*
%ADD10R,0.0748X0.0472*%
%ADD11R,0.0500X0.0217*%
%ADD12C,0.0150*%
%ADD13C,0.0100*%
%ADD14C,0.1874*%
%ADD15R,0.0665X0.0665*%
%ADD16C,0.0665*%
%ADD17R,0.0591X0.0591*%
%ADD18C,0.0591*%
G36*
X67050Y22000D02*
X49235Y21950D01*
X49200Y21985D01*
Y35300D01*
X67050D01*
Y22000D01*
D02*
G37*
%LPC*%
G36*
X58000Y24742D02*
X57947Y24735D01*
X57851Y24695D01*
X57768Y24632D01*
X57705Y24549D01*
X57665Y24453D01*
X57658Y24400D01*
X58000D01*
Y24742D01*
D02*
G37*
G36*
X58442Y24300D02*
X58100D01*
Y23958D01*
X58153Y23965D01*
X58249Y24005D01*
X58332Y24068D01*
X58395Y24151D01*
X58435Y24247D01*
X58442Y24300D01*
D02*
G37*
G36*
X58100Y24742D02*
Y24400D01*
X58442D01*
X58435Y24453D01*
X58395Y24549D01*
X58332Y24632D01*
X58249Y24695D01*
X58153Y24735D01*
X58100Y24742D01*
D02*
G37*
G36*
X64431Y27351D02*
X64318Y27336D01*
X64213Y27292D01*
X64123Y27223D01*
X64053Y27132D01*
X64010Y27027D01*
X63995Y26914D01*
X64010Y26801D01*
X64053Y26696D01*
X64123Y26606D01*
X64213Y26536D01*
X64318Y26493D01*
X64431Y26478D01*
X64544Y26493D01*
X64649Y26536D01*
X64740Y26606D01*
X64809Y26696D01*
X64853Y26801D01*
X64868Y26914D01*
X64853Y27027D01*
X64809Y27132D01*
X64740Y27223D01*
X64649Y27292D01*
X64544Y27336D01*
X64431Y27351D01*
D02*
G37*
G36*
X65982Y26802D02*
X65117D01*
Y25936D01*
X65982D01*
Y26802D01*
D02*
G37*
G36*
X58000Y24300D02*
X57658D01*
X57665Y24247D01*
X57705Y24151D01*
X57768Y24068D01*
X57851Y24005D01*
X57947Y23965D01*
X58000Y23958D01*
Y24300D01*
D02*
G37*
G36*
X64990Y24671D02*
X64827Y24658D01*
X64669Y24620D01*
X64518Y24558D01*
X64379Y24472D01*
X64255Y24366D01*
X64149Y24242D01*
X64063Y24103D01*
X64001Y23952D01*
X63963Y23793D01*
X63950Y23631D01*
X63963Y23468D01*
X64001Y23309D01*
X64063Y23158D01*
X64149Y23019D01*
X64255Y22895D01*
X64379Y22789D01*
X64518Y22704D01*
X64669Y22641D01*
X64827Y22603D01*
X64990Y22590D01*
X65153Y22603D01*
X65312Y22641D01*
X65462Y22704D01*
X65602Y22789D01*
X65726Y22895D01*
X65832Y23019D01*
X65917Y23158D01*
X65979Y23309D01*
X66018Y23468D01*
X66030Y23631D01*
X66018Y23793D01*
X65979Y23952D01*
X65917Y24103D01*
X65832Y24242D01*
X65726Y24366D01*
X65602Y24472D01*
X65462Y24558D01*
X65312Y24620D01*
X65153Y24658D01*
X64990Y24671D01*
D02*
G37*
G36*
X51350D02*
X51187Y24658D01*
X51029Y24620D01*
X50878Y24558D01*
X50739Y24472D01*
X50614Y24366D01*
X50508Y24242D01*
X50423Y24103D01*
X50361Y23952D01*
X50323Y23793D01*
X50310Y23631D01*
X50323Y23468D01*
X50361Y23309D01*
X50423Y23158D01*
X50508Y23019D01*
X50614Y22895D01*
X50739Y22789D01*
X50878Y22704D01*
X51029Y22641D01*
X51187Y22603D01*
X51350Y22590D01*
X51513Y22603D01*
X51671Y22641D01*
X51822Y22704D01*
X51961Y22789D01*
X52086Y22895D01*
X52192Y23019D01*
X52277Y23158D01*
X52339Y23309D01*
X52377Y23468D01*
X52390Y23631D01*
X52377Y23793D01*
X52339Y23952D01*
X52277Y24103D01*
X52192Y24242D01*
X52086Y24366D01*
X51961Y24472D01*
X51822Y24558D01*
X51671Y24620D01*
X51513Y24658D01*
X51350Y24671D01*
D02*
G37*
G36*
X56050Y24749D02*
X55947Y24735D01*
X55851Y24695D01*
X55768Y24632D01*
X55705Y24549D01*
X55665Y24453D01*
X55651Y24350D01*
X55665Y24247D01*
X55705Y24151D01*
X55768Y24068D01*
X55851Y24005D01*
X55947Y23965D01*
X56050Y23951D01*
X56153Y23965D01*
X56249Y24005D01*
X56332Y24068D01*
X56395Y24151D01*
X56435Y24247D01*
X56449Y24350D01*
X56435Y24453D01*
X56395Y24549D01*
X56332Y24632D01*
X56249Y24695D01*
X56153Y24735D01*
X56050Y24749D01*
D02*
G37*
G36*
X55445Y24745D02*
X54655D01*
Y23955D01*
X55445D01*
Y24745D01*
D02*
G37*
G36*
X57050Y24749D02*
X56947Y24735D01*
X56851Y24695D01*
X56768Y24632D01*
X56705Y24549D01*
X56665Y24453D01*
X56651Y24350D01*
X56665Y24247D01*
X56705Y24151D01*
X56768Y24068D01*
X56851Y24005D01*
X56947Y23965D01*
X57050Y23951D01*
X57153Y23965D01*
X57249Y24005D01*
X57332Y24068D01*
X57395Y24151D01*
X57435Y24247D01*
X57449Y24350D01*
X57435Y24453D01*
X57395Y24549D01*
X57332Y24632D01*
X57249Y24695D01*
X57153Y24735D01*
X57050Y24749D01*
D02*
G37*
G36*
X65499Y31161D02*
X65436Y31153D01*
X65331Y31109D01*
X65241Y31040D01*
X65171Y30949D01*
X65128Y30844D01*
X65119Y30781D01*
X65499D01*
Y31161D01*
D02*
G37*
G36*
X65979Y30681D02*
X65599D01*
Y30301D01*
X65662Y30310D01*
X65767Y30353D01*
X65858Y30423D01*
X65927Y30513D01*
X65971Y30618D01*
X65979Y30681D01*
D02*
G37*
G36*
X65499D02*
X65119D01*
X65128Y30618D01*
X65171Y30513D01*
X65241Y30423D01*
X65331Y30353D01*
X65436Y30310D01*
X65499Y30301D01*
Y30681D01*
D02*
G37*
G36*
X64990Y34510D02*
X64827Y34497D01*
X64669Y34459D01*
X64518Y34396D01*
X64379Y34311D01*
X64255Y34205D01*
X64149Y34081D01*
X64063Y33942D01*
X64001Y33791D01*
X63963Y33632D01*
X63950Y33469D01*
X63963Y33307D01*
X64001Y33148D01*
X64063Y32997D01*
X64149Y32858D01*
X64255Y32734D01*
X64379Y32628D01*
X64518Y32542D01*
X64669Y32480D01*
X64827Y32442D01*
X64990Y32429D01*
X65153Y32442D01*
X65312Y32480D01*
X65462Y32542D01*
X65602Y32628D01*
X65726Y32734D01*
X65832Y32858D01*
X65917Y32997D01*
X65979Y33148D01*
X66018Y33307D01*
X66030Y33469D01*
X66018Y33632D01*
X65979Y33791D01*
X65917Y33942D01*
X65832Y34081D01*
X65726Y34205D01*
X65602Y34311D01*
X65462Y34396D01*
X65312Y34459D01*
X65153Y34497D01*
X64990Y34510D01*
D02*
G37*
G36*
X51350D02*
X51187Y34497D01*
X51029Y34459D01*
X50878Y34396D01*
X50739Y34311D01*
X50614Y34205D01*
X50508Y34081D01*
X50423Y33942D01*
X50361Y33791D01*
X50323Y33632D01*
X50310Y33469D01*
X50323Y33307D01*
X50361Y33148D01*
X50423Y32997D01*
X50508Y32858D01*
X50614Y32734D01*
X50739Y32628D01*
X50878Y32542D01*
X51029Y32480D01*
X51187Y32442D01*
X51350Y32429D01*
X51513Y32442D01*
X51671Y32480D01*
X51822Y32542D01*
X51961Y32628D01*
X52086Y32734D01*
X52192Y32858D01*
X52277Y32997D01*
X52339Y33148D01*
X52377Y33307D01*
X52390Y33469D01*
X52377Y33632D01*
X52339Y33791D01*
X52277Y33942D01*
X52192Y34081D01*
X52086Y34205D01*
X51961Y34311D01*
X51822Y34396D01*
X51671Y34459D01*
X51513Y34497D01*
X51350Y34510D01*
D02*
G37*
G36*
X65599Y31161D02*
Y30781D01*
X65979D01*
X65971Y30844D01*
X65927Y30949D01*
X65858Y31040D01*
X65767Y31109D01*
X65662Y31153D01*
X65599Y31161D01*
D02*
G37*
G36*
X65549Y28986D02*
X65436Y28972D01*
X65331Y28928D01*
X65241Y28859D01*
X65171Y28768D01*
X65128Y28663D01*
X65113Y28550D01*
X65128Y28437D01*
X65171Y28332D01*
X65241Y28241D01*
X65331Y28172D01*
X65436Y28128D01*
X65549Y28114D01*
X65662Y28128D01*
X65767Y28172D01*
X65858Y28241D01*
X65927Y28332D01*
X65971Y28437D01*
X65986Y28550D01*
X65971Y28663D01*
X65927Y28768D01*
X65858Y28859D01*
X65767Y28928D01*
X65662Y28972D01*
X65549Y28986D01*
D02*
G37*
G36*
X64431Y28441D02*
X64318Y28426D01*
X64213Y28383D01*
X64123Y28313D01*
X64053Y28223D01*
X64010Y28118D01*
X63995Y28005D01*
X64010Y27892D01*
X64053Y27787D01*
X64123Y27696D01*
X64213Y27627D01*
X64318Y27583D01*
X64431Y27568D01*
X64544Y27583D01*
X64649Y27627D01*
X64740Y27696D01*
X64809Y27787D01*
X64853Y27892D01*
X64868Y28005D01*
X64853Y28118D01*
X64809Y28223D01*
X64740Y28313D01*
X64649Y28383D01*
X64544Y28426D01*
X64431Y28441D01*
D02*
G37*
G36*
X65549Y27896D02*
X65436Y27881D01*
X65331Y27837D01*
X65241Y27768D01*
X65171Y27678D01*
X65128Y27572D01*
X65113Y27459D01*
X65128Y27346D01*
X65171Y27241D01*
X65241Y27151D01*
X65331Y27082D01*
X65436Y27038D01*
X65549Y27023D01*
X65662Y27038D01*
X65767Y27082D01*
X65858Y27151D01*
X65927Y27241D01*
X65971Y27346D01*
X65986Y27459D01*
X65971Y27572D01*
X65927Y27678D01*
X65858Y27768D01*
X65767Y27837D01*
X65662Y27881D01*
X65549Y27896D01*
D02*
G37*
G36*
X64431Y30622D02*
X64318Y30607D01*
X64213Y30564D01*
X64123Y30494D01*
X64053Y30404D01*
X64010Y30299D01*
X63995Y30186D01*
X64010Y30073D01*
X64053Y29968D01*
X64123Y29877D01*
X64213Y29808D01*
X64318Y29764D01*
X64431Y29749D01*
X64544Y29764D01*
X64649Y29808D01*
X64740Y29877D01*
X64809Y29968D01*
X64853Y30073D01*
X64868Y30186D01*
X64853Y30299D01*
X64809Y30404D01*
X64740Y30494D01*
X64649Y30564D01*
X64544Y30607D01*
X64431Y30622D01*
D02*
G37*
G36*
X65549Y30077D02*
X65436Y30062D01*
X65331Y30018D01*
X65241Y29949D01*
X65171Y29859D01*
X65128Y29753D01*
X65113Y29641D01*
X65128Y29528D01*
X65171Y29422D01*
X65241Y29332D01*
X65331Y29263D01*
X65436Y29219D01*
X65549Y29204D01*
X65662Y29219D01*
X65767Y29263D01*
X65858Y29332D01*
X65927Y29422D01*
X65971Y29528D01*
X65986Y29641D01*
X65971Y29753D01*
X65927Y29859D01*
X65858Y29949D01*
X65767Y30018D01*
X65662Y30062D01*
X65549Y30077D01*
D02*
G37*
G36*
X64431Y29532D02*
X64318Y29517D01*
X64213Y29473D01*
X64123Y29404D01*
X64053Y29313D01*
X64010Y29208D01*
X63995Y29095D01*
X64010Y28982D01*
X64053Y28877D01*
X64123Y28787D01*
X64213Y28717D01*
X64318Y28674D01*
X64431Y28659D01*
X64544Y28674D01*
X64649Y28717D01*
X64740Y28787D01*
X64809Y28877D01*
X64853Y28982D01*
X64868Y29095D01*
X64853Y29208D01*
X64809Y29313D01*
X64740Y29404D01*
X64649Y29473D01*
X64544Y29517D01*
X64431Y29532D01*
D02*
G37*
%LPD*%
D14*
X51350Y23631D02*
D03*
Y33469D02*
D03*
X64990Y23631D02*
D03*
Y33469D02*
D03*
D15*
X65549Y26369D02*
D03*
D16*
X64431Y26914D02*
D03*
X65549Y27459D02*
D03*
Y28550D02*
D03*
Y29641D02*
D03*
Y30731D02*
D03*
X64431Y30186D02*
D03*
Y29095D02*
D03*
Y28005D02*
D03*
D17*
X55050Y24350D02*
D03*
D18*
X56050Y24350D02*
D03*
X57050D02*
D03*
X58050D02*
D03*
M02*
